<svg width="16" height="16" viewBox="0 0 16 16" fill="none" xmlns="http://www.w3.org/2000/svg">
<g id="Add">
<path id="vector" d="M8.3665 2.16667C8.44014 2.16667 8.49984 2.22636 8.49984 2.3V7.5H13.6998C13.7735 7.5 13.8332 7.55969 13.8332 7.63333V8.36667C13.8332 8.4403 13.7735 8.5 13.6998 8.5H8.49984V13.7C8.49984 13.7736 8.44014 13.8333 8.3665 13.8333H7.63317C7.55953 13.8333 7.49984 13.7736 7.49984 13.7V8.5H2.29984C2.2262 8.5 2.1665 8.4403 2.1665 8.36667V7.63333C2.1665 7.55969 2.2262 7.5 2.29984 7.5H7.49984V2.3C7.49984 2.22636 7.55953 2.16667 7.63317 2.16667H8.3665Z" fill="#203D99"/>
</g>
</svg>
