<svg width="144" height="144" viewBox="0 0 144 144" fill="none" xmlns="http://www.w3.org/2000/svg">
<rect width="144" height="144" rx="72" fill="#BFBFBF"/>
<path d="M96.748 89.9628C95.4006 86.7711 93.4452 83.8721 90.9909 81.427C88.5439 78.975 85.6454 77.0199 82.4551 75.6699C82.4266 75.6556 82.398 75.6485 82.3694 75.6342C86.8194 72.4199 89.7123 67.1842 89.7123 61.277C89.7123 51.4913 81.7837 43.5627 71.998 43.5627C62.2123 43.5627 54.2837 51.4913 54.2837 61.277C54.2837 67.1842 57.1766 72.4199 61.6266 75.6413C61.598 75.6556 61.5694 75.6628 61.5409 75.677C58.3409 77.027 55.4694 78.9628 53.0051 81.4342C50.5531 83.8811 48.598 86.7797 47.248 89.9699C45.9217 93.0931 45.2064 96.4417 45.1409 99.8342C45.139 99.9104 45.1523 99.9863 45.1802 100.057C45.2081 100.128 45.2498 100.193 45.3031 100.248C45.3563 100.302 45.42 100.345 45.4903 100.375C45.5605 100.405 45.636 100.42 45.7123 100.42H49.998C50.3123 100.42 50.5623 100.17 50.5694 99.8628C50.7123 94.3485 52.9266 89.1842 56.8409 85.2699C60.8909 81.2199 66.2694 78.9913 71.998 78.9913C77.7266 78.9913 83.1051 81.2199 87.1551 85.2699C91.0694 89.1842 93.2837 94.3485 93.4266 99.8628C93.4337 100.177 93.6837 100.42 93.998 100.42H98.2837C98.36 100.42 98.4355 100.405 98.5057 100.375C98.576 100.345 98.6397 100.302 98.6929 100.248C98.7462 100.193 98.7879 100.128 98.8158 100.057C98.8437 99.9863 98.857 99.9104 98.8551 99.8342C98.7837 96.4199 98.0766 93.0985 96.748 89.9628ZM71.998 73.5628C68.7194 73.5628 65.6337 72.2842 63.3123 69.9628C60.9909 67.6413 59.7123 64.5556 59.7123 61.277C59.7123 57.9985 60.9909 54.9127 63.3123 52.5913C65.6337 50.2699 68.7194 48.9913 71.998 48.9913C75.2766 48.9913 78.3623 50.2699 80.6837 52.5913C83.0051 54.9127 84.2837 57.9985 84.2837 61.277C84.2837 64.5556 83.0051 67.6413 80.6837 69.9628C78.3623 72.2842 75.2766 73.5628 71.998 73.5628Z" fill="white"/>
</svg>
