<svg width="24" height="24" viewBox="0 0 24 24" fill="none" xmlns="http://www.w3.org/2000/svg">
<path d="M6.33057 17.3738C6.33057 17.9223 6.77822 18.3699 7.329 18.3699H8.47041V21.1918C8.47041 21.9066 9.04463 22.4902 9.7501 22.4902C10.4579 22.4902 11.0298 21.909 11.0298 21.1918V18.3676H13.022V21.1894C13.022 21.9043 13.5962 22.4879 14.3017 22.4879C15.0095 22.4879 15.5813 21.9066 15.5813 21.1894V18.3676H16.7228C17.2735 18.3676 17.7212 17.9199 17.7212 17.3715V8.10897H6.33057V17.3738ZM14.7001 3.30897L15.7524 1.78554C15.8134 1.69647 15.7993 1.57694 15.7173 1.51835C15.6353 1.4621 15.5181 1.49022 15.4571 1.57929L14.3649 3.16366C13.6454 2.88007 12.8438 2.72304 12.0024 2.72304C11.161 2.72304 10.3595 2.88007 9.63994 3.16366L8.54775 1.58163C8.48682 1.49257 8.36963 1.4621 8.2876 1.52069C8.20557 1.57694 8.1915 1.69413 8.25244 1.78788L9.30478 3.31132C7.63135 4.08944 6.45947 5.56366 6.30947 7.28632H17.7001C17.5454 5.56132 16.3712 4.0871 14.7001 3.30897ZM9.59775 5.71132C9.47306 5.71132 9.35116 5.67434 9.24748 5.60506C9.1438 5.53579 9.063 5.43732 9.01528 5.32212C8.96756 5.20691 8.95507 5.08015 8.9794 4.95785C9.00373 4.83555 9.06377 4.72321 9.15195 4.63504C9.24012 4.54687 9.35246 4.48682 9.47476 4.46249C9.59705 4.43817 9.72382 4.45065 9.83902 4.49837C9.95423 4.54609 10.0527 4.6269 10.122 4.73058C10.1912 4.83426 10.2282 4.95615 10.2282 5.08085C10.2278 5.24793 10.1612 5.40804 10.0431 5.52618C9.92494 5.64432 9.76483 5.71088 9.59775 5.71132ZM14.4821 5.71132C14.3574 5.71132 14.2355 5.67434 14.1319 5.60506C14.0282 5.53579 13.9474 5.43732 13.8997 5.32212C13.8519 5.20691 13.8394 5.08015 13.8638 4.95785C13.8881 4.83555 13.9481 4.72321 14.0363 4.63504C14.1245 4.54687 14.2368 4.48682 14.3591 4.46249C14.4814 4.43817 14.6082 4.45065 14.7234 4.49837C14.8386 4.54609 14.9371 4.6269 15.0063 4.73058C15.0756 4.83426 15.1126 4.95615 15.1126 5.08085C15.1122 5.24793 15.0456 5.40804 14.9275 5.52618C14.8093 5.64432 14.6492 5.71088 14.4821 5.71132ZM19.7181 8.07147C19.0103 8.07147 18.4384 8.65272 18.4384 9.36991V14.4418C18.4384 15.1566 19.0126 15.7402 19.7181 15.7402C20.4259 15.7402 20.9978 15.159 20.9978 14.4418V9.36757C21.0001 8.65038 20.4282 8.07147 19.7181 8.07147ZM4.28213 8.07147C3.57432 8.07147 3.00244 8.65272 3.00244 9.36991V14.4418C3.00244 15.1566 3.57666 15.7402 4.28213 15.7402C4.98994 15.7402 5.56182 15.159 5.56182 14.4418V9.36757C5.56182 8.65038 4.9876 8.07147 4.28213 8.07147Z" fill="#1877F2"/>
</svg>
