<svg width="24" height="24" viewBox="0 0 24 24" fill="none" xmlns="http://www.w3.org/2000/svg">
<path opacity="0.32" d="M18.7501 8.99011V9.69411C18.7501 10.5391 18.9901 11.3651 19.4421 12.0681L20.5501 13.7911C21.5611 15.3651 20.7891 17.5041 19.0301 18.0011C14.4338 19.3031 9.56631 19.3031 4.97006 18.0011C3.21106 17.5041 2.43906 15.3651 3.45006 13.7911L4.55806 12.0681C5.01164 11.3595 5.25217 10.5355 5.25106 9.69411V8.99011C5.25106 5.12411 8.27306 1.99011 12.0001 1.99011C15.7271 1.99011 18.7501 5.12411 18.7501 8.99011Z" fill="#1877F2"/>
<path d="M12.7502 5.99011C12.7502 5.7912 12.6711 5.60043 12.5305 5.45978C12.3898 5.31913 12.1991 5.24011 12.0002 5.24011C11.8013 5.24011 11.6105 5.31913 11.4698 5.45978C11.3292 5.60043 11.2502 5.7912 11.2502 5.99011V9.99011C11.2502 10.189 11.3292 10.3798 11.4698 10.5204C11.6105 10.6611 11.8013 10.7401 12.0002 10.7401C12.1991 10.7401 12.3898 10.6611 12.5305 10.5204C12.6711 10.3798 12.7502 10.189 12.7502 9.99011V5.99011ZM7.24316 18.5351C7.56991 19.5392 8.20605 20.4142 9.06046 21.0347C9.91487 21.6551 10.9437 21.9893 11.9997 21.9893C13.0556 21.9893 14.0845 21.6551 14.9389 21.0347C15.7933 20.4142 16.4294 19.5392 16.7562 18.5351C13.6112 19.1251 10.3892 19.1251 7.24316 18.5351Z" fill="#1877F2"/>
</svg>
