<svg width="20" height="20" viewBox="0 0 20 20" fill="none" xmlns="http://www.w3.org/2000/svg">
<path fill-rule="evenodd" clip-rule="evenodd" d="M1.66675 5.83335C1.66675 3.53217 3.53223 1.66669 5.83342 1.66669H14.1667C16.4679 1.66669 18.3334 3.53217 18.3334 5.83335V14.1667C18.3334 16.4679 16.4679 18.3334 14.1667 18.3334H5.83342C3.53223 18.3334 1.66675 16.4679 1.66675 14.1667V5.83335ZM12.5001 10.8334H7.50008C7.03984 10.8334 6.66675 10.4603 6.66675 10C6.66675 9.53978 7.03984 9.16669 7.50008 9.16669H12.5001C12.9603 9.16669 13.3334 9.53978 13.3334 10C13.3334 10.4603 12.9603 10.8334 12.5001 10.8334Z" fill="#203D99"/>
</svg>
