<svg width="24" height="24" viewBox="0 0 24 24" fill="none" xmlns="http://www.w3.org/2000/svg">
<path d="M12.16 17.972C10.9387 17.972 9.92532 17.7107 9.11999 17.188C8.31999 16.66 7.84265 15.8813 7.68799 14.852L9.23999 14.756C9.41066 15.4067 9.75199 15.8947 10.264 16.22C10.776 16.5453 11.4053 16.708 12.152 16.708C12.6 16.708 13.0187 16.6307 13.408 16.476C13.8027 16.3213 14.12 16.1053 14.36 15.828C14.6053 15.5507 14.728 15.2227 14.728 14.844C14.728 14.3373 14.576 13.932 14.272 13.628C13.9733 13.324 13.496 13.084 12.84 12.908L10.848 12.388C9.98932 12.1693 9.30932 11.8253 8.80799 11.356C8.30665 10.8867 8.05332 10.2573 8.04799 9.468C8.04265 8.80133 8.21599 8.21467 8.56799 7.708C8.92532 7.20133 9.41599 6.80667 10.04 6.524C10.6693 6.24133 11.3947 6.1 12.216 6.1C13.0053 6.1 13.6853 6.252 14.256 6.556C14.832 6.85467 15.2773 7.252 15.592 7.748C15.912 8.244 16.0827 8.78533 16.104 9.372L14.6 9.452C14.4827 8.764 14.2293 8.244 13.84 7.892C13.456 7.53467 12.9147 7.356 12.216 7.356C11.8853 7.356 11.5653 7.39867 11.256 7.484C10.952 7.564 10.6773 7.68667 10.432 7.852C10.192 8.01733 9.99999 8.22267 9.85599 8.468C9.71199 8.71333 9.63999 8.99867 9.63999 9.324C9.63999 9.74 9.78666 10.0707 10.08 10.316C10.3733 10.556 10.9013 10.7933 11.664 11.028L13.584 11.572C14.5653 11.844 15.264 12.268 15.68 12.844C16.1013 13.4147 16.312 14.076 16.312 14.828C16.312 15.4413 16.1387 15.9853 15.792 16.46C15.4453 16.9293 14.9573 17.3 14.328 17.572C13.704 17.8387 12.9813 17.972 12.16 17.972ZM11.536 4.516H12.904V6.58H11.536V4.516ZM11.44 17.42H12.808V19.484H11.44V17.42Z" fill="#1877F2"/>
</svg>
