<svg width="24" height="24" viewBox="0 0 24 24" fill="none" xmlns="http://www.w3.org/2000/svg">
<g clip-path="url(#clip0_53_2650)">
<path d="M19.5002 12C19.4342 12 19.3704 12.0075 19.3052 12.0098L18.1779 6.75H21.0002V5.25H17.2502C17.1383 5.24997 17.0278 5.27496 16.9268 5.32316C16.8259 5.37136 16.737 5.44153 16.6666 5.52855C16.5963 5.61556 16.5463 5.7172 16.5204 5.82603C16.4944 5.93486 16.4932 6.04811 16.5167 6.1575L16.9652 8.25H9.29041L8.54041 6H10.5002V4.5H5.25016V6H6.96016L7.74091 8.34225L5.81341 12.1973C4.93863 11.9293 4.00296 11.9344 3.13114 12.2118C2.25931 12.4892 1.49276 13.0258 0.933657 13.75C0.374555 14.4741 0.0494691 15.3515 0.00173608 16.2652C-0.0459969 17.1788 0.18589 18.0853 0.666486 18.8638C1.14708 19.6423 1.85355 20.2558 2.69172 20.6226C3.52989 20.9893 4.45993 21.0919 5.35788 20.9166C6.25582 20.7413 7.07899 20.2964 7.71767 19.6414C8.35634 18.9863 8.78017 18.1521 8.93266 17.25H10.8902C11.1152 17.2506 11.3375 17.2003 11.5403 17.1029C11.7432 17.0055 11.9214 16.8635 12.0617 16.6875L17.3552 10.0695L17.8382 12.3225C16.8005 12.7384 15.9552 13.5262 15.4674 14.5321C14.9796 15.5379 14.8843 16.6895 15.2002 17.7618C15.516 18.8341 16.2203 19.7502 17.1754 20.331C18.1306 20.9118 19.268 21.1157 20.3654 20.9027C21.4628 20.6898 22.4414 20.0753 23.11 19.1794C23.7786 18.2836 24.0892 17.1706 23.981 16.0579C23.8729 14.9453 23.3538 13.9129 22.5252 13.1625C21.6966 12.4122 20.618 11.9976 19.5002 12ZM4.50016 19.5C4.07911 19.5008 3.66261 19.413 3.27774 19.2422C2.89287 19.0715 2.54825 18.8216 2.2663 18.5089C1.98435 18.1962 1.77139 17.8276 1.64126 17.4272C1.51113 17.0268 1.46674 16.6034 1.511 16.1847C1.55525 15.766 1.68715 15.3613 1.89811 14.9969C2.10908 14.6325 2.39438 14.3166 2.73547 14.0697C3.07656 13.8229 3.4658 13.6506 3.87786 13.564C4.28992 13.4775 4.71558 13.4787 5.12716 13.5675L3.82966 16.1647L3.83641 16.1677C3.78192 16.2702 3.75237 16.384 3.75016 16.5C3.74902 16.6688 3.80523 16.8329 3.90958 16.9655C4.01393 17.0982 4.16023 17.1914 4.32451 17.23C4.4888 17.2686 4.66132 17.2503 4.81383 17.178C4.96633 17.1058 5.08977 16.9839 5.16391 16.8323L5.17141 16.8353L6.46291 14.25C6.92553 14.6487 7.25482 15.1797 7.40642 15.7713C7.55801 16.3629 7.52462 16.9868 7.31075 17.5589C7.09688 18.1309 6.7128 18.6237 6.21027 18.9708C5.70774 19.3179 5.1109 19.5026 4.50016 19.5ZM8.93266 15.75C8.73627 14.596 8.09784 13.564 7.15291 12.873L8.41141 10.3545L10.2099 15.75H8.93266ZM11.5262 14.955L9.79066 9.75H15.6894L11.5262 14.955ZM19.5002 19.5C18.8248 19.5021 18.1687 19.2757 17.6384 18.8575C17.1082 18.4393 16.7351 17.8539 16.5798 17.1967C16.4245 16.5395 16.4963 15.849 16.7833 15.2377C17.0703 14.6265 17.5558 14.1303 18.1607 13.83L18.7667 16.6575L18.7817 16.6545C18.8148 16.8212 18.9043 16.9714 19.0351 17.0799C19.166 17.1884 19.3302 17.2484 19.5002 17.25C19.6991 17.25 19.8898 17.171 20.0305 17.0303C20.1711 16.8897 20.2502 16.6989 20.2502 16.5C20.2454 16.4475 20.2349 16.3957 20.2187 16.3455L20.2337 16.3425L19.6277 13.5128C20.4124 13.543 21.1538 13.8803 21.6922 14.452C22.2307 15.0236 22.523 15.7839 22.5063 16.569C22.4896 17.3542 22.1651 18.1013 21.6029 18.6495C21.0406 19.1977 20.2855 19.5032 19.5002 19.5Z" fill="#1877F2"/>
</g>
<defs>
<clipPath id="clip0_53_2650">
<rect width="24" height="24" fill="white"/>
</clipPath>
</defs>
</svg>
