<svg width="24" height="24" viewBox="0 0 24 24" fill="none" xmlns="http://www.w3.org/2000/svg">
<path d="M3 12.0001H12V13.5001H3V12.0001ZM1.5 8.25012H9V9.75012H1.5V8.25012Z" fill="#1877F2"/>
<path d="M22.4392 12.4546L20.1892 7.20462C20.1315 7.06968 20.0354 6.95467 19.9129 6.87387C19.7903 6.79307 19.6468 6.75004 19.5 6.75012H17.25V5.25012C17.25 5.05121 17.171 4.86044 17.0303 4.71979C16.8897 4.57914 16.6989 4.50012 16.5 4.50012H4.5V6.00012H15.75V15.4171C15.4082 15.6156 15.1092 15.8797 14.87 16.1943C14.6308 16.5089 14.4563 16.8677 14.3565 17.2501H9.6435C9.46095 16.5431 9.02683 15.927 8.42249 15.5172C7.81816 15.1074 7.08511 14.932 6.36075 15.024C5.63639 15.116 4.97045 15.4691 4.48776 16.0169C4.00507 16.5648 3.73876 17.2699 3.73876 18.0001C3.73876 18.7303 4.00507 19.4354 4.48776 19.9833C4.97045 20.5312 5.63639 20.8842 6.36075 20.9762C7.08511 21.0682 7.81816 20.8929 8.42249 20.4831C9.02683 20.0733 9.46095 19.4571 9.6435 18.7501H14.3565C14.5197 19.3938 14.8928 19.9647 15.4168 20.3725C15.9409 20.7803 16.586 21.0017 17.25 21.0017C17.914 21.0017 18.5591 20.7803 19.0832 20.3725C19.6072 19.9647 19.9803 19.3938 20.1435 18.7501H21.75C21.9489 18.7501 22.1397 18.6711 22.2803 18.5305C22.421 18.3898 22.5 18.199 22.5 18.0001V12.7501C22.5 12.6485 22.4794 12.548 22.4392 12.4546ZM6.75 19.5001C6.45333 19.5001 6.16332 19.4121 5.91665 19.2473C5.66997 19.0825 5.47771 18.8482 5.36418 18.5741C5.25065 18.3001 5.22094 17.9985 5.27882 17.7075C5.3367 17.4165 5.47956 17.1492 5.68934 16.9395C5.89912 16.7297 6.16639 16.5868 6.45736 16.5289C6.74834 16.4711 7.04994 16.5008 7.32403 16.6143C7.59811 16.7278 7.83238 16.9201 7.9972 17.1668C8.16203 17.4134 8.25 17.7035 8.25 18.0001C8.2496 18.3978 8.09144 18.7791 7.81022 19.0603C7.529 19.3416 7.1477 19.4997 6.75 19.5001ZM17.25 8.25012H19.005L20.613 12.0001H17.25V8.25012ZM17.25 19.5001C16.9533 19.5001 16.6633 19.4121 16.4166 19.2473C16.17 19.0825 15.9777 18.8482 15.8642 18.5741C15.7507 18.3001 15.7209 17.9985 15.7788 17.7075C15.8367 17.4165 15.9796 17.1492 16.1893 16.9395C16.3991 16.7297 16.6664 16.5868 16.9574 16.5289C17.2483 16.4711 17.5499 16.5008 17.824 16.6143C18.0981 16.7278 18.3324 16.9201 18.4972 17.1668C18.662 17.4134 18.75 17.7035 18.75 18.0001C18.7496 18.3978 18.5914 18.7791 18.3102 19.0603C18.029 19.3416 17.6477 19.4997 17.25 19.5001ZM21 17.2501H20.1435C19.9783 16.6077 19.6046 16.0383 19.0809 15.6311C18.5573 15.2239 17.9133 15.002 17.25 15.0001V13.5001H21V17.2501Z" fill="#1877F2"/>
</svg>
