<svg width="24" height="24" viewBox="0 0 24 24" fill="none" xmlns="http://www.w3.org/2000/svg">
<path d="M5.46587 17.4691L11.4636 11.4714L12.5241 12.5319L6.52637 18.5296L5.46587 17.4691Z" fill="#1877F2"/>
<path d="M12.7499 22.5001C12.6549 22.5003 12.5607 22.4825 12.4724 22.4476C12.3495 22.3986 12.2418 22.318 12.1601 22.214C12.0784 22.1099 12.0257 21.9861 12.0074 21.8551L11.2574 16.6051L12.7574 16.3951L13.3199 20.3476L15.7499 18.3901V12.7501C15.7493 12.6514 15.7682 12.5536 15.8055 12.4622C15.8429 12.3708 15.8979 12.2877 15.9674 12.2176L19.0199 9.16511C19.6488 8.5404 20.1477 7.79716 20.4876 6.9784C20.8274 6.15963 21.0015 5.2816 20.9999 4.39511V3.00011H19.6049C18.7184 2.99842 17.8403 3.17255 17.0216 3.51241C16.2028 3.85228 15.4596 4.35113 14.8349 4.98011L11.7824 8.03261C11.7123 8.10212 11.6292 8.15711 11.5378 8.19444C11.4464 8.23176 11.3486 8.25068 11.2499 8.25011H5.60987L3.65237 10.6951L7.60487 11.2576L7.39487 12.7576L2.14487 12.0076C2.01387 11.9892 1.89007 11.9365 1.78601 11.8549C1.68196 11.7732 1.60135 11.6655 1.55237 11.5426C1.50278 11.4189 1.48706 11.2842 1.50683 11.1523C1.52661 11.0205 1.58116 10.8963 1.66487 10.7926L4.66487 7.04261C4.73396 6.95284 4.82248 6.87989 4.9238 6.82923C5.02512 6.77857 5.1366 6.75152 5.24987 6.75011H10.9424L13.7699 3.91511C14.5342 3.14644 15.4436 2.53716 16.4452 2.1226C17.4469 1.70804 18.5208 1.49646 19.6049 1.50011H20.9999C21.3977 1.50011 21.7792 1.65814 22.0605 1.93945C22.3418 2.22075 22.4999 2.60228 22.4999 3.00011V4.39511C22.5035 5.47913 22.2919 6.5531 21.8774 7.55473C21.4628 8.55637 20.8535 9.46573 20.0849 10.2301L17.2499 13.0576V18.7501C17.2493 18.8628 17.2235 18.9739 17.1741 19.0751C17.1248 19.1764 17.0533 19.2653 16.9649 19.3351L13.2149 22.3351C13.0829 22.441 12.919 22.4991 12.7499 22.5001Z" fill="#1877F2"/>
</svg>
