<svg width="16" height="16" viewBox="0 0 16 16" fill="none" xmlns="http://www.w3.org/2000/svg">
<path d="M8 14.6667C6.96606 14.6917 5.96436 14.3058 5.21453 13.5935C4.4647 12.8811 4.02793 11.9005 4 10.8667V4.08666C4.01922 3.33927 4.33376 2.62993 4.87477 2.1139C5.41578 1.59788 6.1392 1.31721 6.88667 1.33333C7.63528 1.31542 8.3604 1.59529 8.90286 2.11151C9.44532 2.62772 9.76079 3.33808 9.78 4.08666V10.8733C9.75228 11.3257 9.55302 11.7505 9.22288 12.061C8.89274 12.3716 8.45657 12.5444 8.00333 12.5444C7.5501 12.5444 7.11393 12.3716 6.78379 12.061C6.45364 11.7505 6.25439 11.3257 6.22667 10.8733V4.61333C6.22667 4.43652 6.2969 4.26695 6.42193 4.14192C6.54695 4.0169 6.71652 3.94666 6.89333 3.94666C7.07014 3.94666 7.23971 4.0169 7.36474 4.14192C7.48976 4.26695 7.56 4.43652 7.56 4.61333V10.8733C7.5733 10.9815 7.62571 11.0812 7.70738 11.1534C7.78904 11.2256 7.8943 11.2655 8.00333 11.2655C8.11236 11.2655 8.21763 11.2256 8.29929 11.1534C8.38095 11.0812 8.43337 10.9815 8.44667 10.8733V4.08666C8.42594 3.69227 8.25051 3.32196 7.95845 3.05611C7.66639 2.79026 7.28127 2.65032 6.88667 2.66666C6.4932 2.65212 6.10978 2.79286 5.81917 3.05853C5.52856 3.32419 5.35406 3.69347 5.33333 4.08666V10.8667C5.36109 11.547 5.65731 12.1885 6.15713 12.6509C6.65694 13.1132 7.31961 13.3586 8 13.3333C8.68039 13.3586 9.34306 13.1132 9.84287 12.6509C10.3427 12.1885 10.6389 11.547 10.6667 10.8667V4.08666C10.6667 3.90985 10.7369 3.74028 10.8619 3.61526C10.987 3.49023 11.1565 3.42 11.3333 3.42C11.5101 3.42 11.6797 3.49023 11.8047 3.61526C11.9298 3.74028 12 3.90985 12 4.08666V10.8667C11.9721 11.9005 11.5353 12.8811 10.7855 13.5935C10.0356 14.3058 9.03394 14.6917 8 14.6667Z" fill="#8C8C8C"/>
</svg>
