<svg width="24" height="24" viewBox="0 0 24 24" fill="none" xmlns="http://www.w3.org/2000/svg">
<path d="M17.5598 21C17.3998 21.0006 17.2421 20.9629 17.0998 20.89L11.9998 18.22L6.89976 20.89C6.73416 20.9771 6.54744 21.016 6.36084 21.0022C6.17424 20.9884 5.99524 20.9226 5.84419 20.8122C5.69314 20.7018 5.5761 20.5512 5.50638 20.3776C5.43665 20.2039 5.41704 20.0142 5.44976 19.83L6.44976 14.2L2.32976 10.2C2.20122 10.0717 2.11003 9.91087 2.06599 9.73469C2.02195 9.55852 2.02671 9.37367 2.07976 9.2C2.13772 9.02227 2.24434 8.86435 2.38751 8.74416C2.53069 8.62396 2.70469 8.5463 2.88976 8.52L8.58976 7.69L11.0998 2.56C11.1816 2.39093 11.3095 2.24834 11.4687 2.14857C11.6278 2.0488 11.8119 1.99589 11.9998 1.99589C12.1876 1.99589 12.3717 2.0488 12.5309 2.14857C12.69 2.24834 12.8179 2.39093 12.8998 2.56L15.4398 7.68L21.1398 8.51C21.3248 8.5363 21.4988 8.61396 21.642 8.73416C21.7852 8.85435 21.8918 9.01227 21.9498 9.19C22.0028 9.36367 22.0076 9.54852 21.9635 9.72469C21.9195 9.90087 21.8283 10.0617 21.6998 10.19L17.5798 14.19L18.5798 19.82C18.6155 20.0075 18.5968 20.2013 18.5259 20.3784C18.455 20.5556 18.3349 20.7089 18.1798 20.82C17.9987 20.9469 17.7806 21.0102 17.5598 21Z" fill="#1877F2"/>
</svg>
