<svg width="41" height="41" viewBox="0 0 41 41" fill="none" xmlns="http://www.w3.org/2000/svg" xmlns:xlink="http://www.w3.org/1999/xlink">
<g style="mix-blend-mode:multiply" opacity="0.2">
<rect x="14.02" y="11.3804" width="17.04" height="19.68" fill="url(#pattern0)"/>
<g style="mix-blend-mode:multiply" opacity="0.2">
<path d="M29.2301 11.4902H15.7201C15.2507 11.4902 14.8701 11.8708 14.8701 12.3402V28.6702C14.8701 29.1397 15.2507 29.5202 15.7201 29.5202H29.2301C29.6996 29.5202 30.0801 29.1397 30.0801 28.6702V12.3402C30.0801 11.8708 29.6996 11.4902 29.2301 11.4902Z" fill="white"/>
</g>
</g>
<g style="mix-blend-mode:multiply" opacity="0.12">
<rect x="14.4199" y="11.3003" width="16.08" height="18.72" fill="url(#pattern1)"/>
<g style="mix-blend-mode:multiply" opacity="0.12">
<path d="M29.2301 11.4902H15.7201C15.2507 11.4902 14.8701 11.8708 14.8701 12.3402V28.6702C14.8701 29.1397 15.2507 29.5202 15.7201 29.5202H29.2301C29.6996 29.5202 30.0801 29.1397 30.0801 28.6702V12.3402C30.0801 11.8708 29.6996 11.4902 29.2301 11.4902Z" fill="white"/>
</g>
</g>
<path d="M22.7497 11.5005H15.7497C15.639 11.4992 15.5292 11.52 15.4267 11.5618C15.3242 11.6035 15.231 11.6653 15.1528 11.7436C15.0745 11.8219 15.0127 11.915 14.9709 12.0175C14.9292 12.12 14.9084 12.2299 14.9097 12.3405V16.0005H22.7897L22.7497 11.5005Z" fill="#21A366"/>
<path d="M29.23 11.5005H22.75V16.0005H30.08V12.3305C30.0787 12.2202 30.0557 12.1113 30.0122 12.0098C29.9688 11.9084 29.9058 11.8166 29.8269 11.7395C29.748 11.6624 29.6546 11.6016 29.5522 11.5606C29.4498 11.5196 29.3403 11.4992 29.23 11.5005Z" fill="#33C481"/>
<path d="M30.07 20.5005H22.75V25.0105H30.07V20.5005Z" fill="#107C41"/>
<path d="M22.7502 25.0105V20.5005H14.8702V28.6705C14.8688 28.7812 14.8896 28.891 14.9314 28.9935C14.9731 29.096 15.0349 29.1892 15.1132 29.2674C15.1915 29.3457 15.2846 29.4075 15.3871 29.4493C15.4897 29.491 15.5995 29.5118 15.7102 29.5105H29.2302C29.3413 29.5118 29.4516 29.4911 29.5547 29.4494C29.6578 29.4078 29.7516 29.3462 29.8306 29.268C29.9097 29.1899 29.9725 29.0968 30.0153 28.9943C30.0581 28.8917 30.0802 28.7816 30.0802 28.6705V25.0105H22.7502Z" fill="#185C37"/>
<path d="M22.7601 15.9902H14.8701V20.5002H22.7601V15.9902Z" fill="#107C41"/>
<path d="M30.07 15.9902H22.75V20.5002H30.07V15.9902Z" fill="#21A366"/>
<g style="mix-blend-mode:multiply" opacity="0.48">
<rect x="8.43994" y="14.2002" width="14.16" height="14.16" fill="url(#pattern2)"/>
<g style="mix-blend-mode:multiply" opacity="0.48">
<path d="M19.6499 15.4302H11.2099C10.7404 15.4302 10.3599 15.8107 10.3599 16.2802V24.7202C10.3599 25.1896 10.7404 25.5702 11.2099 25.5702H19.6499C20.1193 25.5702 20.4999 25.1896 20.4999 24.7202V16.2802C20.4999 15.8107 20.1193 15.4302 19.6499 15.4302Z" fill="white"/>
</g>
</g>
<g style="mix-blend-mode:multiply" opacity="0.24">
<rect x="10.1001" y="15.1401" width="10.8" height="10.8" fill="url(#pattern3)"/>
<g style="mix-blend-mode:multiply" opacity="0.24">
<path d="M19.6499 15.4302H11.2099C10.7404 15.4302 10.3599 15.8107 10.3599 16.2802V24.7202C10.3599 25.1896 10.7404 25.5702 11.2099 25.5702H19.6499C20.1193 25.5702 20.4999 25.1896 20.4999 24.7202V16.2802C20.4999 15.8107 20.1193 15.4302 19.6499 15.4302Z" fill="white"/>
</g>
</g>
<path d="M19.6499 15.4302H11.2099C10.7404 15.4302 10.3599 15.8107 10.3599 16.2802V24.7202C10.3599 25.1896 10.7404 25.5702 11.2099 25.5702H19.6499C20.1193 25.5702 20.4999 25.1896 20.4999 24.7202V16.2802C20.4999 15.8107 20.1193 15.4302 19.6499 15.4302Z" fill="#107C41"/>
<path d="M12.98 23.2505L14.75 20.5005L13.13 17.7605H14.44L15.32 19.5005C15.3869 19.6223 15.4438 19.7494 15.49 19.8805C15.5453 19.7467 15.6087 19.6165 15.68 19.4905L16.68 17.7505H17.88L16.17 20.5005L17.88 23.2705H16.6L15.6 21.3405C15.5467 21.2627 15.5031 21.1788 15.47 21.0905C15.4367 21.1769 15.3966 21.2605 15.35 21.3405L14.29 23.2705L12.98 23.2505Z" fill="white"/>
<g style="mix-blend-mode:soft-light" opacity="0.5">
<path style="mix-blend-mode:soft-light" opacity="0.5" d="M19.6499 15.4302H11.2099C10.7404 15.4302 10.3599 15.8107 10.3599 16.2802V24.7202C10.3599 25.1896 10.7404 25.5702 11.2099 25.5702H19.6499C20.1193 25.5702 20.4999 25.1896 20.4999 24.7202V16.2802C20.4999 15.8107 20.1193 15.4302 19.6499 15.4302Z" fill="url(#paint0_linear_316_51587)"/>
</g>
<defs>
<pattern id="pattern0" patternContentUnits="objectBoundingBox" width="1" height="1">
<use xlink:href="#image0_316_51587" transform="scale(0.0138889 0.0120482)"/>
</pattern>
<pattern id="pattern1" patternContentUnits="objectBoundingBox" width="1" height="1">
<use xlink:href="#image1_316_51587" transform="scale(0.0147059 0.0126582)"/>
</pattern>
<pattern id="pattern2" patternContentUnits="objectBoundingBox" width="1" height="1">
<use xlink:href="#image2_316_51587" transform="scale(0.0166667)"/>
</pattern>
<pattern id="pattern3" patternContentUnits="objectBoundingBox" width="1" height="1">
<use xlink:href="#image3_316_51587" transform="scale(0.0217391)"/>
</pattern>
<linearGradient id="paint0_linear_316_51587" x1="12.1199" y1="14.7702" x2="18.7399" y2="26.2302" gradientUnits="userSpaceOnUse">
<stop stop-color="white" stop-opacity="0.5"/>
<stop offset="1" stop-opacity="0.7"/>
</linearGradient>
</defs>
</svg>
