<svg width="24" height="24" viewBox="0 0 24 24" fill="none" xmlns="http://www.w3.org/2000/svg">
<path d="M9.99981 19C9.76616 19.0005 9.53972 18.9191 9.35981 18.77C9.1553 18.6005 9.02666 18.3565 9.00227 18.092C8.97788 17.8274 9.05975 17.5641 9.22981 17.36L13.7098 12L9.38981 6.63001C9.22204 6.42341 9.14354 6.15846 9.17169 5.89382C9.19985 5.62918 9.33233 5.38668 9.53981 5.22001C9.74898 5.03597 10.0254 4.94753 10.3026 4.976C10.5797 5.00448 10.8324 5.14728 10.9998 5.37001L15.8298 11.37C16.1331 11.739 16.1331 12.271 15.8298 12.64L10.8298 18.64C10.6263 18.8855 10.318 19.0192 9.99981 19Z" fill="#262626"/>
</svg>
