<svg width="24" height="24" viewBox="0 0 24 24" fill="none" xmlns="http://www.w3.org/2000/svg">
<path d="M21.0003 12C21.0003 11.4477 20.5526 11 20.0003 11C19.448 11 19.0003 11.4477 19.0003 12V14.3L14.7603 9.29999C14.4443 8.93061 13.9084 8.842 13.4903 9.08999L9.22029 11.7L4.77029 6.35999C4.54164 6.08489 4.18359 5.95268 3.83103 6.01315C3.47847 6.07362 3.18494 6.31759 3.06103 6.65315C2.93712 6.98871 3.00164 7.36489 3.23029 7.63999L8.23029 13.64C8.5448 14.0181 9.08757 14.1114 9.51029 13.86L13.7903 11.29L17.7903 16H15.0003C14.448 16 14.0003 16.4477 14.0003 17C14.0003 17.5523 14.448 18 15.0003 18H20.0003C20.1234 17.997 20.245 17.9733 20.3603 17.93L20.5003 17.85C20.5524 17.8237 20.6026 17.7936 20.6503 17.76C20.7051 17.7105 20.7522 17.6532 20.7903 17.59C20.8238 17.5457 20.8539 17.4989 20.8803 17.45C20.9048 17.3959 20.9216 17.3387 20.9303 17.28C20.9708 17.1918 20.9946 17.0969 21.0003 17V12Z" fill="#1877F2"/>
</svg>
