<svg width="16" height="16" viewBox="0 0 16 16" fill="none" xmlns="http://www.w3.org/2000/svg">
<path d="M14.6 7.99999C14.6 7.92665 14.56 7.85332 14.54 7.77999C14.5091 7.65061 14.469 7.52362 14.42 7.39999C14.3867 7.31999 14.34 7.23999 14.3 7.15332C14.26 7.06665 14.2 6.95332 14.14 6.85999C14.08 6.76665 14 6.71999 14 6.66665C14 6.61332 13.8667 6.49999 13.7933 6.41999C13.72 6.33999 13.6533 6.28665 13.58 6.21999L13.3333 5.99999L13.0933 5.83999C12.9991 5.78233 12.9011 5.7311 12.8 5.68665L12.54 5.56665C12.4311 5.52632 12.3198 5.49292 12.2067 5.46665C12.1171 5.4403 12.0257 5.42025 11.9333 5.40665L11.78 5.33332C11.508 4.54736 10.9977 3.86573 10.3202 3.38329C9.64274 2.90086 8.83171 2.6416 8 2.6416C7.16829 2.6416 6.35727 2.90086 5.67978 3.38329C5.00229 3.86573 4.49203 4.54736 4.22 5.33332L4.1 5.36665C4.0076 5.38025 3.91627 5.4003 3.82667 5.42665C3.71356 5.45292 3.60223 5.48632 3.49334 5.52665L3.23334 5.64665C3.13222 5.6911 3.03422 5.74233 2.94 5.79999L2.7 5.99999L2.45334 6.20665C2.38 6.27332 2.30667 6.33332 2.24 6.40665C2.17334 6.47999 2.1 6.57332 2.03334 6.65332C1.96667 6.73332 1.91334 6.80665 1.86 6.89332C1.80667 6.97999 1.75334 7.08665 1.7 7.18665C1.64667 7.28665 1.61334 7.35332 1.58 7.43332C1.53096 7.55695 1.49086 7.68395 1.46 7.81332C1.46 7.88665 1.41334 7.95999 1.4 8.03332C1.35851 8.24196 1.33619 8.45395 1.33334 8.66665C1.33646 8.87019 1.35653 9.07311 1.39334 9.27332C1.39334 9.33999 1.42667 9.39999 1.44 9.46665C1.47295 9.59762 1.51301 9.7267 1.56 9.85332L1.64 10.0467C1.69869 10.1752 1.76549 10.2999 1.84 10.42L1.93334 10.5667C1.94293 10.5853 1.95408 10.6032 1.96667 10.62L2 10.6667C2.31049 11.0806 2.71311 11.4167 3.17596 11.6481C3.63881 11.8795 4.14919 12 4.66667 12H6.66667V11.0867C6.46411 11.2042 6.23418 11.2662 6 11.2667C5.63884 11.2633 5.29369 11.1171 5.04 10.86C4.9182 10.734 4.82243 10.5852 4.75817 10.4221C4.69392 10.2591 4.66244 10.085 4.66553 9.90974C4.66863 9.73451 4.70624 9.56162 4.77622 9.40094C4.84619 9.24026 4.94715 9.09495 5.07334 8.97332L7.07334 7.03999C7.32217 6.80015 7.6544 6.6663 8 6.66665C8.35305 6.66814 8.6911 6.8096 8.94 7.05999L10.94 9.05999C11.1883 9.3098 11.3277 9.64774 11.3277 9.99999C11.3277 10.3522 11.1883 10.6902 10.94 10.94C10.6911 11.1904 10.3531 11.3318 10 11.3333C9.76549 11.3355 9.53487 11.2733 9.33334 11.1533V12H11.3333C11.8508 12 12.3612 11.8795 12.824 11.6481C13.2869 11.4167 13.6895 11.0806 14 10.6667L14.0333 10.6333C14.0459 10.6165 14.0571 10.5987 14.0667 10.58L14.16 10.4333C14.2345 10.3132 14.3013 10.1885 14.36 10.06L14.44 9.86665C14.487 9.74004 14.5271 9.61096 14.56 9.47999C14.56 9.41332 14.5933 9.35332 14.6067 9.28665C14.6442 9.08206 14.6643 8.87465 14.6667 8.66665C14.6659 8.44281 14.6436 8.21955 14.6 7.99999Z" fill="#262626"/>
<path d="M8.47334 7.52665C8.34872 7.4045 8.18117 7.33608 8.00667 7.33608C7.83217 7.33608 7.66462 7.4045 7.54 7.52665L5.54 9.45999C5.46926 9.51836 5.41133 9.5907 5.36982 9.67248C5.32831 9.75427 5.30413 9.84373 5.29878 9.93529C5.29342 10.0268 5.30702 10.1185 5.33872 10.2046C5.37041 10.2907 5.41952 10.3692 5.48298 10.4355C5.54644 10.5017 5.62288 10.5541 5.70751 10.5894C5.79215 10.6247 5.88316 10.6422 5.97487 10.6408C6.06657 10.6393 6.15699 10.619 6.24046 10.581C6.32394 10.543 6.39867 10.4882 6.46 10.42L7.33334 9.57332V13.3333C7.33334 13.5101 7.40357 13.6797 7.5286 13.8047C7.65362 13.9297 7.82319 14 8 14C8.17681 14 8.34638 13.9297 8.47141 13.8047C8.59643 13.6797 8.66667 13.5101 8.66667 13.3333V9.60665L9.52667 10.4733C9.58864 10.5358 9.66238 10.5854 9.74362 10.6192C9.82486 10.6531 9.91199 10.6705 10 10.6705C10.088 10.6705 10.1751 10.6531 10.2564 10.6192C10.3376 10.5854 10.4114 10.5358 10.4733 10.4733C10.5358 10.4113 10.5854 10.3376 10.6193 10.2564C10.6531 10.1751 10.6705 10.088 10.6705 9.99999C10.6705 9.91198 10.6531 9.82484 10.6193 9.7436C10.5854 9.66236 10.5358 9.58863 10.4733 9.52665L8.47334 7.52665Z" fill="#262626"/>
</svg>
