<svg width="24" height="24" viewBox="0 0 24 24" fill="none" xmlns="http://www.w3.org/2000/svg">
<path fill-rule="evenodd" clip-rule="evenodd" d="M2 12C2 6.47715 6.47715 2 12 2C14.6522 2 17.1957 3.05357 19.0711 4.92893C20.9464 6.8043 22 9.34784 22 12C22 17.5228 17.5228 22 12 22C6.47715 22 2 17.5228 2 12ZM11.73 15.61L16.3 9.61V9.58C16.5179 9.29419 16.5668 8.91382 16.4283 8.58218C16.2897 8.25054 15.9848 8.01801 15.6283 7.97218C15.2718 7.92635 14.9179 8.07419 14.7 8.36L10.92 13.36L9.29 11.28C9.07028 10.9978 8.71668 10.8542 8.36239 10.9033C8.00811 10.9525 7.70696 11.1869 7.57239 11.5183C7.43783 11.8497 7.49028 12.2278 7.71 12.51L10.15 15.62C10.3408 15.8615 10.6322 16.0017 10.94 16C11.2495 15.9993 11.5412 15.8552 11.73 15.61Z" fill="#1877F2"/>
</svg>
