<svg width="24" height="24" viewBox="0 0 24 24" fill="none" xmlns="http://www.w3.org/2000/svg">
<path d="M20 10.9901C19.7348 10.9901 19.4804 11.0955 19.2929 11.283C19.1054 11.4705 19 11.7249 19 11.9901V17.9901C19 18.2553 18.8946 18.5097 18.7071 18.6972C18.5196 18.8848 18.2652 18.9901 18 18.9901H6C5.73478 18.9901 5.48043 18.8848 5.29289 18.6972C5.10536 18.5097 5 18.2553 5 17.9901V5.99011C5 5.7249 5.10536 5.47054 5.29289 5.28301C5.48043 5.09547 5.73478 4.99011 6 4.99011H12C12.2652 4.99011 12.5196 4.88476 12.7071 4.69722C12.8946 4.50968 13 4.25533 13 3.99011C13 3.7249 12.8946 3.47054 12.7071 3.28301C12.5196 3.09547 12.2652 2.99011 12 2.99011H6C5.20435 2.99011 4.44129 3.30618 3.87868 3.86879C3.31607 4.4314 3 5.19446 3 5.99011V17.9901C3 18.7858 3.31607 19.5488 3.87868 20.1114C4.44129 20.674 5.20435 20.9901 6 20.9901H18C18.7956 20.9901 19.5587 20.674 20.1213 20.1114C20.6839 19.5488 21 18.7858 21 17.9901V11.9901C21 11.7249 20.8946 11.4705 20.7071 11.283C20.5196 11.0955 20.2652 10.9901 20 10.9901Z" fill="#262626"/>
<path d="M16 4.99011H17.58L11.29 11.2701C11.1963 11.3631 11.1219 11.4737 11.0711 11.5955C11.0203 11.7174 10.9942 11.8481 10.9942 11.9801C10.9942 12.1121 11.0203 12.2428 11.0711 12.3647C11.1219 12.4865 11.1963 12.5971 11.29 12.6901C11.383 12.7838 11.4936 12.8582 11.6154 12.909C11.7373 12.9598 11.868 12.9859 12 12.9859C12.132 12.9859 12.2627 12.9598 12.3846 12.909C12.5064 12.8582 12.617 12.7838 12.71 12.6901L19 6.41011V7.99011C19 8.25533 19.1054 8.50968 19.2929 8.69722C19.4804 8.88476 19.7348 8.99011 20 8.99011C20.2652 8.99011 20.5196 8.88476 20.7071 8.69722C20.8946 8.50968 21 8.25533 21 7.99011V3.99011C21 3.7249 20.8946 3.47054 20.7071 3.28301C20.5196 3.09547 20.2652 2.99011 20 2.99011H16C15.7348 2.99011 15.4804 3.09547 15.2929 3.28301C15.1054 3.47054 15 3.7249 15 3.99011C15 4.25533 15.1054 4.50968 15.2929 4.69722C15.4804 4.88476 15.7348 4.99011 16 4.99011Z" fill="#262626"/>
</svg>
