<svg width="24" height="25" viewBox="0 0 24 25" fill="none" xmlns="http://www.w3.org/2000/svg">
<path d="M12.0003 16.0013C11.7666 16.0017 11.5402 15.9204 11.3603 15.7713L5.3603 10.7713C4.93504 10.4178 4.87684 9.78653 5.2303 9.36128C5.58376 8.93602 6.21504 8.87781 6.6403 9.23128L12.0003 13.7113L17.3603 9.39128C17.5669 9.2235 17.8318 9.14501 18.0965 9.17316C18.3611 9.20131 18.6036 9.3338 18.7703 9.54128C18.9554 9.74913 19.0456 10.0248 19.019 10.3018C18.9924 10.5789 18.8516 10.8324 18.6303 11.0013L12.6303 15.8313C12.4452 15.9568 12.2234 16.0166 12.0003 16.0013Z" fill="#203D99"/>
</svg>
