<svg width="24" height="24" viewBox="0 0 24 24" fill="none" xmlns="http://www.w3.org/2000/svg">
<path d="M17.71 6.29C17.617 6.19627 17.5064 6.12188 17.3846 6.07111C17.2627 6.02034 17.132 5.9942 17 5.9942C16.868 5.9942 16.7373 6.02034 16.6154 6.07111C16.4936 6.12188 16.383 6.19627 16.29 6.29L8 14.59V9C8 8.73478 7.89464 8.48043 7.70711 8.29289C7.51957 8.10536 7.26522 8 7 8C6.73478 8 6.48043 8.10536 6.29289 8.29289C6.10536 8.48043 6 8.73478 6 9V17C6 17.2652 6.10536 17.5196 6.29289 17.7071C6.48043 17.8946 6.73478 18 7 18H15C15.2652 18 15.5196 17.8946 15.7071 17.7071C15.8946 17.5196 16 17.2652 16 17C16 16.7348 15.8946 16.4804 15.7071 16.2929C15.5196 16.1054 15.2652 16 15 16H9.41L17.71 7.71C17.8037 7.61704 17.8781 7.50644 17.9289 7.38458C17.9797 7.26272 18.0058 7.13201 18.0058 7C18.0058 6.86799 17.9797 6.73728 17.9289 6.61542C17.8781 6.49356 17.8037 6.38296 17.71 6.29Z" fill="#1877F2"/>
</svg>
