<svg width="16" height="16" viewBox="0 0 16 16" fill="none" xmlns="http://www.w3.org/2000/svg">
<path d="M11.334 4.8335C11.0578 4.8335 10.834 5.05735 10.834 5.3335V10.6668C10.834 10.943 11.0578 11.1668 11.334 11.1668C11.6101 11.1668 11.834 10.943 11.834 10.6668V5.3335C11.834 5.05735 11.6101 4.8335 11.334 4.8335Z" fill="#203D99"/>
<path d="M4.16732 8.00016C4.16732 8.27631 4.39118 8.50016 4.66732 8.50016H8.12688L6.98043 9.64661C6.78517 9.84187 6.78517 10.1585 6.98043 10.3537C7.17569 10.549 7.49228 10.549 7.68754 10.3537L9.68754 8.35372C9.78131 8.25995 9.83398 8.13277 9.83398 8.00016C9.83398 7.86756 9.78131 7.74038 9.68754 7.64661L7.68754 5.64661C7.49228 5.45135 7.17569 5.45135 6.98043 5.64661C6.78517 5.84187 6.78517 6.15845 6.98043 6.35372L8.12688 7.50016H4.66732C4.39118 7.50016 4.16732 7.72402 4.16732 8.00016Z" fill="#203D99"/>
<path fill-rule="evenodd" clip-rule="evenodd" d="M7.9624 0.833496C6.42347 0.833488 5.21745 0.833481 4.27645 0.959994C3.3133 1.08949 2.55328 1.35971 1.95674 1.95625C1.3602 2.55279 1.08998 3.31281 0.960482 4.27597C0.833969 5.21696 0.833976 6.42298 0.833985 7.96191V8.03841C0.833976 9.57734 0.833969 10.7834 0.960482 11.7244C1.08998 12.6875 1.3602 13.4475 1.95674 14.0441C2.55328 14.6406 3.3133 14.9108 4.27645 15.0403C5.21745 15.1668 6.42347 15.1668 7.9624 15.1668H8.0389C9.57783 15.1668 10.7839 15.1668 11.7248 15.0403C12.688 14.9108 13.448 14.6406 14.0446 14.0441C14.6411 13.4475 14.9113 12.6875 15.0408 11.7244C15.1673 10.7834 15.1673 9.57734 15.1673 8.03841V7.96192C15.1673 6.42298 15.1673 5.21696 15.0408 4.27597C14.9113 3.31281 14.6411 2.55279 14.0446 1.95625C13.448 1.35971 12.688 1.08949 11.7248 0.959994C10.7839 0.833481 9.57783 0.833488 8.0389 0.833496H7.9624ZM2.66385 2.66336C3.04362 2.28359 3.55743 2.06566 4.4097 1.95108C5.27635 1.83456 6.41517 1.8335 8.00065 1.8335C9.58613 1.8335 10.7249 1.83456 11.5916 1.95108C12.4439 2.06566 12.9577 2.28359 13.3375 2.66336C13.7172 3.04313 13.9352 3.55695 14.0497 4.40921C14.1663 5.27587 14.1673 6.41468 14.1673 8.00016C14.1673 9.58565 14.1663 10.7245 14.0497 11.5911C13.9352 12.4434 13.7172 12.9572 13.3375 13.337C12.9577 13.7167 12.4439 13.9347 11.5916 14.0492C10.7249 14.1658 9.58613 14.1668 8.00065 14.1668C6.41517 14.1668 5.27635 14.1658 4.4097 14.0492C3.55743 13.9347 3.04362 13.7167 2.66385 13.337C2.28408 12.9572 2.06615 12.4434 1.95157 11.5911C1.83505 10.7245 1.83398 9.58565 1.83398 8.00016C1.83398 6.41468 1.83505 5.27587 1.95157 4.40921C2.06615 3.55695 2.28408 3.04313 2.66385 2.66336Z" fill="#203D99"/>
</svg>
