<svg width="16" height="16" viewBox="0 0 16 16" fill="none" xmlns="http://www.w3.org/2000/svg">
<path d="M14.6 7.33332C14.6 7.25999 14.56 7.18665 14.54 7.11332C14.5091 6.98395 14.469 6.85695 14.42 6.73332C14.3867 6.65332 14.34 6.57332 14.3 6.48665C14.26 6.39999 14.2 6.28665 14.14 6.19332C14.08 6.09999 14 6.05332 14 5.99999C14 5.94665 13.8667 5.83332 13.7933 5.75332C13.72 5.67332 13.6533 5.61999 13.58 5.55332L13.3333 5.33332L13.0933 5.17332C12.9991 5.11566 12.9011 5.06444 12.8 5.01999L12.54 4.89999C12.4311 4.85966 12.3198 4.82626 12.2067 4.79999C12.1171 4.77363 12.0257 4.75358 11.9333 4.73999H11.8133C11.5565 3.93949 11.0541 3.24025 10.3773 2.74158C9.70048 2.2429 8.88377 1.97013 8.04314 1.96201C7.2025 1.95389 6.38068 2.21083 5.69438 2.69635C5.00808 3.18186 4.4922 3.87127 4.22 4.66665H4.1C4.00759 4.68025 3.91626 4.7003 3.82666 4.72665C3.71355 4.75292 3.60222 4.78632 3.49333 4.82665L3.23333 4.94665C3.13221 4.9911 3.03421 5.04233 2.93999 5.09999L2.7 5.33332L2.45333 5.53999C2.37999 5.60665 2.30666 5.66665 2.23999 5.73999C2.17333 5.81332 2.09999 5.90665 2.03333 5.98665C1.96666 6.06665 1.91333 6.13999 1.85999 6.22665C1.80666 6.31332 1.75333 6.41999 1.69999 6.51999C1.64666 6.61999 1.61333 6.68665 1.57999 6.76665C1.53096 6.89029 1.49085 7.01728 1.45999 7.14665C1.45999 7.21999 1.41333 7.29332 1.39999 7.36665C1.3585 7.57529 1.33618 7.78728 1.33333 7.99999C1.33645 8.20352 1.35652 8.40645 1.39333 8.60665C1.39333 8.67332 1.42666 8.73332 1.43999 8.79999C1.47295 8.93096 1.51301 9.06004 1.55999 9.18665L1.63999 9.37999C1.69868 9.50854 1.76548 9.63324 1.83999 9.75332L1.93333 9.89999C1.94292 9.91867 1.95407 9.93651 1.96666 9.95332L1.99999 9.99999C2.31049 10.414 2.7131 10.75 3.17595 10.9814C3.6388 11.2128 4.14918 11.3333 4.66666 11.3333C4.66815 10.9803 4.8096 10.6422 5.06 10.3933C5.3089 10.1429 5.64694 10.0015 6 9.99999C6.23451 9.99778 6.46513 10.06 6.66666 10.18V7.99999C6.66666 7.64636 6.80714 7.30723 7.05719 7.05718C7.30723 6.80713 7.64637 6.66665 8 6.66665C8.35362 6.66665 8.69276 6.80713 8.9428 7.05718C9.19285 7.30723 9.33333 7.64636 9.33333 7.99999V10.2467C9.53589 10.1292 9.76582 10.0671 10 10.0667C10.3612 10.07 10.7063 10.2162 10.96 10.4733C11.1844 10.7053 11.3171 11.0109 11.3333 11.3333C11.8508 11.3333 12.3612 11.2128 12.824 10.9814C13.2869 10.75 13.6895 10.414 14 9.99999L14.0333 9.96665C14.0459 9.94984 14.0571 9.932 14.0667 9.91332L14.16 9.76665C14.2345 9.64657 14.3013 9.52188 14.36 9.39332L14.44 9.19999C14.487 9.07337 14.527 8.94429 14.56 8.81332C14.56 8.74665 14.5933 8.68665 14.6067 8.61999C14.6442 8.4154 14.6643 8.20798 14.6667 7.99999C14.6659 7.77614 14.6436 7.55289 14.6 7.33332Z" fill="#262626"/>
<path d="M9.54 10.92L8.66666 11.76V7.99999C8.66666 7.82317 8.59642 7.65361 8.4714 7.52858C8.34638 7.40356 8.17681 7.33332 8 7.33332C7.82318 7.33332 7.65361 7.40356 7.52859 7.52858C7.40357 7.65361 7.33333 7.82317 7.33333 7.99999V11.7267L6.47333 10.86C6.41117 10.7978 6.33738 10.7485 6.25616 10.7149C6.17495 10.6812 6.0879 10.6639 6 10.6639C5.91209 10.6639 5.82504 10.6812 5.74383 10.7149C5.66261 10.7485 5.58882 10.7978 5.52666 10.86C5.4645 10.9221 5.4152 10.9959 5.38156 11.0772C5.34791 11.1584 5.3306 11.2454 5.3306 11.3333C5.3306 11.4212 5.34791 11.5083 5.38156 11.5895C5.4152 11.6707 5.4645 11.7445 5.52666 11.8067L7.52666 13.8067C7.58895 13.8684 7.66283 13.9173 7.74406 13.9505C7.82528 13.9837 7.91226 14.0005 8 14C8.17164 13.9993 8.33641 13.9324 8.45999 13.8133L10.46 11.88C10.5307 11.8216 10.5887 11.7493 10.6302 11.6675C10.6717 11.5857 10.6959 11.4962 10.7012 11.4047C10.7066 11.3131 10.693 11.2214 10.6613 11.1354C10.6296 11.0493 10.5805 10.9707 10.517 10.9045C10.4536 10.8383 10.3771 10.7859 10.2925 10.7506C10.2078 10.7152 10.1168 10.6977 10.0251 10.6992C9.93343 10.7006 9.84301 10.721 9.75954 10.759C9.67606 10.797 9.60132 10.8518 9.54 10.92Z" fill="#262626"/>
<path d="M14.6 7.33332C14.6 7.25999 14.56 7.18665 14.54 7.11332C14.5091 6.98395 14.469 6.85695 14.42 6.73332C14.3867 6.65332 14.34 6.57332 14.3 6.48665C14.26 6.39999 14.2 6.28665 14.14 6.19332C14.08 6.09999 14 6.05332 14 5.99999C14 5.94665 13.8667 5.83332 13.7933 5.75332C13.72 5.67332 13.6533 5.61999 13.58 5.55332L13.3333 5.33332L13.0933 5.17332C12.9991 5.11566 12.9011 5.06444 12.8 5.01999L12.54 4.89999C12.4311 4.85966 12.3198 4.82626 12.2067 4.79999C12.1171 4.77363 12.0257 4.75358 11.9333 4.73999H11.8133C11.5565 3.93949 11.0541 3.24025 10.3773 2.74158C9.70048 2.2429 8.88377 1.97013 8.04314 1.96201C7.2025 1.95389 6.38068 2.21083 5.69438 2.69635C5.00808 3.18186 4.4922 3.87127 4.22 4.66665H4.1C4.00759 4.68025 3.91626 4.7003 3.82666 4.72665C3.71355 4.75292 3.60222 4.78632 3.49333 4.82665L3.23333 4.94665C3.13221 4.9911 3.03421 5.04233 2.93999 5.09999L2.7 5.33332L2.45333 5.53999C2.37999 5.60665 2.30666 5.66665 2.23999 5.73999C2.17333 5.81332 2.09999 5.90665 2.03333 5.98665C1.96666 6.06665 1.91333 6.13999 1.85999 6.22665C1.80666 6.31332 1.75333 6.41999 1.69999 6.51999C1.64666 6.61999 1.61333 6.68665 1.57999 6.76665C1.53096 6.89029 1.49085 7.01728 1.45999 7.14665C1.45999 7.21999 1.41333 7.29332 1.39999 7.36665C1.3585 7.57529 1.33618 7.78728 1.33333 7.99999C1.33645 8.20352 1.35652 8.40645 1.39333 8.60665C1.39333 8.67332 1.42666 8.73332 1.43999 8.79999C1.47295 8.93096 1.51301 9.06004 1.55999 9.18665L1.63999 9.37999C1.69868 9.50854 1.76548 9.63324 1.83999 9.75332L1.93333 9.89999C1.94292 9.91867 1.95407 9.93651 1.96666 9.95332L1.99999 9.99999C2.31049 10.414 2.7131 10.75 3.17595 10.9814C3.6388 11.2128 4.14918 11.3333 4.66666 11.3333C4.66815 10.9803 4.8096 10.6422 5.06 10.3933C5.3089 10.1429 5.64694 10.0015 6 9.99999C6.23451 9.99778 6.46513 10.06 6.66666 10.18V7.99999C6.66666 7.64636 6.80714 7.30723 7.05719 7.05718C7.30723 6.80713 7.64637 6.66665 8 6.66665C8.35362 6.66665 8.69276 6.80713 8.9428 7.05718C9.19285 7.30723 9.33333 7.64636 9.33333 7.99999V10.2467C9.53589 10.1292 9.76582 10.0671 10 10.0667C10.3612 10.07 10.7063 10.2162 10.96 10.4733C11.1844 10.7053 11.3171 11.0109 11.3333 11.3333C11.8508 11.3333 12.3612 11.2128 12.824 10.9814C13.2869 10.75 13.6895 10.414 14 9.99999L14.0333 9.96665C14.0459 9.94984 14.0571 9.932 14.0667 9.91332L14.16 9.76665C14.2345 9.64657 14.3013 9.52188 14.36 9.39332L14.44 9.19999C14.487 9.07337 14.527 8.94429 14.56 8.81332C14.56 8.74665 14.5933 8.68665 14.6067 8.61999C14.6442 8.4154 14.6643 8.20798 14.6667 7.99999C14.6659 7.77614 14.6436 7.55289 14.6 7.33332Z" fill="#262626"/>
<path d="M9.54 10.92L8.66666 11.76V7.99999C8.66666 7.82317 8.59642 7.65361 8.4714 7.52858C8.34638 7.40356 8.17681 7.33332 8 7.33332C7.82318 7.33332 7.65361 7.40356 7.52859 7.52858C7.40357 7.65361 7.33333 7.82317 7.33333 7.99999V11.7267L6.47333 10.86C6.41117 10.7978 6.33738 10.7485 6.25616 10.7149C6.17495 10.6812 6.0879 10.6639 6 10.6639C5.91209 10.6639 5.82504 10.6812 5.74383 10.7149C5.66261 10.7485 5.58882 10.7978 5.52666 10.86C5.4645 10.9221 5.4152 10.9959 5.38156 11.0772C5.34791 11.1584 5.3306 11.2454 5.3306 11.3333C5.3306 11.4212 5.34791 11.5083 5.38156 11.5895C5.4152 11.6707 5.4645 11.7445 5.52666 11.8067L7.52666 13.8067C7.58895 13.8684 7.66283 13.9173 7.74406 13.9505C7.82528 13.9837 7.91226 14.0005 8 14C8.17164 13.9993 8.33641 13.9324 8.45999 13.8133L10.46 11.88C10.5307 11.8216 10.5887 11.7493 10.6302 11.6675C10.6717 11.5857 10.6959 11.4962 10.7012 11.4047C10.7066 11.3131 10.693 11.2214 10.6613 11.1354C10.6296 11.0493 10.5805 10.9707 10.517 10.9045C10.4536 10.8383 10.3771 10.7859 10.2925 10.7506C10.2078 10.7152 10.1168 10.6977 10.0251 10.6992C9.93343 10.7006 9.84301 10.721 9.75954 10.759C9.67606 10.797 9.60132 10.8518 9.54 10.92Z" fill="#262626"/>
</svg>
