<svg width="24" height="24" viewBox="0 0 24 24" fill="none" xmlns="http://www.w3.org/2000/svg">
<path fill-rule="evenodd" clip-rule="evenodd" d="M22.5601 16.3L14.8901 3.58C14.2598 2.594 13.1703 1.99738 12.0001 1.99738C10.8299 1.99738 9.74038 2.594 9.1101 3.58L1.4401 16.3C0.888647 17.2192 0.869586 18.3629 1.3901 19.3C1.99207 20.3551 3.11533 21.0046 4.3301 21H19.6701C20.8766 21.0129 21.9979 20.3797 22.6101 19.34C23.1462 18.3926 23.1271 17.2292 22.5601 16.3ZM12.0001 17C11.4478 17 11.0001 16.5523 11.0001 16C11.0001 15.4477 11.4478 15 12.0001 15C12.5524 15 13.0001 15.4477 13.0001 16C13.0001 16.5523 12.5524 17 12.0001 17ZM12.0001 14C12.5524 14 13.0001 13.5523 13.0001 13V9C13.0001 8.44771 12.5524 8 12.0001 8C11.4478 8 11.0001 8.44771 11.0001 9V13C11.0001 13.5523 11.4478 14 12.0001 14Z" fill="#1877F2"/>
</svg>
