<svg width="24" height="24" viewBox="0 0 24 24" fill="none" xmlns="http://www.w3.org/2000/svg">
<path d="M22 8.608V16.75C22.0001 17.5801 21.6824 18.3788 21.1123 18.9822C20.5422 19.5856 19.7628 19.948 18.934 19.995L18.75 20H5.25C4.41986 20.0001 3.62117 19.6824 3.01777 19.1123C2.41437 18.5422 2.052 17.7628 2.005 16.934L2 16.75V8.608L11.652 13.664C11.7594 13.7202 11.8788 13.7496 12 13.7496C12.1212 13.7496 12.2406 13.7202 12.348 13.664L22 8.608ZM5.25 4H18.75C19.5556 3.9999 20.3325 4.299 20.93 4.83927C21.5276 5.37954 21.9032 6.12248 21.984 6.924L12 12.154L2.016 6.924C2.09352 6.15431 2.44305 5.43752 3.00175 4.90246C3.56045 4.36741 4.29168 4.04919 5.064 4.005L5.25 4Z" fill="#1877F2"/>
</svg>
