<svg width="24" height="24" viewBox="0 0 24 24" fill="none" xmlns="http://www.w3.org/2000/svg">
<path d="M23 6.5C23 7.95869 22.4205 9.35764 21.3891 10.3891C20.3576 11.4205 18.9587 12 17.5 12C16.0413 12 14.6424 11.4205 13.6109 10.3891C12.5795 9.35764 12 7.95869 12 6.5C12 5.04131 12.5795 3.64236 13.6109 2.61091C14.6424 1.57946 16.0413 1 17.5 1C18.9587 1 20.3576 1.57946 21.3891 2.61091C22.4205 3.64236 23 5.04131 23 6.5ZM20.854 4.146C20.8076 4.09944 20.7524 4.06249 20.6916 4.03729C20.6309 4.01208 20.5658 3.99911 20.5 3.99911C20.4342 3.99911 20.3691 4.01208 20.3084 4.03729C20.2476 4.06249 20.1924 4.09944 20.146 4.146L16.5 7.793L14.854 6.146C14.7601 6.05211 14.6328 5.99937 14.5 5.99937C14.3672 5.99937 14.2399 6.05211 14.146 6.146C14.0521 6.23989 13.9994 6.36722 13.9994 6.5C13.9994 6.63278 14.0521 6.76011 14.146 6.854L16.146 8.854C16.1924 8.90056 16.2476 8.93751 16.3084 8.96271C16.3691 8.98792 16.4342 9.00089 16.5 9.00089C16.5658 9.00089 16.6309 8.98792 16.6916 8.96271C16.7524 8.93751 16.8076 8.90056 16.854 8.854L20.854 4.854C20.9006 4.80755 20.9375 4.75238 20.9627 4.69163C20.9879 4.63089 21.0009 4.56577 21.0009 4.5C21.0009 4.43423 20.9879 4.36911 20.9627 4.30837C20.9375 4.24762 20.9006 4.19245 20.854 4.146ZM17.5 13C19.1778 13.0022 20.791 12.3533 22 11.19V16.75C22.0001 17.5801 21.6824 18.3788 21.1123 18.9822C20.5422 19.5856 19.7628 19.948 18.934 19.995L18.75 20H5.25C4.41986 20.0001 3.62117 19.6824 3.01777 19.1123C2.41437 18.5422 2.052 17.7628 2.005 16.934L2 16.75V8.608L11.652 13.664C11.7594 13.7202 11.8788 13.7496 12 13.7496C12.1212 13.7496 12.2406 13.7202 12.348 13.664L14.765 12.398C15.6219 12.7957 16.5553 13.0012 17.5 13ZM5.25 4H11.498C11.1681 4.79213 10.9988 5.64191 11 6.5C11 8.493 11.897 10.276 13.308 11.468L12 12.153L2.016 6.923C2.09375 6.15349 2.44337 5.43693 3.00205 4.90208C3.56073 4.36723 4.29184 4.04915 5.064 4.005L5.25 4Z" fill="#1877F2"/>
</svg>
