<svg width="24" height="24" viewBox="0 0 24 24" fill="none" xmlns="http://www.w3.org/2000/svg">
<path d="M21 17.7402C21 18.6022 20.6576 19.4288 20.0481 20.0383C19.4386 20.6478 18.612 20.9902 17.75 20.9902H6.25C5.38805 20.9902 4.5614 20.6478 3.9519 20.0383C3.34241 19.4288 3 18.6022 3 17.7402V6.24023C3 5.37828 3.34241 4.55163 3.9519 3.94214C4.5614 3.33264 5.38805 2.99023 6.25 2.99023H17.75C18.612 2.99023 19.4386 3.33264 20.0481 3.94214C20.6576 4.55163 21 5.37828 21 6.24023V17.7402ZM19.5 17.7402V6.24023C19.5 5.77611 19.3156 5.33099 18.9874 5.0028C18.6592 4.67461 18.2141 4.49023 17.75 4.49023H6.25C5.78587 4.49023 5.34075 4.67461 5.01256 5.0028C4.68437 5.33099 4.5 5.77611 4.5 6.24023V17.7402C4.5 18.7062 5.284 19.4902 6.25 19.4902H17.75C18.2141 19.4902 18.6592 19.3059 18.9874 18.9777C19.3156 18.6495 19.5 18.2044 19.5 17.7402ZM17 7.74023C17 7.92147 16.9344 8.09658 16.8152 8.23316C16.6961 8.36975 16.5316 8.45859 16.352 8.48323L16.25 8.49023H7.75C7.55998 8.49018 7.37706 8.41799 7.23821 8.28826C7.09936 8.15853 7.01493 7.98094 7.00197 7.79135C6.98902 7.60177 7.04852 7.41434 7.16843 7.26694C7.28835 7.11953 7.45975 7.02314 7.648 6.99723L7.75 6.99023H16.25C16.4489 6.99023 16.6397 7.06925 16.7803 7.2099C16.921 7.35056 17 7.54132 17 7.74023ZM17 16.2402C17 16.4215 16.9344 16.5966 16.8152 16.7332C16.6961 16.8698 16.5316 16.9586 16.352 16.9832L16.25 16.9902H7.75C7.55998 16.9902 7.37706 16.918 7.23821 16.7883C7.09936 16.6585 7.01493 16.4809 7.00197 16.2914C6.98902 16.1018 7.04852 15.9143 7.16843 15.7669C7.28835 15.6195 7.45975 15.5231 7.648 15.4972L7.75 15.4902H16.25C16.4489 15.4902 16.6397 15.5693 16.7803 15.7099C16.921 15.8506 17 16.0413 17 16.2402ZM17 11.9902C17 12.1715 16.9344 12.3466 16.8152 12.4832C16.6961 12.6198 16.5316 12.7086 16.352 12.7332L16.25 12.7402H7.75C7.55998 12.7402 7.37706 12.668 7.23821 12.5383C7.09936 12.4085 7.01493 12.2309 7.00197 12.0414C6.98902 11.8518 7.04852 11.6643 7.16843 11.5169C7.28835 11.3695 7.45975 11.2731 7.648 11.2472L7.75 11.2402H16.25C16.4489 11.2402 16.6397 11.3193 16.7803 11.4599C16.921 11.6006 17 11.7913 17 11.9902Z" fill="#262626"/>
</svg>
