<svg width="64" height="64" viewBox="0 0 64 64" fill="none" xmlns="http://www.w3.org/2000/svg">
<rect width="64" height="64" rx="2" fill="#203D99" fill-opacity="0.08"/>
<path d="M28.8395 41.0256C28.185 41.0256 27.6543 41.5307 27.6543 42.1538C27.6543 42.7769 28.185 43.282 28.8395 43.282H35.1605C35.8151 43.282 36.3457 42.7769 36.3457 42.1538C36.3457 41.5307 35.8151 41.0256 35.1605 41.0256H28.8395Z" fill="#203D99"/>
<path fill-rule="evenodd" clip-rule="evenodd" d="M22.6062 18.5449C23.4211 17.7691 24.5265 17.3333 25.679 17.3333H38.321C39.4735 17.3333 40.5789 17.7691 41.3939 18.5449C42.2088 19.3207 42.6667 20.3729 42.6667 21.47V42.5298C42.6667 43.627 42.2088 44.6792 41.3939 45.455C40.5789 46.2307 39.4735 46.6666 38.321 46.6666H25.679C24.5265 46.6666 23.4211 46.2307 22.6062 45.455C21.7912 44.6792 21.3333 43.627 21.3333 42.5298V21.47C21.3333 20.3729 21.7912 19.3207 22.6062 18.5449ZM25.679 19.5897C25.1551 19.5897 24.6527 19.7878 24.2823 20.1404C23.9118 20.493 23.7037 20.9713 23.7037 21.47V42.5298C23.7037 43.0285 23.9118 43.5068 24.2823 43.8594C24.6527 44.2121 25.1551 44.4102 25.679 44.4102H38.321C38.8449 44.4102 39.3473 44.2121 39.7178 43.8594C40.0882 43.5068 40.2963 43.0285 40.2963 42.5298V21.47C40.2963 20.9713 40.0882 20.493 39.7178 20.1404C39.3473 19.7878 38.8449 19.5897 38.321 19.5897H34.698C34.7417 19.7073 34.7654 19.8339 34.7654 19.9657C34.7654 20.5888 34.2348 21.0939 33.5803 21.0939H30.4198C29.7652 21.0939 29.2346 20.5888 29.2346 19.9657C29.2346 19.8339 29.2583 19.7073 29.302 19.5897H25.679Z" fill="#203D99"/>
</svg>
