<svg width="20" height="21" viewBox="0 0 20 21" fill="none" xmlns="http://www.w3.org/2000/svg">
<path d="M10.5417 8.83332C10.1396 7.69147 9.33681 6.73434 8.28236 6.13968C7.22792 5.54502 5.99349 5.35325 4.80834 5.59998C2.9 5.98332 1.35 7.50832 0.950003 9.41665C0.788739 10.1476 0.793465 10.9053 0.963834 11.6342C1.1342 12.363 1.46588 13.0444 1.93443 13.6281C2.40299 14.2118 2.9965 14.683 3.67125 15.0069C4.34601 15.3309 5.08484 15.4994 5.83334 15.5C6.86662 15.5 7.87446 15.1794 8.71779 14.5823C9.56112 13.9853 10.1984 13.1412 10.5417 12.1667H14.1667V13.8333C14.1667 14.75 14.9167 15.5 15.8333 15.5C16.75 15.5 17.5 14.75 17.5 13.8333V12.1667C18.4167 12.1667 19.1667 11.4167 19.1667 10.5C19.1667 9.58332 18.4167 8.83332 17.5 8.83332H10.5417ZM5.83334 12.1667C4.91667 12.1667 4.16667 11.4167 4.16667 10.5C4.16667 9.58332 4.91667 8.83332 5.83334 8.83332C6.75 8.83332 7.5 9.58332 7.5 10.5C7.5 11.4167 6.75 12.1667 5.83334 12.1667Z" fill="#637381"/>
</svg>
