<svg width="24" height="24" viewBox="0 0 24 24" fill="none" xmlns="http://www.w3.org/2000/svg">
<path fill-rule="evenodd" clip-rule="evenodd" d="M12 1C12.5523 1 13 1.44772 13 2V4C13 4.55228 12.5523 5 12 5C11.4477 5 11 4.55228 11 4V2C11 1.44772 11.4477 1 12 1ZM6.49999 2.47398C6.97828 2.19783 7.58987 2.3617 7.86602 2.83999L8.86602 4.57199C9.14217 5.05028 8.9783 5.66187 8.50001 5.93802C8.02172 6.21417 7.41013 6.0503 7.13398 5.57201L6.13398 3.84001C5.85783 3.36172 6.0217 2.75013 6.49999 2.47398ZM17.5 2.47398C17.9783 2.75013 18.1422 3.36172 17.866 3.84001L16.866 5.57201C16.5899 6.0503 15.9783 6.21417 15.5 5.93802C15.0217 5.66187 14.8578 5.05028 15.134 4.57199L16.134 2.83999C16.4101 2.3617 17.0217 2.19783 17.5 2.47398ZM2.47398 6.49999C2.75013 6.0217 3.36172 5.85783 3.84001 6.13398L5.57201 7.13398C6.0503 7.41013 6.21417 8.02172 5.93802 8.50001C5.66187 8.9783 5.05028 9.14217 4.57199 8.86602L2.83999 7.86602C2.3617 7.58987 2.19783 6.97828 2.47398 6.49999ZM21.526 6.49999C21.8022 6.97828 21.6383 7.58987 21.16 7.86602L19.428 8.86602C18.9497 9.14217 18.3381 8.9783 18.062 8.50001C17.7858 8.02172 17.9497 7.41013 18.428 7.13398L20.16 6.13398C20.6383 5.85783 21.2499 6.0217 21.526 6.49999ZM1 12C1 11.4477 1.44772 11 2 11H4C4.55228 11 5 11.4477 5 12C5 12.5523 4.55228 13 4 13H2C1.44772 13 1 12.5523 1 12ZM19 12C19 11.4477 19.4477 11 20 11H22C22.5523 11 23 11.4477 23 12C23 12.5523 22.5523 13 22 13H20C19.4477 13 19 12.5523 19 12ZM5.93802 15.5C6.21417 15.9783 6.0503 16.5899 5.57201 16.866L3.84001 17.866C3.36172 18.1422 2.75013 17.9783 2.47398 17.5C2.19783 17.0217 2.3617 16.4101 2.83999 16.134L4.57199 15.134C5.05028 14.8578 5.66187 15.0217 5.93802 15.5ZM18.062 15.5C18.3381 15.0217 18.9497 14.8578 19.428 15.134L21.16 16.134C21.6383 16.4101 21.8022 17.0217 21.526 17.5C21.2499 17.9783 20.6383 18.1422 20.16 17.866L18.428 16.866C17.9497 16.5899 17.7858 15.9783 18.062 15.5ZM8.50001 18.062C8.9783 18.3381 9.14217 18.9497 8.86602 19.428L7.86602 21.16C7.58987 21.6383 6.97828 21.8022 6.49999 21.526C6.0217 21.2499 5.85783 20.6383 6.13398 20.16L7.13398 18.428C7.41013 17.9497 8.02172 17.7858 8.50001 18.062ZM15.5 18.062C15.9783 17.7858 16.5899 17.9497 16.866 18.428L17.866 20.16C18.1422 20.6383 17.9783 21.2499 17.5 21.526C17.0217 21.8022 16.4101 21.6383 16.134 21.16L15.134 19.428C14.8578 18.9497 15.0217 18.3381 15.5 18.062ZM12 19C12.5523 19 13 19.4477 13 20V22C13 22.5523 12.5523 23 12 23C11.4477 23 11 22.5523 11 22V20C11 19.4477 11.4477 19 12 19Z" fill="#1877F2"/>
</svg>
