<svg width="48" height="48" viewBox="0 0 48 48" fill="none" xmlns="http://www.w3.org/2000/svg">
<path d="M43.8 24C43.8 23.78 43.68 23.56 43.62 23.34C43.5274 22.9518 43.4071 22.5709 43.26 22.2C43.16 21.96 43.02 21.72 42.9 21.46C42.78 21.2 42.6 20.86 42.42 20.58C42.24 20.3 42 20.16 42 20C42 19.84 41.6 19.5 41.38 19.26C41.16 19.02 40.96 18.86 40.74 18.66L40 18L39.28 17.52C38.9974 17.347 38.7034 17.1933 38.4 17.06L37.62 16.7C37.2933 16.579 36.9593 16.4788 36.62 16.4C36.3512 16.3209 36.0772 16.2607 35.8 16.22L35.34 16C34.5239 13.6421 32.9931 11.5972 30.9607 10.1499C28.9282 8.70257 26.4951 7.9248 24 7.9248C21.5049 7.9248 19.0718 8.70257 17.0393 10.1499C15.0069 11.5972 13.4761 13.6421 12.66 16L12.3 16.1C12.0228 16.1407 11.7488 16.2009 11.48 16.28C11.1407 16.3588 10.8067 16.459 10.48 16.58L9.7 16.94C9.39665 17.0733 9.10264 17.227 8.82 17.4L8.1 18L7.36 18.62C7.14 18.82 6.92 19 6.72 19.22C6.52 19.44 6.3 19.72 6.1 19.96C5.9 20.2 5.74 20.42 5.58 20.68C5.42 20.94 5.26 21.26 5.1 21.56C4.94 21.86 4.84 22.06 4.74 22.3C4.59288 22.6709 4.47258 23.0518 4.38 23.44C4.38 23.66 4.24 23.88 4.2 24.1C4.07551 24.7259 4.00857 25.3619 4 26C4.00938 26.6106 4.06958 27.2193 4.18 27.82C4.18 28.02 4.28 28.2 4.32 28.4C4.41885 28.7929 4.53903 29.1801 4.68 29.56L4.92 30.14C5.09606 30.5256 5.29646 30.8997 5.52 31.26L5.8 31.7C5.82877 31.756 5.86223 31.8095 5.9 31.86L6 32C6.93147 33.2419 8.13931 34.25 9.52786 34.9442C10.9164 35.6385 12.4475 36 14 36H20V33.26C19.3923 33.6125 18.7025 33.7987 18 33.8C16.9165 33.7898 15.8811 33.3512 15.12 32.58C14.7546 32.2019 14.4673 31.7556 14.2745 31.2664C14.0817 30.7773 13.9873 30.2549 13.9966 29.7292C14.0059 29.2035 14.1187 28.6848 14.3286 28.2028C14.5386 27.7208 14.8415 27.2848 15.22 26.92L21.22 21.12C21.9665 20.4004 22.9632 19.9989 24 20C25.0592 20.0044 26.0733 20.4288 26.82 21.18L32.82 27.18C33.565 27.9294 33.9832 28.9432 33.9832 30C33.9832 31.0567 33.565 32.0705 32.82 32.82C32.0733 33.5711 31.0592 33.9955 30 34C29.2965 34.0066 28.6046 33.8198 28 33.46V36H34C35.5525 36 37.0836 35.6385 38.4721 34.9442C39.8607 34.25 41.0685 33.2419 42 32L42.1 31.9C42.1378 31.8495 42.1712 31.796 42.2 31.74L42.48 31.3C42.7035 30.9397 42.9039 30.5656 43.08 30.18L43.32 29.6C43.461 29.2201 43.5811 28.8329 43.68 28.44C43.68 28.24 43.78 28.06 43.82 27.86C43.9326 27.2462 43.9929 26.6239 44 26C43.9977 25.3284 43.9307 24.6587 43.8 24Z" fill="#E67817"/>
<path d="M25.42 22.58C25.0461 22.2135 24.5435 22.0082 24.02 22.0082C23.4965 22.0082 22.9939 22.2135 22.62 22.58L16.62 28.38C16.4078 28.5551 16.234 28.7721 16.1095 29.0174C15.9849 29.2628 15.9124 29.5312 15.8963 29.8059C15.8803 30.0805 15.9211 30.3556 16.0161 30.6138C16.1112 30.872 16.2586 31.1077 16.4489 31.3064C16.6393 31.505 16.8686 31.6623 17.1225 31.7683C17.3764 31.8742 17.6495 31.9267 17.9246 31.9223C18.1997 31.918 18.4709 31.8569 18.7214 31.7429C18.9718 31.629 19.196 31.4645 19.38 31.26L22 28.72V40C22 40.5304 22.2107 41.0391 22.5858 41.4142C22.9609 41.7892 23.4696 42 24 42C24.5304 42 25.0391 41.7892 25.4142 41.4142C25.7893 41.0391 26 40.5304 26 40V28.82L28.58 31.42C28.7659 31.6074 28.9871 31.7562 29.2308 31.8577C29.4746 31.9593 29.736 32.0116 30 32.0116C30.264 32.0116 30.5254 31.9593 30.7692 31.8577C31.0129 31.7562 31.2341 31.6074 31.42 31.42C31.6075 31.234 31.7562 31.0128 31.8578 30.7691C31.9593 30.5254 32.0116 30.264 32.0116 30C32.0116 29.7359 31.9593 29.4745 31.8578 29.2308C31.7562 28.9871 31.6075 28.7659 31.42 28.58L25.42 22.58Z" fill="#E67817"/>
</svg>
