<svg width="16" height="16" viewBox="0 0 16 16" fill="none" xmlns="http://www.w3.org/2000/svg">
<path d="M2 4.25066C2 3.92799 2.23 3.66599 2.514 3.66599H4.29067C4.64333 3.65533 4.95467 3.39999 5.07467 3.02266L5.09467 2.95599L5.17133 2.69533C5.218 2.53533 5.25867 2.39533 5.316 2.27066C5.54133 1.77799 5.95867 1.43599 6.44067 1.34866C6.56333 1.32666 6.69267 1.32666 6.84067 1.32666H9.15933C9.308 1.32666 9.43733 1.32666 9.55933 1.34866C10.0413 1.43599 10.4593 1.77799 10.684 2.27066C10.7413 2.39533 10.782 2.53466 10.8293 2.69533L10.9053 2.95599L10.9253 3.02266C11.0453 3.39999 11.4187 3.65599 11.772 3.66599H13.4853C13.77 3.66599 14 3.92799 14 4.25066C14 4.57333 13.77 4.83533 13.486 4.83533H2.51333C2.23 4.83533 2 4.57333 2 4.25066Z" fill="#8C8C8C"/>
<path fill-rule="evenodd" clip-rule="evenodd" d="M7.73067 14.66H8.26933C10.1247 14.66 11.052 14.66 11.656 14.0693C12.2587 13.4787 12.32 12.51 12.4433 10.5727L12.6213 7.78066C12.688 6.72933 12.7213 6.20333 12.4193 5.87066C12.1167 5.53733 11.606 5.53733 10.584 5.53733H5.416C4.394 5.53733 3.88267 5.53733 3.58067 5.87066C3.278 6.20399 3.31133 6.72933 3.37867 7.78066L3.55667 10.5727C3.68 12.51 3.74133 13.4793 4.34467 14.0693C4.948 14.66 5.87533 14.66 7.73067 14.66ZM6.83067 8.11933C6.804 7.82999 6.55867 7.61933 6.284 7.64799C6.00867 7.67666 5.80867 7.93466 5.836 8.22399L6.16933 11.7327C6.196 12.022 6.44133 12.2327 6.716 12.204C6.99133 12.1753 7.19133 11.9173 7.164 11.628L6.83067 8.11933ZM9.71667 7.64799C9.99133 7.67666 10.192 7.93466 10.164 8.22399L9.83067 11.7327C9.804 12.022 9.558 12.2327 9.284 12.204C9.00867 12.1753 8.80867 11.9173 8.836 11.628L9.16933 8.11933C9.196 7.82999 9.44267 7.61933 9.71667 7.64799Z" fill="#8C8C8C"/>
</svg>
