<svg width="64" height="64" viewBox="0 0 64 64" fill="none" xmlns="http://www.w3.org/2000/svg">
<rect width="64" height="64" rx="2" fill="#203D99" fill-opacity="0.08"/>
<path fill-rule="evenodd" clip-rule="evenodd" d="M21.4701 20.9525C20.9714 20.9525 20.4931 21.1531 20.1405 21.5104C19.7879 21.8676 19.5898 22.3521 19.5898 22.8572V41.1429C19.5898 41.6481 19.7879 42.1326 20.1405 42.4898C20.4931 42.847 20.9714 43.0477 21.4701 43.0477H42.5299C43.0286 43.0477 43.5069 42.847 43.8595 42.4898C44.2122 42.1326 44.4103 41.6481 44.4103 41.1429V22.8572C44.4103 22.3521 44.2122 21.8676 43.8595 21.5104C43.5069 21.1531 43.0286 20.9525 42.5299 20.9525H21.4701ZM18.545 19.8941C19.3208 19.1082 20.373 18.6667 21.4701 18.6667H42.5299C43.6271 18.6667 44.6793 19.1082 45.455 19.8941C46.2308 20.68 46.6667 21.7458 46.6667 22.8572V41.1429C46.6667 42.2543 46.2308 43.3202 45.455 44.1061C44.6793 44.8919 43.6271 45.3334 42.5299 45.3334H21.4701C20.373 45.3334 19.3208 44.8919 18.545 44.1061C17.7692 43.3202 17.3333 42.2543 17.3333 41.1429V22.8572C17.3333 21.7458 17.7692 20.68 18.545 19.8941Z" fill="#203D99"/>
<path fill-rule="evenodd" clip-rule="evenodd" d="M26.359 39.6191C26.359 38.9879 26.8641 38.4763 27.4872 38.4763H36.5128C37.1359 38.4763 37.641 38.9879 37.641 39.6191C37.641 40.2503 37.1359 40.762 36.5128 40.762H27.4872C26.8641 40.762 26.359 40.2503 26.359 39.6191Z" fill="#203D99"/>
</svg>
