<svg width="24" height="24" viewBox="0 0 24 24" fill="none" xmlns="http://www.w3.org/2000/svg">
<path opacity="0.32" d="M2.162 8.5C2 9.603 2 11.05 2 13C2 16.771 2 18.657 3.172 19.828C4.343 21 6.229 21 10 21H14C17.771 21 19.657 21 20.828 19.828C22 18.657 22 16.771 22 13C22 11.05 22 9.603 21.838 8.5C19.561 9.98 18.102 10.923 16.75 11.505V12C16.7511 12.0985 16.7327 12.1962 16.696 12.2876C16.6593 12.379 16.6049 12.4623 16.536 12.5327C16.3968 12.6748 16.2069 12.7559 16.008 12.758C15.8091 12.7601 15.6175 12.6831 15.4753 12.544C15.3332 12.4048 15.2521 12.2149 15.25 12.016C13.1197 12.5776 10.8803 12.5776 8.75 12.016C8.74788 12.2149 8.66683 12.4048 8.52467 12.544C8.38252 12.6831 8.19091 12.7601 7.992 12.758C7.79309 12.7559 7.60317 12.6748 7.46401 12.5327C7.32486 12.3905 7.24788 12.1989 7.25 12V11.504C5.898 10.924 4.44 9.98 2.162 8.5Z" fill="#1877F2"/>
<path fill-rule="evenodd" clip-rule="evenodd" d="M10.5811 2.25H10.5611C10.4471 2.25 10.3591 2.25 10.2751 2.255C9.75548 2.28659 9.25555 2.46498 8.83336 2.76946C8.41116 3.07393 8.08406 3.49198 7.89005 3.975C7.84743 4.0884 7.80742 4.20276 7.77005 4.318L7.76605 4.33C7.6629 4.60266 7.48851 4.84266 7.26105 5.025C7.03405 5.033 6.81705 5.042 6.60905 5.055C4.96505 5.151 3.92205 5.421 3.17105 6.172C2.92705 6.416 2.73305 6.692 2.58105 7.01C2.63951 7.03006 2.69527 7.05726 2.74705 7.091C4.84705 8.456 6.16705 9.311 7.26305 9.858C7.29773 9.67416 7.39986 9.50991 7.54941 9.39749C7.69896 9.28508 7.88512 9.23262 8.07136 9.2504C8.2576 9.26819 8.43046 9.35493 8.55603 9.49362C8.6816 9.63231 8.7508 9.81292 8.75005 10V10.458C10.8701 11.098 13.1301 11.098 15.2501 10.458V10C15.2506 9.81382 15.3204 9.63451 15.4458 9.49692C15.5713 9.35934 15.7434 9.27333 15.9287 9.25562C16.114 9.23791 16.2993 9.28977 16.4486 9.4011C16.5978 9.51244 16.7003 9.6753 16.7361 9.858C17.8331 9.31 19.1531 8.456 21.2531 7.091C21.3052 7.05723 21.3613 7.03002 21.4201 7.01C21.2719 6.69897 21.0717 6.41555 20.8281 6.172C20.0781 5.422 19.0351 5.152 17.3911 5.054C17.1941 5.043 16.9881 5.034 16.7731 5.026C16.5214 4.82098 16.3271 4.55434 16.2091 4.252L16.2051 4.243C16.1691 4.136 16.1411 4.052 16.1101 3.974C15.9159 3.49116 15.5887 3.07333 15.1665 2.76904C14.7444 2.46475 14.2445 2.2865 13.7251 2.255C13.6298 2.2505 13.5344 2.24884 13.4391 2.25H10.5811ZM14.8181 4.816L14.8131 4.805L14.8081 4.793L14.8031 4.781L14.8001 4.771L14.7981 4.766L14.7941 4.754L14.7901 4.742L14.7881 4.736L14.7851 4.728L14.7831 4.721L14.7811 4.715C14.7616 4.65415 14.7406 4.59379 14.7181 4.534C14.6299 4.31442 14.4812 4.12437 14.2894 3.98594C14.0975 3.84751 13.8702 3.76639 13.6341 3.752C13.5624 3.7495 13.4907 3.74883 13.4191 3.75H10.5811C10.4381 3.75 10.3981 3.75 10.3661 3.752C10.1299 3.76639 9.90264 3.84751 9.71075 3.98594C9.51886 4.12437 9.3702 4.31442 9.28205 4.534L9.27905 4.541L9.27105 4.562C9.24337 4.63809 9.21736 4.71477 9.19305 4.792L9.19205 4.798L9.18905 4.805L9.18705 4.813L9.18505 4.819L9.18105 4.831L9.17605 4.843L9.17505 4.848L9.17105 4.858L9.16605 4.87L9.16205 4.882L9.15705 4.892C9.14312 4.9283 9.12845 4.9653 9.11305 5.001L10.0001 5H14.8961C14.8677 4.93956 14.8423 4.87819 14.8181 4.816Z" fill="#1877F2"/>
</svg>
