<svg xmlns="http://www.w3.org/2000/svg" width="16" height="16" viewBox="0 0 16 16" fill="none">
  <path fill-rule="evenodd" clip-rule="evenodd" d="M10.7502 8.00001C10.7502 7.72388 10.5263 7.50001 10.2502 7.50001H2.93512L4.24222 6.37964C4.45189 6.19993 4.47617 5.88428 4.29646 5.67462C4.11675 5.46495 3.8011 5.44067 3.59144 5.62038L1.2581 7.62041C1.14728 7.71534 1.0835 7.85408 1.0835 8.00001C1.0835 8.14594 1.14728 8.28468 1.2581 8.37961L3.59144 10.3796C3.8011 10.5593 4.11675 10.5351 4.29646 10.3254C4.47617 10.1157 4.45189 9.80008 4.24222 9.62041L2.93512 8.50001H10.2502C10.5263 8.50001 10.7502 8.27614 10.7502 8.00001Z" fill="#262626"/>
  <path d="M6.25 5.33337C6.25 5.8015 6.25 6.03557 6.36234 6.20371C6.41099 6.27651 6.4735 6.33903 6.54631 6.38767C6.71447 6.50001 6.94853 6.50001 7.41667 6.50001H10.25C11.0784 6.50001 11.75 7.17157 11.75 8.00004C11.75 8.82844 11.0784 9.50004 10.25 9.50004H7.41667C6.94853 9.50004 6.7144 9.50004 6.54627 9.61237C6.47349 9.66104 6.411 9.72351 6.36237 9.79631C6.25 9.96444 6.25 10.1985 6.25 10.6667C6.25 12.5523 6.25 13.4951 6.8358 14.0809C7.4216 14.6667 8.36427 14.6667 10.2499 14.6667H10.9165C12.8021 14.6667 13.7449 14.6667 14.3307 14.0809C14.9165 13.4951 14.9165 12.5523 14.9165 10.6667V5.33337C14.9165 3.44776 14.9165 2.50495 14.3307 1.91916C13.7449 1.33337 12.8021 1.33337 10.9165 1.33337H10.2499C8.36427 1.33337 7.4216 1.33337 6.8358 1.91916C6.25 2.50495 6.25 3.44775 6.25 5.33337Z" fill="#262626"/>
</svg>