<svg width="20" height="20" viewBox="0 0 20 20" fill="none" xmlns="http://www.w3.org/2000/svg">
<g id="icons/solid/ic-mingcute:Text">
<path id="primary-shape" d="M3.125 3.4375C3.125 3.18886 3.22377 2.9504 3.39959 2.77459C3.5754 2.59877 3.81386 2.5 4.0625 2.5H15.3125C15.5611 2.5 15.7996 2.59877 15.9754 2.77459C16.1512 2.9504 16.25 3.18886 16.25 3.4375V5.3125C16.25 5.56114 16.1512 5.7996 15.9754 5.97541C15.7996 6.15123 15.5611 6.25 15.3125 6.25C15.0639 6.25 14.8254 6.15123 14.6496 5.97541C14.4738 5.7996 14.375 5.56114 14.375 5.3125V4.375H10.625V15.625H12.1875C12.4361 15.625 12.6746 15.7238 12.8504 15.8996C13.0262 16.0754 13.125 16.3139 13.125 16.5625C13.125 16.8111 13.0262 17.0496 12.8504 17.2254C12.6746 17.4012 12.4361 17.5 12.1875 17.5H7.1875C6.93886 17.5 6.7004 17.4012 6.52459 17.2254C6.34877 17.0496 6.25 16.8111 6.25 16.5625C6.25 16.3139 6.34877 16.0754 6.52459 15.8996C6.7004 15.7238 6.93886 15.625 7.1875 15.625H8.75V4.375H5V5.3125C5 5.56114 4.90123 5.7996 4.72541 5.97541C4.5496 6.15123 4.31114 6.25 4.0625 6.25C3.81386 6.25 3.5754 6.15123 3.39959 5.97541C3.22377 5.7996 3.125 5.56114 3.125 5.3125V3.4375Z" fill="#262626"/>
</g>
</svg>
