<svg width="24" height="24" viewBox="0 0 24 24" fill="none" xmlns="http://www.w3.org/2000/svg">
<path d="M21 13V20.434C21 20.6354 20.9594 20.8348 20.8807 21.0202C20.8019 21.2057 20.6867 21.3733 20.5417 21.5132C20.3968 21.6531 20.2252 21.7624 20.0371 21.8345C19.849 21.9066 19.6483 21.9401 19.447 21.933L19.314 21.922L12 21.008V13H21ZM10 13V20.758L4.752 20.102C4.26821 20.0415 3.82316 19.8065 3.50052 19.4409C3.17789 19.0754 2.99989 18.6046 3 18.117V13H10ZM19.314 2.07801C19.5139 2.05304 19.7167 2.06858 19.9105 2.12371C20.1042 2.17883 20.2849 2.27242 20.4416 2.39887C20.5984 2.52533 20.7281 2.68207 20.823 2.85974C20.9179 3.03741 20.9761 3.23238 20.994 3.43301L21 3.56601V11H12V2.99201L19.314 2.07801ZM10 3.24201V11H3V5.88301C2.99989 5.39545 3.17789 4.92464 3.50052 4.5591C3.82316 4.19356 4.26821 3.95846 4.752 3.89801L10 3.24201Z" fill="#1877F2"/>
</svg>
