<svg width="24" height="24" viewBox="0 0 24 24" fill="none" xmlns="http://www.w3.org/2000/svg">
<path d="M19 3C19.5304 3 20.0391 3.21071 20.4142 3.58579C20.7893 3.96086 21 4.46957 21 5V19C21 19.5304 20.7893 20.0391 20.4142 20.4142C20.0391 20.7893 19.5304 21 19 21H5C4.46957 21 3.96086 20.7893 3.58579 20.4142C3.21071 20.0391 3 19.5304 3 19V5C3 4.46957 3.21071 3.96086 3.58579 3.58579C3.96086 3.21071 4.46957 3 5 3H19ZM19 9H5V19H19V9ZM8.5 15C8.76522 15 9.01957 15.1054 9.20711 15.2929C9.39464 15.4804 9.5 15.7348 9.5 16C9.5 16.2652 9.39464 16.5196 9.20711 16.7071C9.01957 16.8946 8.76522 17 8.5 17H7.5C7.23478 17 6.98043 16.8946 6.79289 16.7071C6.60536 16.5196 6.5 16.2652 6.5 16C6.5 15.7348 6.60536 15.4804 6.79289 15.2929C6.98043 15.1054 7.23478 15 7.5 15H8.5ZM12.5 15C12.7549 15.0003 13 15.0979 13.1854 15.2728C13.3707 15.4478 13.4822 15.687 13.4972 15.9414C13.5121 16.1958 13.4293 16.4464 13.2657 16.6418C13.1021 16.8373 12.8701 16.9629 12.617 16.993L12.5 17H11.5C11.2451 16.9997 11 16.9021 10.8146 16.7272C10.6293 16.5522 10.5178 16.313 10.5028 16.0586C10.4879 15.8042 10.5707 15.5536 10.7343 15.3582C10.8979 15.1627 11.1299 15.0371 11.383 15.007L11.5 15H12.5ZM8.5 11C8.75488 11.0003 9.00003 11.0979 9.18537 11.2728C9.3707 11.4478 9.48224 11.687 9.49717 11.9414C9.51211 12.1958 9.42933 12.4464 9.26574 12.6418C9.10215 12.8373 8.8701 12.9629 8.617 12.993L8.5 13H7.5C7.24512 12.9997 6.99997 12.9021 6.81463 12.7272C6.6293 12.5522 6.51777 12.313 6.50283 12.0586C6.48789 11.8042 6.57067 11.5536 6.73426 11.3582C6.89786 11.1627 7.1299 11.0371 7.383 11.007L7.5 11H8.5ZM12.5 11C12.7652 11 13.0196 11.1054 13.2071 11.2929C13.3946 11.4804 13.5 11.7348 13.5 12C13.5 12.2652 13.3946 12.5196 13.2071 12.7071C13.0196 12.8946 12.7652 13 12.5 13H11.5C11.2348 13 10.9804 12.8946 10.7929 12.7071C10.6054 12.5196 10.5 12.2652 10.5 12C10.5 11.7348 10.6054 11.4804 10.7929 11.2929C10.9804 11.1054 11.2348 11 11.5 11H12.5ZM16.5 11C16.7549 11.0003 17 11.0979 17.1854 11.2728C17.3707 11.4478 17.4822 11.687 17.4972 11.9414C17.5121 12.1958 17.4293 12.4464 17.2657 12.6418C17.1021 12.8373 16.8701 12.9629 16.617 12.993L16.5 13H15.5C15.2451 12.9997 15 12.9021 14.8146 12.7272C14.6293 12.5522 14.5178 12.313 14.5028 12.0586C14.4879 11.8042 14.5707 11.5536 14.7343 11.3582C14.8979 11.1627 15.1299 11.0371 15.383 11.007L15.5 11H16.5ZM19 5H5V7H19V5Z" fill="#1877F2"/>
</svg>
