<svg width="24" height="24" viewBox="0 0 24 24" fill="none" xmlns="http://www.w3.org/2000/svg">
<path d="M10.9999 12C11.2448 12 11.4812 12.09 11.6643 12.2527C11.8473 12.4155 11.9642 12.6397 11.9929 12.883L11.9999 13V18C11.9996 18.2549 11.902 18.5 11.727 18.6854C11.5521 18.8707 11.3129 18.9822 11.0585 18.9972C10.804 19.0121 10.5535 18.9293 10.3581 18.7657C10.1626 18.6021 10.037 18.3701 10.0069 18.117L9.99988 18V15.414L4.70688 20.707C4.52693 20.8863 4.28545 20.9905 4.0315 20.9982C3.77755 21.006 3.53017 20.9168 3.33961 20.7487C3.14904 20.5807 3.02958 20.3464 3.00549 20.0935C2.98139 19.8406 3.05447 19.588 3.20988 19.387L3.29288 19.293L8.58589 14H5.99988C5.745 13.9997 5.49985 13.9021 5.31452 13.7272C5.12918 13.5522 5.01765 13.313 5.00271 13.0586C4.98778 12.8042 5.07056 12.5536 5.23415 12.3582C5.39774 12.1627 5.62979 12.0371 5.88288 12.007L5.99988 12H10.9999ZM19.2929 3.293C19.4728 3.11365 19.7143 3.00953 19.9683 3.00177C20.2222 2.99402 20.4696 3.08321 20.6602 3.25125C20.8507 3.41928 20.9702 3.65355 20.9943 3.90647C21.0184 4.1594 20.9453 4.41201 20.7899 4.613L20.7069 4.707L15.4139 10H17.9999C18.2548 10.0003 18.4999 10.0979 18.6853 10.2728C18.8706 10.4478 18.9821 10.687 18.9971 10.9414C19.012 11.1958 18.9292 11.4464 18.7656 11.6418C18.602 11.8373 18.37 11.9629 18.1169 11.993L17.9999 12H12.9999C12.755 12 12.5185 11.91 12.3355 11.7473C12.1525 11.5845 12.0355 11.3602 12.0069 11.117L11.9999 11V6C12.0002 5.74512 12.0978 5.49997 12.2727 5.31463C12.4477 5.12929 12.6868 5.01776 12.9413 5.00283C13.1957 4.98789 13.4463 5.07067 13.6417 5.23426C13.8372 5.39785 13.9628 5.6299 13.9929 5.883L13.9999 6V8.586L19.2929 3.293Z" fill="#1877F2"/>
</svg>
