<svg width="24" height="24" viewBox="0 0 24 24" fill="none" xmlns="http://www.w3.org/2000/svg">
<path d="M19 3C19.5046 2.99984 19.9906 3.19041 20.3605 3.5335C20.7305 3.87659 20.9572 4.34684 20.995 4.85L21 5V19C21.0002 19.5046 20.8096 19.9906 20.4665 20.3605C20.1234 20.7305 19.6532 20.9572 19.15 20.995L19 21H5C4.49542 21.0002 4.00943 20.8096 3.63945 20.4665C3.26947 20.1234 3.04284 19.6532 3.005 19.15L3 19V5C2.99984 4.49542 3.19041 4.00943 3.5335 3.63945C3.87659 3.26947 4.34684 3.04284 4.85 3.005L5 3H19ZM19 5H5V19H19V5ZM8 7C8.24493 7.00003 8.48134 7.08996 8.66437 7.25272C8.84741 7.41547 8.96434 7.63975 8.993 7.883L9 8V16C8.99972 16.2549 8.90212 16.5 8.72715 16.6854C8.55218 16.8707 8.31305 16.9822 8.05861 16.9972C7.80416 17.0121 7.55362 16.9293 7.35817 16.7657C7.16271 16.6021 7.0371 16.3701 7.007 16.117L7 16V8C7 7.73478 7.10536 7.48043 7.29289 7.29289C7.48043 7.10536 7.73478 7 8 7ZM12 7C12.2652 7 12.5196 7.10536 12.7071 7.29289C12.8946 7.48043 13 7.73478 13 8V16C13 16.2652 12.8946 16.5196 12.7071 16.7071C12.5196 16.8946 12.2652 17 12 17C11.7348 17 11.4804 16.8946 11.2929 16.7071C11.1054 16.5196 11 16.2652 11 16V8C11 7.73478 11.1054 7.48043 11.2929 7.29289C11.4804 7.10536 11.7348 7 12 7ZM16 7C16.2449 7.00003 16.4813 7.08996 16.6644 7.25272C16.8474 7.41547 16.9643 7.63975 16.993 7.883L17 8V16C16.9997 16.2549 16.9021 16.5 16.7272 16.6854C16.5522 16.8707 16.313 16.9822 16.0586 16.9972C15.8042 17.0121 15.5536 16.9293 15.3582 16.7657C15.1627 16.6021 15.0371 16.3701 15.007 16.117L15 16V8C15 7.73478 15.1054 7.48043 15.2929 7.29289C15.4804 7.10536 15.7348 7 16 7Z" fill="#1877F2"/>
</svg>
