<svg width="24" height="24" viewBox="0 0 24 24" fill="none" xmlns="http://www.w3.org/2000/svg">
<path fill-rule="evenodd" clip-rule="evenodd" d="M11.9943 13.4085L17.6486 19.0631C17.8371 19.2452 18.0896 19.346 18.3516 19.3437C18.6137 19.3414 18.8644 19.2363 19.0497 19.051C19.235 18.8656 19.3402 18.6149 19.3424 18.3528C19.3447 18.0908 19.244 17.8383 19.0619 17.6497L13.4076 11.9951L19.0619 6.34039C19.244 6.15186 19.3447 5.89936 19.3424 5.63728C19.3402 5.37519 19.235 5.12448 19.0497 4.93915C18.8644 4.75381 18.6137 4.64869 18.3516 4.64641C18.0896 4.64413 17.8371 4.74489 17.6486 4.92697L11.9943 10.5816L6.34004 4.92697C6.15068 4.74939 5.89967 4.65245 5.64011 4.65666C5.38055 4.66088 5.13282 4.76592 4.94932 4.94955C4.76583 5.13319 4.66097 5.38102 4.65694 5.6406C4.65291 5.90018 4.75002 6.15114 4.92772 6.34039L10.581 11.9951L4.92672 17.6497C4.83126 17.7419 4.75511 17.8522 4.70273 17.9742C4.65035 18.0961 4.62277 18.2273 4.62162 18.36C4.62047 18.4928 4.64576 18.6244 4.69601 18.7472C4.74627 18.8701 4.82049 18.9817 4.91433 19.0755C5.00818 19.1694 5.11978 19.2436 5.24262 19.2939C5.36545 19.3441 5.49707 19.3694 5.62978 19.3683C5.7625 19.3671 5.89366 19.3395 6.0156 19.2872C6.13755 19.2348 6.24784 19.1586 6.34004 19.0631L11.9943 13.4085Z" fill="#1877F2"/>
</svg>
