<svg width="24" height="24" viewBox="0 0 24 24" fill="none" xmlns="http://www.w3.org/2000/svg">
<path d="M9.793 12.793C9.97296 12.6137 10.2144 12.5095 10.4684 12.5018C10.7223 12.494 10.9697 12.5832 11.1603 12.7512C11.3508 12.9193 11.4703 13.1536 11.4944 13.4065C11.5185 13.6594 11.4454 13.912 11.29 14.113L11.207 14.207L6.414 19H9C9.25488 19.0003 9.50003 19.0979 9.68537 19.2728C9.8707 19.4478 9.98224 19.687 9.99717 19.9414C10.0121 20.1958 9.92933 20.4464 9.76574 20.6418C9.60215 20.8373 9.3701 20.9629 9.117 20.993L9 21H4C3.75507 21 3.51866 20.91 3.33563 20.7473C3.15259 20.5845 3.03566 20.3603 3.007 20.117L3 20V15C3.00028 14.7451 3.09788 14.5 3.27285 14.3146C3.44782 14.1293 3.68695 14.0178 3.94139 14.0028C4.19584 13.9879 4.44638 14.0707 4.64183 14.2343C4.83729 14.3979 4.9629 14.6299 4.993 14.883L5 15V17.586L9.793 12.793ZM20 3C20.2449 3.00003 20.4813 3.08996 20.6644 3.25272C20.8474 3.41547 20.9643 3.63975 20.993 3.883L21 4V9C20.9997 9.25488 20.9021 9.50003 20.7272 9.68537C20.5522 9.8707 20.313 9.98224 20.0586 9.99717C19.8042 10.0121 19.5536 9.92933 19.3582 9.76574C19.1627 9.60215 19.0371 9.3701 19.007 9.117L19 9V6.414L14.207 11.207C14.027 11.3863 13.7856 11.4905 13.5316 11.4982C13.2777 11.506 13.0303 11.4168 12.8397 11.2488C12.6492 11.0807 12.5297 10.8464 12.5056 10.5935C12.4815 10.3406 12.5546 10.088 12.71 9.887L12.793 9.793L17.586 5H15C14.7451 4.99972 14.5 4.90212 14.3146 4.72715C14.1293 4.55218 14.0178 4.31305 14.0028 4.05861C13.9879 3.80416 14.0707 3.55362 14.2343 3.35817C14.3979 3.16271 14.6299 3.0371 14.883 3.007L15 3H20Z" fill="#1877F2"/>
</svg>
