<svg width="24" height="24" viewBox="0 0 24 24" fill="none" xmlns="http://www.w3.org/2000/svg">
<path fill-rule="evenodd" clip-rule="evenodd" d="M13.2321 1.36C13.8641 0.601999 15.0951 1.12 14.9951 2.102L14.2891 9H20.0001C20.1901 9.00007 20.3762 9.05428 20.5365 9.15627C20.6968 9.25826 20.8248 9.40382 20.9054 9.5759C20.9859 9.74798 21.0158 9.93946 20.9915 10.1279C20.9672 10.3164 20.8897 10.494 20.7681 10.64L10.7681 22.64C10.1361 23.398 8.90511 22.88 9.00511 21.898L9.71111 15H4.00011C3.8101 14.9999 3.62404 14.9457 3.46372 14.8437C3.3034 14.7417 3.17545 14.5962 3.09487 14.4241C3.01429 14.252 2.9844 14.0605 3.0087 13.8721C3.03301 13.6836 3.11051 13.506 3.23211 13.36L13.2321 1.36Z" fill="#1877F2"/>
</svg>
