<svg width="24" height="24" viewBox="0 0 24 24" fill="none" xmlns="http://www.w3.org/2000/svg">
<path d="M8.39983 6.2C8.50489 6.12121 8.62444 6.06388 8.75165 6.03129C8.87887 5.99869 9.01125 5.99148 9.14125 6.01005C9.27126 6.02862 9.39633 6.07262 9.50933 6.13953C9.62233 6.20643 9.72104 6.29494 9.79983 6.4C9.87863 6.50506 9.93596 6.62461 9.96855 6.75182C10.0011 6.87903 10.0084 7.01142 9.98978 7.14142C9.97121 7.27142 9.92722 7.39649 9.86031 7.50949C9.7934 7.62249 9.70489 7.72121 9.59983 7.8C8.03583 8.973 7.13983 10.114 6.62683 11.11C7.3312 10.9287 8.07456 10.9713 8.75359 11.232C9.43262 11.4926 10.0136 11.9583 10.4157 12.5644C10.8179 13.1704 11.0212 13.8867 10.9975 14.6136C10.9738 15.3406 10.7242 16.0421 10.2834 16.6206C9.84258 17.1992 9.2325 17.626 8.53793 17.8419C7.84336 18.0577 7.0988 18.0518 6.40775 17.8249C5.71669 17.5981 5.11348 17.1616 4.68194 16.5761C4.2504 15.9906 4.01199 15.2852 3.99983 14.558C3.8717 13.3299 4.0461 12.0892 4.50783 10.944C5.10483 9.438 6.27183 7.796 8.39983 6.2ZM17.3998 6.2C17.5049 6.12121 17.6244 6.06388 17.7517 6.03129C17.8789 5.99869 18.0113 5.99148 18.1413 6.01005C18.2713 6.02862 18.3963 6.07262 18.5093 6.13953C18.6223 6.20643 18.721 6.29494 18.7998 6.4C18.8786 6.50506 18.936 6.62461 18.9685 6.75182C19.0011 6.87903 19.0084 7.01142 18.9898 7.14142C18.9712 7.27142 18.9272 7.39649 18.8603 7.50949C18.7934 7.62249 18.7049 7.72121 18.5998 7.8C17.0358 8.973 16.1398 10.114 15.6268 11.11C16.3312 10.9287 17.0746 10.9713 17.7536 11.232C18.4326 11.4926 19.0136 11.9583 19.4157 12.5644C19.8179 13.1704 20.0212 13.8867 19.9975 14.6136C19.9738 15.3406 19.7242 16.0421 19.2834 16.6206C18.8426 17.1992 18.2325 17.626 17.5379 17.8419C16.8434 18.0577 16.0988 18.0518 15.4077 17.8249C14.7167 17.5981 14.1135 17.1616 13.6819 16.5761C13.2504 15.9906 13.012 15.2852 12.9998 14.558C12.8717 13.3299 13.0461 12.0892 13.5078 10.944C14.1058 9.438 15.2718 7.796 17.3998 6.2Z" fill="#1877F2"/>
</svg>
