<svg width="24" height="24" viewBox="0 0 24 24" fill="none" xmlns="http://www.w3.org/2000/svg">
<path fill-rule="evenodd" clip-rule="evenodd" d="M19 3C19.5304 3 20.0391 3.21071 20.4142 3.58579C20.7893 3.96086 21 4.46957 21 5V19C21 19.5304 20.7893 20.0391 20.4142 20.4142C20.0391 20.7893 19.5304 21 19 21H5C4.46957 21 3.96086 20.7893 3.58579 20.4142C3.21071 20.0391 3 19.5304 3 19V5C3 4.46957 3.21071 3.96086 3.58579 3.58579C3.96086 3.21071 4.46957 3 5 3H19ZM19 5H5V19H19V5ZM16 11C16.2652 11 16.5196 11.1054 16.7071 11.2929C16.8946 11.4804 17 11.7348 17 12V16C17 16.2652 16.8946 16.5196 16.7071 16.7071C16.5196 16.8946 16.2652 17 16 17H8C7.73478 17 7.48043 16.8946 7.29289 16.7071C7.10536 16.5196 7 16.2652 7 16V12C7 11.7348 7.10536 11.4804 7.29289 11.2929C7.48043 11.1054 7.73478 11 8 11H16ZM15 13H9V15H15V13ZM16 7C16.2549 7.00028 16.5 7.09788 16.6854 7.27285C16.8707 7.44782 16.9822 7.68695 16.9972 7.94139C17.0121 8.19584 16.9293 8.44638 16.7657 8.64183C16.6021 8.83729 16.3701 8.9629 16.117 8.993L16 9H8C7.74512 8.99972 7.49997 8.90212 7.31463 8.72715C7.1293 8.55218 7.01777 8.31305 7.00283 8.05861C6.98789 7.80416 7.07067 7.55362 7.23426 7.35817C7.39786 7.16271 7.6299 7.0371 7.883 7.007L8 7H16Z" fill="#1877F2"/>
</svg>
