<svg width="24" height="24" viewBox="0 0 24 24" fill="none" xmlns="http://www.w3.org/2000/svg">
<path d="M4.97478 15.925L7.49978 12L4.97478 8.075C4.54145 7.40833 4.51645 6.729 4.89978 6.037C5.28311 5.345 5.87478 4.99933 6.67478 5H14.9998C15.3331 5 15.6458 5.075 15.9378 5.225C16.2298 5.375 16.4671 5.58333 16.6498 5.85L20.1748 10.85C20.4248 11.2 20.5498 11.5833 20.5498 12C20.5498 12.4167 20.4248 12.8 20.1748 13.15L16.6498 18.15C16.4664 18.4167 16.2291 18.625 15.9378 18.775C15.6464 18.925 15.3338 19 14.9998 19H6.67478C5.87478 19 5.28311 18.654 4.89978 17.962C4.51645 17.27 4.54145 16.591 4.97478 15.925Z" fill="#1877F2"/>
</svg>
