<svg width="24" height="24" viewBox="0 0 24 24" fill="none" xmlns="http://www.w3.org/2000/svg">
<path d="M12 2C14.3869 2 16.6761 2.94821 18.364 4.63604C20.0518 6.32387 21 8.61305 21 11C21 14.074 19.324 16.59 17.558 18.395C16.6755 19.2869 15.7128 20.0956 14.682 20.811L14.256 21.101L14.056 21.234L13.679 21.474L13.343 21.679L12.927 21.921C12.6445 22.0818 12.325 22.1663 12 22.1663C11.675 22.1663 11.3555 22.0818 11.073 21.921L10.657 21.679L10.137 21.359L9.945 21.234L9.535 20.961C8.42298 20.2083 7.38707 19.3489 6.442 18.395C4.676 16.588 3 14.074 3 11C3 8.61305 3.94821 6.32387 5.63604 4.63604C7.32387 2.94821 9.61305 2 12 2ZM12 8C11.606 8 11.2159 8.0776 10.8519 8.22836C10.488 8.37913 10.1573 8.6001 9.87868 8.87868C9.6001 9.15726 9.37913 9.48797 9.22836 9.85195C9.0776 10.2159 9 10.606 9 11C9 11.394 9.0776 11.7841 9.22836 12.1481C9.37913 12.512 9.6001 12.8427 9.87868 13.1213C10.1573 13.3999 10.488 13.6209 10.8519 13.7716C11.2159 13.9224 11.606 14 12 14C12.7956 14 13.5587 13.6839 14.1213 13.1213C14.6839 12.5587 15 11.7956 15 11C15 10.2044 14.6839 9.44129 14.1213 8.87868C13.5587 8.31607 12.7956 8 12 8Z" fill="#1877F2"/>
</svg>
