<svg width="24" height="24" viewBox="0 0 24 24" fill="none" xmlns="http://www.w3.org/2000/svg">
<path d="M5.5 16.5C6.03043 16.5 6.53914 16.7107 6.91421 17.0858C7.28929 17.4609 7.5 17.9696 7.5 18.5C7.5 19.0304 7.28929 19.5391 6.91421 19.9142C6.53914 20.2893 6.03043 20.5 5.5 20.5C4.96957 20.5 4.46086 20.2893 4.08579 19.9142C3.71071 19.5391 3.5 19.0304 3.5 18.5C3.5 17.9696 3.71071 17.4609 4.08579 17.0858C4.46086 16.7107 4.96957 16.5 5.5 16.5ZM12 16.5C12.5304 16.5 13.0391 16.7107 13.4142 17.0858C13.7893 17.4609 14 17.9696 14 18.5C14 19.0304 13.7893 19.5391 13.4142 19.9142C13.0391 20.2893 12.5304 20.5 12 20.5C11.4696 20.5 10.9609 20.2893 10.5858 19.9142C10.2107 19.5391 10 19.0304 10 18.5C10 17.9696 10.2107 17.4609 10.5858 17.0858C10.9609 16.7107 11.4696 16.5 12 16.5ZM18.5 16.5C19.0304 16.5 19.5391 16.7107 19.9142 17.0858C20.2893 17.4609 20.5 17.9696 20.5 18.5C20.5 19.0304 20.2893 19.5391 19.9142 19.9142C19.5391 20.2893 19.0304 20.5 18.5 20.5C17.9696 20.5 17.4609 20.2893 17.0858 19.9142C16.7107 19.5391 16.5 19.0304 16.5 18.5C16.5 17.9696 16.7107 17.4609 17.0858 17.0858C17.4609 16.7107 17.9696 16.5 18.5 16.5ZM5.5 10C6.03043 10 6.53914 10.2107 6.91421 10.5858C7.28929 10.9609 7.5 11.4696 7.5 12C7.5 12.5304 7.28929 13.0391 6.91421 13.4142C6.53914 13.7893 6.03043 14 5.5 14C4.96957 14 4.46086 13.7893 4.08579 13.4142C3.71071 13.0391 3.5 12.5304 3.5 12C3.5 11.4696 3.71071 10.9609 4.08579 10.5858C4.46086 10.2107 4.96957 10 5.5 10ZM12 10C12.5304 10 13.0391 10.2107 13.4142 10.5858C13.7893 10.9609 14 11.4696 14 12C14 12.5304 13.7893 13.0391 13.4142 13.4142C13.0391 13.7893 12.5304 14 12 14C11.4696 14 10.9609 13.7893 10.5858 13.4142C10.2107 13.0391 10 12.5304 10 12C10 11.4696 10.2107 10.9609 10.5858 10.5858C10.9609 10.2107 11.4696 10 12 10ZM18.5 10C19.0304 10 19.5391 10.2107 19.9142 10.5858C20.2893 10.9609 20.5 11.4696 20.5 12C20.5 12.5304 20.2893 13.0391 19.9142 13.4142C19.5391 13.7893 19.0304 14 18.5 14C17.9696 14 17.4609 13.7893 17.0858 13.4142C16.7107 13.0391 16.5 12.5304 16.5 12C16.5 11.4696 16.7107 10.9609 17.0858 10.5858C17.4609 10.2107 17.9696 10 18.5 10ZM5.5 3.5C6.03043 3.5 6.53914 3.71071 6.91421 4.08579C7.28929 4.46086 7.5 4.96957 7.5 5.5C7.5 6.03043 7.28929 6.53914 6.91421 6.91421C6.53914 7.28929 6.03043 7.5 5.5 7.5C4.96957 7.5 4.46086 7.28929 4.08579 6.91421C3.71071 6.53914 3.5 6.03043 3.5 5.5C3.5 4.96957 3.71071 4.46086 4.08579 4.08579C4.46086 3.71071 4.96957 3.5 5.5 3.5ZM12 3.5C12.5304 3.5 13.0391 3.71071 13.4142 4.08579C13.7893 4.46086 14 4.96957 14 5.5C14 6.03043 13.7893 6.53914 13.4142 6.91421C13.0391 7.28929 12.5304 7.5 12 7.5C11.4696 7.5 10.9609 7.28929 10.5858 6.91421C10.2107 6.53914 10 6.03043 10 5.5C10 4.96957 10.2107 4.46086 10.5858 4.08579C10.9609 3.71071 11.4696 3.5 12 3.5ZM18.5 3.5C19.0304 3.5 19.5391 3.71071 19.9142 4.08579C20.2893 4.46086 20.5 4.96957 20.5 5.5C20.5 6.03043 20.2893 6.53914 19.9142 6.91421C19.5391 7.28929 19.0304 7.5 18.5 7.5C17.9696 7.5 17.4609 7.28929 17.0858 6.91421C16.7107 6.53914 16.5 6.03043 16.5 5.5C16.5 4.96957 16.7107 4.46086 17.0858 4.08579C17.4609 3.71071 17.9696 3.5 18.5 3.5Z" fill="#1877F2"/>
</svg>
