<svg width="24" height="24" viewBox="0 0 24 24" fill="none" xmlns="http://www.w3.org/2000/svg">
<path d="M8.75909 6.792C9.22576 6.792 9.64576 6.918 10.0191 7.17C10.3924 7.41733 10.6864 7.758 10.9011 8.192C11.1158 8.626 11.2231 9.12533 11.2231 9.69C11.2231 10.25 11.1158 10.7447 10.9011 11.174C10.6911 11.6033 10.3994 11.9417 10.0261 12.189C9.65276 12.4317 9.23042 12.553 8.75909 12.553C8.28309 12.553 7.85609 12.4317 7.47809 12.189C7.10476 11.9417 6.80842 11.6033 6.58909 11.174C6.37442 10.7447 6.26709 10.25 6.26709 9.69C6.26709 9.12533 6.37676 8.626 6.59609 8.192C6.81542 7.758 7.11176 7.41733 7.48509 7.17C7.86309 6.918 8.28776 6.792 8.75909 6.792ZM8.74509 11.65C9.14642 11.65 9.44742 11.475 9.64809 11.125C9.84876 10.7703 9.94909 10.292 9.94909 9.69C9.94909 9.074 9.84642 8.58633 9.64109 8.227C9.44042 7.863 9.14176 7.681 8.74509 7.681C8.48376 7.681 8.26209 7.765 8.08009 7.933C7.90276 8.09633 7.76742 8.32967 7.67409 8.633C7.58076 8.93167 7.53409 9.284 7.53409 9.69C7.53409 10.2873 7.63676 10.7633 7.84209 11.118C8.04742 11.4727 8.34842 11.65 8.74509 11.65ZM15.2621 11.433C15.7334 11.433 16.1558 11.559 16.5291 11.811C16.9024 12.063 17.1964 12.4083 17.4111 12.847C17.6258 13.281 17.7331 13.7757 17.7331 14.331C17.7331 14.8957 17.6258 15.395 17.4111 15.829C17.2011 16.2583 16.9094 16.5967 16.5361 16.844C16.1628 17.0867 15.7381 17.208 15.2621 17.208C14.7861 17.208 14.3591 17.0867 13.9811 16.844C13.6031 16.5967 13.3068 16.2583 13.0921 15.829C12.8774 15.395 12.7701 14.8957 12.7701 14.331C12.7701 13.7757 12.8774 13.281 13.0921 12.847C13.3114 12.4083 13.6101 12.063 13.9881 11.811C14.3661 11.559 14.7908 11.433 15.2621 11.433ZM15.2481 16.298C15.5094 16.298 15.7288 16.2163 15.9061 16.053C16.0881 15.8897 16.2234 15.6633 16.3121 15.374C16.4054 15.08 16.4521 14.737 16.4521 14.345C16.4521 13.9437 16.4054 13.5937 16.3121 13.295C16.2188 12.9917 16.0811 12.756 15.8991 12.588C15.7218 12.42 15.5048 12.336 15.2481 12.336C14.9914 12.336 14.7744 12.4223 14.5971 12.595C14.4198 12.763 14.2821 12.9987 14.1841 13.302C14.0908 13.6007 14.0441 13.9483 14.0441 14.345C14.0441 14.737 14.0908 15.08 14.1841 15.374C14.2774 15.6633 14.4128 15.8897 14.5901 16.053C14.7674 16.2163 14.9868 16.298 15.2481 16.298ZM15.8431 6.834L9.03909 17.124L7.98209 17.11L14.8141 6.834H15.8431Z" fill="#1877F2"/>
</svg>
