<svg width="24" height="24" viewBox="0 0 24 24" fill="none" xmlns="http://www.w3.org/2000/svg">
<path opacity="0.32" d="M10.2858 3.91C10.2858 3.342 10.8238 2.75 11.6598 2.75C12.4958 2.75 13.0338 3.342 13.0338 3.91C13.0338 4.221 12.9218 4.491 12.7398 4.69C12.6163 4.82138 12.4896 4.94975 12.3598 5.075L12.2798 5.155C12.0956 5.33334 11.9191 5.51951 11.7508 5.713C11.4858 6.025 11.1978 6.436 11.0928 6.943C10.455 7.04826 9.84886 7.29496 9.31882 7.665L2.22382 12.657C1.29682 13.309 1.05782 14.359 1.39582 15.239C1.72782 16.105 2.58982 16.75 3.70182 16.75H6.00982C6.02582 16.113 6.07082 15.63 6.19382 15.25H3.70382C3.20082 15.25 2.90282 14.977 2.79682 14.702C2.69682 14.441 2.74282 14.126 3.08682 13.883L10.1828 8.893C10.6615 8.56204 11.2289 8.38325 11.8108 8.38C12.3985 8.36959 12.9756 8.53765 13.4658 8.862L20.8988 13.872C21.2548 14.113 21.3048 14.432 21.2068 14.695C21.1038 14.973 20.8068 15.25 20.2978 15.25H17.8078C17.9308 15.63 17.9758 16.113 17.9918 16.75H20.2978C21.4228 16.75 22.2878 16.093 22.6138 15.216C22.9438 14.326 22.6868 13.269 21.7368 12.629L14.3038 7.619C13.8161 7.29185 13.267 7.0673 12.6898 6.959C12.7398 6.878 12.8078 6.787 12.8948 6.685C13.0208 6.536 13.1688 6.387 13.3348 6.221L13.4098 6.149C13.5498 6.009 13.7048 5.857 13.8448 5.704C14.2878 5.224 14.5348 4.589 14.5348 3.909C14.5348 2.367 13.1708 1.25 11.6608 1.25C10.1508 1.25 8.78582 2.367 8.78582 3.91C8.78582 4.10891 8.86484 4.29968 9.00549 4.44033C9.14614 4.58098 9.33691 4.66 9.53582 4.66C9.73473 4.66 9.9255 4.58098 10.0661 4.44033C10.2068 4.29968 10.2858 4.10891 10.2858 3.91Z" fill="#1877F2"/>
<path d="M6 18C6 16.114 6 15.172 6.586 14.586C7.172 14 8.114 14 10 14H14C15.886 14 16.828 14 17.414 14.586C18 15.172 18 16.114 18 18C18 19.886 18 20.828 17.414 21.414C16.828 22 15.886 22 14 22H10C8.114 22 7.172 22 6.586 21.414C6 20.828 6 19.886 6 18Z" fill="#1877F2"/>
</svg>
