<svg width="24" height="24" viewBox="0 0 24 24" fill="none" xmlns="http://www.w3.org/2000/svg">
<path opacity="0.5" fill-rule="evenodd" clip-rule="evenodd" d="M14 22H10C6.229 22 4.343 22 3.172 20.828C2 19.657 2 17.771 2 14V10C2 6.229 2 4.343 3.172 3.172C4.343 2 6.239 2 10.03 2C10.636 2 11.121 2 11.53 2.017C11.517 2.097 11.51 2.178 11.51 2.261L11.5 5.095C11.5 6.192 11.5 7.162 11.605 7.943C11.719 8.79 11.98 9.637 12.672 10.329C13.362 11.019 14.21 11.281 15.057 11.395C15.838 11.5 16.808 11.5 17.905 11.5H21.957C22 12.034 22 12.69 22 13.563V14C22 17.771 22 19.657 20.828 20.828C19.657 22 17.771 22 14 22Z" fill="#1877F2"/>
<path d="M10.5602 15.498C10.6302 15.4253 10.6849 15.3391 10.7209 15.2447C10.7568 15.1503 10.7734 15.0497 10.7695 14.9487C10.7656 14.8478 10.7413 14.7487 10.6982 14.6573C10.6551 14.566 10.5939 14.4843 10.5184 14.4172C10.443 14.3501 10.3547 14.2989 10.2589 14.2667C10.1632 14.2345 10.0619 14.222 9.96123 14.2299C9.86053 14.2379 9.76247 14.266 9.67293 14.3128C9.58339 14.3595 9.50421 14.4239 9.44015 14.502L7.33315 16.872L6.56115 16.002C6.42907 15.8532 6.2433 15.763 6.0447 15.7512C5.8461 15.7394 5.65094 15.8069 5.50215 15.939C5.35336 16.0711 5.26314 16.2569 5.25133 16.4555C5.23951 16.6541 5.30707 16.8492 5.43915 16.998L6.77315 18.498C6.84351 18.577 6.92978 18.6402 7.02629 18.6835C7.1228 18.7267 7.22738 18.7491 7.33315 18.7491C7.43892 18.7491 7.5435 18.7267 7.64001 18.6835C7.73652 18.6402 7.82279 18.577 7.89315 18.498L10.5602 15.498ZM11.5102 2.26L11.5002 5.095C11.5002 6.192 11.5002 7.161 11.6052 7.943C11.7192 8.79 11.9802 9.637 12.6722 10.328C13.3622 11.019 14.2102 11.281 15.0572 11.395C15.8382 11.5 16.8082 11.5 17.9052 11.5H21.9572C21.9702 11.655 21.9792 11.821 21.9852 12H22.0002C22.0002 11.732 22.0002 11.598 21.9902 11.44C21.9131 10.4898 21.5823 9.57764 21.0322 8.799C20.9382 8.671 20.8742 8.59501 20.7472 8.44201C19.9542 7.49401 18.9102 6.312 18.0002 5.5C17.1902 4.776 16.0792 3.985 15.1102 3.338C14.2782 2.783 13.8622 2.505 13.2912 2.298C13.125 2.23891 12.9562 2.18785 12.7852 2.145C12.4012 2.05 12.0272 2.017 11.5002 2.005L11.5102 2.26Z" fill="#1877F2"/>
</svg>
