<svg width="24" height="24" viewBox="0 0 24 24" fill="none" xmlns="http://www.w3.org/2000/svg">
<path d="M9.00098 10C11.2101 10 13.001 8.20914 13.001 6C13.001 3.79086 11.2101 2 9.00098 2C6.79184 2 5.00098 3.79086 5.00098 6C5.00098 8.20914 6.79184 10 9.00098 10Z" fill="#1877F2"/>
<path d="M9.00098 21.001C12.867 21.001 16.001 19.2101 16.001 17.001C16.001 14.7919 12.867 13.001 9.00098 13.001C5.13498 13.001 2.00098 14.7919 2.00098 17.001C2.00098 19.2101 5.13498 21.001 9.00098 21.001Z" fill="#1877F2"/>
<path d="M21 17C21 18.657 18.964 20 16.479 20C17.211 19.2 17.715 18.195 17.715 17.002C17.715 15.807 17.21 14.802 16.476 14.001C18.962 14 21 15.344 21 17ZM18 6C18.0003 6.48272 17.8841 6.95838 17.6613 7.38661C17.4385 7.81483 17.1157 8.18298 16.7202 8.45978C16.3248 8.73658 15.8683 8.91386 15.3897 8.97657C14.9111 9.03928 14.4244 8.98557 13.971 8.82C14.4595 7.96054 14.7156 6.9886 14.714 6C14.714 4.975 14.444 4.013 13.972 3.181C14.4254 3.01563 14.9119 2.96208 15.3904 3.02489C15.8689 3.0877 16.3252 3.26501 16.7205 3.54179C17.1159 3.81857 17.4386 4.18663 17.6613 4.61475C17.8841 5.04287 18.0002 5.51741 18 6Z" fill="#1877F2"/>
</svg>
