<svg width="24" height="24" viewBox="0 0 24 24" fill="none" xmlns="http://www.w3.org/2000/svg">
<path d="M3.464 20.5351C4.93 22.0001 7.286 22.0001 12 22.0001C16.714 22.0001 19.071 22.0001 20.535 20.5351C21.806 19.2651 21.975 17.3221 21.997 13.7501H18.84C17.866 13.7501 17.611 13.7661 17.398 13.8641C17.184 13.9631 17.006 14.1461 16.372 14.8841L15.767 15.5911L15.679 15.6931C15.177 16.2801 14.779 16.7451 14.229 16.9981C13.679 17.2511 13.067 17.2511 12.295 17.2501H11.706C10.933 17.2501 10.321 17.2521 9.771 16.9981C9.221 16.7451 8.823 16.2801 8.321 15.6931L8.233 15.5911L7.628 14.8851C6.994 14.1451 6.816 13.9631 6.602 13.8651C6.389 13.7661 6.134 13.7501 5.16 13.7501H2.003C2.026 17.3221 2.193 19.2651 3.464 20.5351Z" fill="#1877F2"/>
<path d="M20.535 3.46412C19.072 2.00012 16.714 2.00012 12 2.00012C7.286 2.00012 4.929 2.00012 3.464 3.46412C2 4.93012 2 7.28612 2 12.0001V12.2501H5.295C6.067 12.2501 6.679 12.2481 7.229 12.5021C7.779 12.7551 8.177 13.2201 8.679 13.8071L8.767 13.9091L9.372 14.6151C10.006 15.3551 10.184 15.5371 10.398 15.6351C10.611 15.7341 10.866 15.7501 11.84 15.7501H12.16C13.134 15.7501 13.389 15.7341 13.602 15.6361C13.816 15.5371 13.994 15.3541 14.628 14.6161L15.233 13.9091L15.321 13.8071C15.823 13.2201 16.221 12.7551 16.771 12.5021C17.321 12.2481 17.933 12.2491 18.705 12.2501H22V12.0001C22 7.28612 22 4.92912 20.535 3.46412Z" fill="#1877F2"/>
</svg>
