<svg width="24" height="24" viewBox="0 0 24 24" fill="none" xmlns="http://www.w3.org/2000/svg">
<path fill-rule="evenodd" clip-rule="evenodd" d="M12 2.74023C9.54675 2.74023 7.19397 3.71479 5.45926 5.4495C3.72455 7.18421 2.75 9.53698 2.75 11.9902C2.75 14.4435 3.72455 16.7963 5.45926 18.531C7.19397 20.2657 9.54675 21.2402 12 21.2402C14.4533 21.2402 16.806 20.2657 18.5407 18.531C20.2754 16.7963 21.25 14.4435 21.25 11.9902C21.25 9.53698 20.2754 7.18421 18.5407 5.4495C16.806 3.71479 14.4533 2.74023 12 2.74023ZM1.25 11.9902C1.25 6.05323 6.063 1.24023 12 1.24023C17.937 1.24023 22.75 6.05323 22.75 11.9902C22.75 17.9272 17.937 22.7402 12 22.7402C6.063 22.7402 1.25 17.9272 1.25 11.9902ZM12 7.24023C12.1989 7.24023 12.3897 7.31925 12.5303 7.4599C12.671 7.60056 12.75 7.79132 12.75 7.99023V11.6802L15.03 13.9602C15.1037 14.0289 15.1628 14.1117 15.2038 14.2037C15.2448 14.2957 15.2668 14.395 15.2686 14.4957C15.2704 14.5964 15.2518 14.6964 15.2141 14.7898C15.1764 14.8832 15.1203 14.9681 15.049 15.0393C14.9778 15.1105 14.893 15.1666 14.7996 15.2044C14.7062 15.2421 14.6062 15.2606 14.5055 15.2588C14.4048 15.257 14.3055 15.235 14.2135 15.194C14.1215 15.153 14.0387 15.0939 13.97 15.0202L11.47 12.5202C11.3293 12.3797 11.2502 12.1891 11.25 11.9902V7.99023C11.25 7.79132 11.329 7.60056 11.4697 7.4599C11.6103 7.31925 11.8011 7.24023 12 7.24023Z" fill="#1877F2"/>
</svg>
