<svg width="24" height="24" viewBox="0 0 24 24" fill="none" xmlns="http://www.w3.org/2000/svg">
<path opacity="0.5" d="M16.415 17.974C16.2059 18.6143 15.8386 19.1915 15.347 19.652C14.616 20.337 13.488 20.639 11.233 21.243C8.97797 21.847 7.84997 22.15 6.87497 21.922C6.10458 21.7424 5.40475 21.3383 4.86397 20.761C4.17897 20.03 3.87597 18.902 3.27197 16.647L2.75497 14.715C2.14997 12.46 1.84797 11.332 2.07497 10.357C2.25488 9.5865 2.65927 8.88666 3.23697 8.34601C3.96797 7.66101 5.09597 7.35901 7.35097 6.75401C7.77697 6.64001 8.16397 6.53601 8.51597 6.44501L8.27197 7.35101L7.75497 9.28301C7.14997 11.538 6.84797 12.665 7.07497 13.641C7.25488 14.4115 7.65927 15.1114 8.23697 15.652C8.96797 16.337 10.096 16.639 12.351 17.244C14.383 17.788 15.5 18.087 16.415 17.974Z" fill="#1877F2"/>
<path fill-rule="evenodd" clip-rule="evenodd" d="M20.83 10.715L20.312 12.647C19.707 14.902 19.405 16.03 18.72 16.761C18.1795 17.3382 17.48 17.7422 16.71 17.922C16.613 17.945 16.515 17.962 16.415 17.974C15.5 18.087 14.383 17.788 12.351 17.244C10.096 16.639 8.96799 16.337 8.23699 15.652C7.65966 15.1112 7.25563 14.4114 7.07599 13.641C6.84799 12.665 7.14999 11.538 7.75499 9.28299L8.27199 7.35099L8.51599 6.44599C8.97099 4.77999 9.27699 3.86299 9.86399 3.23599C10.4046 2.65919 11.1041 2.25553 11.874 2.07599C12.85 1.84799 13.978 2.14999 16.234 2.75499C18.488 3.35899 19.616 3.66099 20.347 4.34499C20.9245 4.88605 21.3285 5.58625 21.508 6.35699C21.736 7.33299 21.434 8.45999 20.83 10.715ZM11.052 9.80499C11.0775 9.70984 11.1215 9.62065 11.1815 9.54251C11.2415 9.46437 11.3164 9.39883 11.4017 9.34961C11.487 9.30039 11.5812 9.26847 11.6789 9.25566C11.7766 9.24286 11.8759 9.24943 11.971 9.27499L16.801 10.57C16.8986 10.5931 16.9907 10.6357 17.0716 10.695C17.1525 10.7544 17.2207 10.8294 17.2721 10.9156C17.3235 11.0018 17.3571 11.0974 17.3709 11.1968C17.3846 11.2963 17.3783 11.3974 17.3523 11.4943C17.3262 11.5913 17.281 11.682 17.2193 11.7611C17.1575 11.8402 17.0805 11.9062 16.9929 11.955C16.9052 12.0038 16.8086 12.0346 16.7088 12.0454C16.609 12.0562 16.5081 12.0469 16.412 12.018L11.582 10.724C11.39 10.6724 11.2264 10.5468 11.127 10.3747C11.0277 10.2025 11.0007 9.99701 11.052 9.80499ZM10.276 12.703C10.3276 12.511 10.4532 12.3474 10.6253 12.248C10.7974 12.1487 11.002 12.1217 11.194 12.173L14.092 12.95C14.1901 12.9726 14.2827 13.0148 14.3641 13.074C14.4456 13.1332 14.5143 13.2082 14.5662 13.2945C14.6181 13.3808 14.652 13.4767 14.666 13.5764C14.68 13.6761 14.6738 13.7776 14.6478 13.8749C14.6217 13.9722 14.5763 14.0632 14.5143 14.1425C14.4523 14.2219 14.375 14.2879 14.2869 14.3368C14.1988 14.3856 14.1018 14.4162 14.0017 14.4267C13.9015 14.4372 13.8003 14.4274 13.704 14.398L10.806 13.622C10.7108 13.5965 10.6216 13.5524 10.5435 13.4924C10.4654 13.4324 10.3998 13.3576 10.3506 13.2723C10.3014 13.1869 10.2695 13.0927 10.2567 12.9951C10.2439 12.8974 10.2504 12.7981 10.276 12.703Z" fill="#1877F2"/>
</svg>
