<svg width="24" height="24" viewBox="0 0 24 24" fill="none" xmlns="http://www.w3.org/2000/svg">
<path fill-rule="evenodd" clip-rule="evenodd" d="M12.4381 2.76823C12.2936 2.72213 12.1369 2.73286 12.0001 2.79823C11.9323 2.82962 11.8721 2.8754 11.8237 2.93239C11.7754 2.98938 11.74 3.0562 11.7201 3.12823L11.2441 4.96223C11.0778 5.60319 10.8361 6.22218 10.5241 6.80623C10.0391 7.71323 9.30608 8.41023 8.62608 8.99623L7.18808 10.2362C7.07808 10.3311 6.99216 10.4508 6.9374 10.5853C6.88264 10.7199 6.8606 10.8655 6.87308 11.0102L7.68508 20.4032C7.70483 20.6314 7.80931 20.8438 7.97793 20.9988C8.14655 21.1537 8.36709 21.2398 8.59608 21.2402H13.2451C16.3811 21.2402 19.0241 19.0582 19.5311 16.1272L20.2361 12.0472C20.259 11.9157 20.2528 11.7808 20.2181 11.652C20.1834 11.5231 20.1209 11.4034 20.0351 11.3012C19.9493 11.199 19.8422 11.1168 19.7213 11.0603C19.6003 11.0038 19.4685 10.9744 19.3351 10.9742H14.1541C13.1771 10.9742 12.4341 10.0982 12.5921 9.13423L13.2551 5.09023C13.3459 4.53632 13.32 3.96955 13.1791 3.42623C13.1393 3.2824 13.0638 3.15095 12.9596 3.04413C12.8554 2.9373 12.7259 2.85856 12.5831 2.81523L12.4381 2.76823ZM11.3481 1.44723C11.8317 1.21458 12.3861 1.17628 12.8971 1.34023L13.0421 1.38723C13.8191 1.63723 14.4251 2.25723 14.6311 3.04923C14.8241 3.79523 14.8601 4.57323 14.7351 5.33323L14.0721 9.37723C14.07 9.38916 14.0706 9.40139 14.0738 9.41306C14.077 9.42474 14.0827 9.43557 14.0905 9.44481C14.0983 9.45405 14.1081 9.46148 14.119 9.46656C14.13 9.47164 14.142 9.47426 14.1541 9.47423H19.3341C20.8341 9.47423 21.9701 10.8262 21.7141 12.3032L21.0091 16.3832C20.3711 20.0712 17.0711 22.7402 13.2451 22.7402H8.59608C7.99167 22.7397 7.40941 22.5127 6.96418 22.1039C6.51896 21.6952 6.24311 21.1344 6.19108 20.5322L5.37808 11.1392C5.34503 10.7578 5.40304 10.3739 5.54733 10.0192C5.69163 9.66458 5.91809 9.34926 6.20808 9.09923L7.64808 7.85923C8.30308 7.29523 8.85408 6.74823 9.20008 6.09923C9.45698 5.61993 9.65572 5.11166 9.79208 4.58523L10.2681 2.75223C10.3425 2.46932 10.4777 2.20603 10.6642 1.98066C10.8507 1.7553 11.0841 1.57326 11.3481 1.44723ZM2.96808 9.47523C3.16134 9.46678 3.35039 9.53333 3.49574 9.66098C3.64109 9.78862 3.7315 9.9675 3.74808 10.1602L4.71808 21.3962C4.73451 21.5635 4.71666 21.7325 4.66562 21.8927C4.61458 22.0528 4.53142 22.201 4.42122 22.3279C4.31102 22.4549 4.17609 22.5581 4.02468 22.6312C3.87327 22.7042 3.70855 22.7457 3.54058 22.753C3.37261 22.7602 3.20492 22.7332 3.04775 22.6735C2.89058 22.6138 2.74723 22.5227 2.62646 22.4057C2.50568 22.2888 2.41002 22.1484 2.3453 21.9933C2.28059 21.8381 2.24819 21.6713 2.25008 21.5032V10.2242C2.2499 10.0307 2.32451 9.84467 2.45832 9.7049C2.59212 9.56513 2.77476 9.48348 2.96808 9.47523Z" fill="#1877F2"/>
</svg>
