<svg width="24" height="24" viewBox="0 0 24 24" fill="none" xmlns="http://www.w3.org/2000/svg">
<path fill-rule="evenodd" clip-rule="evenodd" d="M7.245 1.99023H16.755C17.914 1.99023 18.493 1.99023 18.961 2.15323C19.4023 2.30962 19.8015 2.56565 20.1277 2.90142C20.454 3.23719 20.6984 3.64365 20.842 4.08923C21 4.57123 21 5.16723 21 6.36023V20.3642C21 21.2222 20.015 21.6782 19.392 21.1082C19.2172 20.9467 18.988 20.857 18.75 20.857C18.512 20.857 18.2828 20.9467 18.108 21.1082L17.625 21.5502C17.3188 21.8334 16.9171 21.9907 16.5 21.9907C16.0829 21.9907 15.6812 21.8334 15.375 21.5502C15.0688 21.2671 14.6671 21.1098 14.25 21.1098C13.8329 21.1098 13.4312 21.2671 13.125 21.5502C12.8188 21.8334 12.4171 21.9907 12 21.9907C11.5829 21.9907 11.1812 21.8334 10.875 21.5502C10.5688 21.2671 10.1671 21.1098 9.75 21.1098C9.33293 21.1098 8.93121 21.2671 8.625 21.5502C8.31879 21.8334 7.91707 21.9907 7.5 21.9907C7.08293 21.9907 6.68121 21.8334 6.375 21.5502L5.892 21.1082C5.71721 20.9467 5.48798 20.857 5.25 20.857C5.01202 20.857 4.78279 20.9467 4.608 21.1082C3.985 21.6782 3 21.2222 3 20.3642V6.36023C3 5.16723 3 4.57023 3.158 4.09023C3.458 3.17723 4.153 2.46123 5.039 2.15323C5.507 1.99023 6.086 1.99023 7.245 1.99023ZM7 6.74023C6.80109 6.74023 6.61032 6.81925 6.46967 6.9599C6.32902 7.10056 6.25 7.29132 6.25 7.49023C6.25 7.68915 6.32902 7.87991 6.46967 8.02056C6.61032 8.16122 6.80109 8.24023 7 8.24023H7.5C7.69891 8.24023 7.88968 8.16122 8.03033 8.02056C8.17098 7.87991 8.25 7.68915 8.25 7.49023C8.25 7.29132 8.17098 7.10056 8.03033 6.9599C7.88968 6.81925 7.69891 6.74023 7.5 6.74023H7ZM10.5 6.74023C10.3011 6.74023 10.1103 6.81925 9.96967 6.9599C9.82902 7.10056 9.75 7.29132 9.75 7.49023C9.75 7.68915 9.82902 7.87991 9.96967 8.02056C10.1103 8.16122 10.3011 8.24023 10.5 8.24023H17C17.1989 8.24023 17.3897 8.16122 17.5303 8.02056C17.671 7.87991 17.75 7.68915 17.75 7.49023C17.75 7.29132 17.671 7.10056 17.5303 6.9599C17.3897 6.81925 17.1989 6.74023 17 6.74023H10.5ZM7 10.2402C6.80109 10.2402 6.61032 10.3193 6.46967 10.4599C6.32902 10.6006 6.25 10.7913 6.25 10.9902C6.25 11.1891 6.32902 11.3799 6.46967 11.5206C6.61032 11.6612 6.80109 11.7402 7 11.7402H7.5C7.69891 11.7402 7.88968 11.6612 8.03033 11.5206C8.17098 11.3799 8.25 11.1891 8.25 10.9902C8.25 10.7913 8.17098 10.6006 8.03033 10.4599C7.88968 10.3193 7.69891 10.2402 7.5 10.2402H7ZM10.5 10.2402C10.3011 10.2402 10.1103 10.3193 9.96967 10.4599C9.82902 10.6006 9.75 10.7913 9.75 10.9902C9.75 11.1891 9.82902 11.3799 9.96967 11.5206C10.1103 11.6612 10.3011 11.7402 10.5 11.7402H17C17.1989 11.7402 17.3897 11.6612 17.5303 11.5206C17.671 11.3799 17.75 11.1891 17.75 10.9902C17.75 10.7913 17.671 10.6006 17.5303 10.4599C17.3897 10.3193 17.1989 10.2402 17 10.2402H10.5ZM7 13.7402C6.80109 13.7402 6.61032 13.8193 6.46967 13.9599C6.32902 14.1006 6.25 14.2913 6.25 14.4902C6.25 14.6891 6.32902 14.8799 6.46967 15.0206C6.61032 15.1612 6.80109 15.2402 7 15.2402H7.5C7.69891 15.2402 7.88968 15.1612 8.03033 15.0206C8.17098 14.8799 8.25 14.6891 8.25 14.4902C8.25 14.2913 8.17098 14.1006 8.03033 13.9599C7.88968 13.8193 7.69891 13.7402 7.5 13.7402H7ZM10.5 13.7402C10.3011 13.7402 10.1103 13.8193 9.96967 13.9599C9.82902 14.1006 9.75 14.2913 9.75 14.4902C9.75 14.6891 9.82902 14.8799 9.96967 15.0206C10.1103 15.1612 10.3011 15.2402 10.5 15.2402H17C17.1989 15.2402 17.3897 15.1612 17.5303 15.0206C17.671 14.8799 17.75 14.6891 17.75 14.4902C17.75 14.2913 17.671 14.1006 17.5303 13.9599C17.3897 13.8193 17.1989 13.7402 17 13.7402H10.5Z" fill="#1877F2"/>
</svg>
