<svg width="24" height="24" viewBox="0 0 24 24" fill="none" xmlns="http://www.w3.org/2000/svg">
<path d="M7.75 2.50012C7.75 2.30121 7.67098 2.11044 7.53033 1.96979C7.38968 1.82914 7.19891 1.75012 7 1.75012C6.80109 1.75012 6.61032 1.82914 6.46967 1.96979C6.32902 2.11044 6.25 2.30121 6.25 2.50012V4.08012C4.81 4.19512 3.866 4.47712 3.172 5.17212C2.477 5.86612 2.195 6.81112 2.079 8.25012H21.921C21.805 6.81012 21.523 5.86612 20.828 5.17212C20.134 4.47712 19.189 4.19512 17.75 4.07912V2.50012C17.75 2.30121 17.671 2.11044 17.5303 1.96979C17.3897 1.82914 17.1989 1.75012 17 1.75012C16.8011 1.75012 16.6103 1.82914 16.4697 1.96979C16.329 2.11044 16.25 2.30121 16.25 2.50012V4.01312C15.585 4.00012 14.839 4.00012 14 4.00012H10C9.161 4.00012 8.415 4.00012 7.75 4.01312V2.50012Z" fill="#1877F2"/>
<path fill-rule="evenodd" clip-rule="evenodd" d="M22 12.0001C22 11.1611 22 10.4151 21.987 9.75012H2.013C2 10.4151 2 11.1611 2 12.0001V14.0001C2 17.7711 2 19.6571 3.172 20.8281C4.343 22.0001 6.229 22.0001 10 22.0001H14C17.771 22.0001 19.657 22.0001 20.828 20.8281C22 19.6571 22 17.7711 22 14.0001V12.0001ZM14 12.2501C13.5359 12.2501 13.0908 12.4345 12.7626 12.7627C12.4344 13.0909 12.25 13.536 12.25 14.0001V16.0001C12.25 16.4643 12.4344 16.9094 12.7626 17.2376C13.0908 17.5657 13.5359 17.7501 14 17.7501C14.4641 17.7501 14.9092 17.5657 15.2374 17.2376C15.5656 16.9094 15.75 16.4643 15.75 16.0001V14.0001C15.75 13.536 15.5656 13.0909 15.2374 12.7627C14.9092 12.4345 14.4641 12.2501 14 12.2501ZM14 13.7501C13.9337 13.7501 13.8701 13.7765 13.8232 13.8233C13.7763 13.8702 13.75 13.9338 13.75 14.0001V16.0001C13.75 16.0664 13.7763 16.13 13.8232 16.1769C13.8701 16.2238 13.9337 16.2501 14 16.2501C14.0663 16.2501 14.1299 16.2238 14.1768 16.1769C14.2237 16.13 14.25 16.0664 14.25 16.0001V14.0001C14.25 13.9338 14.2237 13.8702 14.1768 13.8233C14.1299 13.7765 14.0663 13.7501 14 13.7501ZM10.787 12.3071C10.9241 12.3639 11.0412 12.46 11.1236 12.5834C11.206 12.7067 11.25 12.8518 11.25 13.0001V17.0001C11.25 17.199 11.171 17.3898 11.0303 17.5305C10.8897 17.6711 10.6989 17.7501 10.5 17.7501C10.3011 17.7501 10.1103 17.6711 9.96967 17.5305C9.82902 17.3898 9.75 17.199 9.75 17.0001V14.8101L9.53 15.0301C9.38783 15.1626 9.19978 15.2347 9.00548 15.2313C8.81118 15.2279 8.62579 15.1492 8.48838 15.0117C8.35097 14.8743 8.27225 14.6889 8.26882 14.4946C8.2654 14.3003 8.33752 14.1123 8.47 13.9701L9.97 12.4701C10.0748 12.3652 10.2084 12.2938 10.3538 12.2648C10.4992 12.2357 10.65 12.2505 10.787 12.3071Z" fill="#1877F2"/>
</svg>
