<svg width="24" height="24" viewBox="0 0 24 24" fill="none" xmlns="http://www.w3.org/2000/svg">
<path d="M18.512 10.0771C18.512 10.8161 17.887 11.4151 17.116 11.4151C16.346 11.4151 15.721 10.8151 15.721 10.0771C15.721 9.33812 16.346 8.74012 17.116 8.74012C17.886 8.74012 18.512 9.33812 18.512 10.0771Z" fill="#262626"/>
<path fill-rule="evenodd" clip-rule="evenodd" d="M18.036 5.53212C16.976 5.39612 15.622 5.39612 13.913 5.39612H10.087C8.377 5.39612 7.023 5.39612 5.964 5.53212C4.874 5.67312 3.99 5.96912 3.294 6.63612C2.598 7.30412 2.289 8.15012 2.142 9.19612C2 10.2101 2 11.5081 2 13.1471V13.2471C2 14.8861 2 16.1841 2.142 17.2001C2.289 18.2451 2.598 19.0911 3.294 19.7581C3.99 20.4261 4.874 20.7221 5.964 20.8621C7.024 21.0001 8.378 21.0001 10.087 21.0001H13.913C15.623 21.0001 16.977 21.0001 18.036 20.8631C19.126 20.7231 20.01 20.4271 20.706 19.7591C21.402 19.0921 21.711 18.2461 21.858 17.2011C22 16.1851 22 14.8871 22 13.2481V13.1481C22 11.5081 22 10.2111 21.858 9.19512C21.711 8.15012 21.402 7.30412 20.706 6.63612C20.01 5.96912 19.126 5.67312 18.036 5.53212ZM6.15 6.85812C5.214 6.97812 4.675 7.20512 4.28 7.58212C3.887 7.96012 3.651 8.47612 3.525 9.37312C3.425 10.0931 3.402 10.9931 3.397 12.1691L3.867 11.7741C4.992 10.8311 6.686 10.8851 7.742 11.8971L11.732 15.7221C11.9297 15.9086 12.1849 16.0224 12.4558 16.0449C12.7267 16.0675 12.9972 15.9974 13.223 15.8461L13.501 15.6591C14.1531 15.223 14.9297 15.0115 15.7129 15.0566C16.4961 15.1017 17.2433 15.401 17.841 15.9091L20.248 17.9871C20.346 17.7231 20.421 17.4071 20.475 17.0221C20.603 16.1061 20.605 14.8981 20.605 13.1981C20.605 11.4981 20.603 10.2901 20.475 9.37312C20.349 8.47612 20.113 7.96012 19.719 7.58312C19.326 7.20512 18.786 6.97912 17.85 6.85812C16.894 6.73512 15.634 6.73312 13.86 6.73312H10.14C8.366 6.73312 7.106 6.73512 6.15 6.85812Z" fill="#262626"/>
<path d="M17.086 2.61012C16.226 2.50012 15.132 2.50012 13.767 2.50012H10.677C9.313 2.50012 8.218 2.50012 7.358 2.61012C6.468 2.72512 5.726 2.96812 5.137 3.53012C4.81194 3.84214 4.56405 4.22561 4.413 4.65012C4.917 4.42012 5.487 4.28412 6.127 4.20012C7.211 4.06012 8.597 4.06012 10.347 4.06012H14.261C16.011 4.06012 17.396 4.06012 18.481 4.20012C19.039 4.27312 19.545 4.38612 20 4.56612C19.8477 4.17472 19.6115 3.82144 19.308 3.53112C18.719 2.96812 17.977 2.72512 17.086 2.61112V2.61012Z" fill="#262626"/>
</svg>
