<svg width="24" height="24" viewBox="0 0 24 24" fill="none" xmlns="http://www.w3.org/2000/svg">
<path d="M18.2582 3.508C18.3952 3.56477 18.5124 3.66091 18.5948 3.78427C18.6772 3.90762 18.7212 4.05265 18.7212 4.201V8.444C18.7212 8.64291 18.6422 8.83368 18.5015 8.97433C18.3609 9.11498 18.1701 9.194 17.9712 9.194H13.7282C13.5799 9.19387 13.4351 9.14981 13.3118 9.06739C13.1886 8.98497 13.0926 8.86789 13.0359 8.73092C12.9792 8.59396 12.9643 8.44326 12.9932 8.29786C13.0221 8.15247 13.0934 8.01889 13.1982 7.914L14.8002 6.31C13.3286 5.69378 11.6949 5.58014 10.1522 5.9867C8.60953 6.39326 7.24402 7.29731 6.26731 8.55875C5.2906 9.82018 4.75723 11.3686 4.74988 12.9639C4.74252 14.5593 5.26159 16.1125 6.22662 17.3829C7.19166 18.6533 8.54878 19.5699 10.0877 19.9906C11.6265 20.4114 13.2612 20.3128 14.7384 19.7102C16.2156 19.1076 17.4527 18.0345 18.2581 16.6574C19.0635 15.2802 19.3922 13.6759 19.1932 12.093C19.1726 11.8978 19.2293 11.7022 19.3513 11.5484C19.4733 11.3945 19.6507 11.2946 19.8455 11.2701C20.0403 11.2456 20.237 11.2985 20.3932 11.4174C20.5494 11.5363 20.6528 11.7117 20.6812 11.906C20.9246 13.8422 20.5138 15.8041 19.5141 17.48C18.5144 19.1559 16.9832 20.4495 15.1638 21.1552C13.3445 21.8609 11.3415 21.9382 9.47317 21.3748C7.60487 20.8114 5.97852 19.6396 4.85267 18.0457C3.72681 16.4518 3.16606 14.5273 3.25957 12.5782C3.35307 10.629 4.09546 8.76704 5.36871 7.28825C6.64196 5.80946 8.37301 4.79873 10.2867 4.41673C12.2003 4.03473 14.1867 4.30339 15.9302 5.18L17.4402 3.67C17.5451 3.56528 17.6787 3.494 17.8241 3.46516C17.9695 3.43633 18.1212 3.45124 18.2582 3.508Z" fill="#3D59A6"/>
</svg>
