<svg width="24" height="24" viewBox="0 0 24 24" fill="none" xmlns="http://www.w3.org/2000/svg">
<path d="M2.162 8.50014C2 9.60314 2 11.0501 2 13.0001C2 16.7711 2 18.6571 3.172 19.8281C4.343 21.0001 6.229 21.0001 10 21.0001H14C17.771 21.0001 19.657 21.0001 20.828 19.8281C22 18.6571 22 16.7711 22 13.0001C22 11.0501 22 9.60414 21.838 8.50014C19.561 9.98014 18.102 10.9241 16.75 11.5051V12.0001C16.7523 12.199 16.6754 12.3907 16.5363 12.533C16.3973 12.6752 16.2074 12.7564 16.0085 12.7586C15.8096 12.7609 15.6179 12.684 15.4757 12.545C15.3334 12.4059 15.2523 12.216 15.25 12.0171C13.1197 12.5787 10.8803 12.5787 8.75 12.0171C8.74775 12.216 8.66657 12.4059 8.52432 12.545C8.38207 12.684 8.19041 12.7609 7.9915 12.7586C7.79259 12.7564 7.60272 12.6752 7.46366 12.533C7.3246 12.3907 7.24775 12.199 7.25 12.0001V11.5051C5.898 10.9231 4.44 9.98014 2.162 8.50014Z" fill="#1877F2"/>
<path fill-rule="evenodd" clip-rule="evenodd" d="M10.581 2.25014H10.561C10.447 2.25014 10.359 2.25014 10.275 2.25514C9.75543 2.28672 9.25549 2.46512 8.8333 2.76959C8.41111 3.07406 8.084 3.49211 7.89 3.97514C7.84738 4.08853 7.80737 4.2029 7.77 4.31814L7.766 4.33014C7.66312 4.60268 7.48909 4.84267 7.262 5.02514C7.034 5.03314 6.817 5.04214 6.609 5.05514C4.965 5.15113 3.922 5.42114 3.172 6.17214C2.92801 6.4154 2.72775 6.69888 2.58 7.01014C2.638 7.03014 2.694 7.05614 2.747 7.09114C4.847 8.45614 6.167 9.31114 7.264 9.85814C7.2998 9.67543 7.40228 9.51257 7.5515 9.40124C7.70072 9.2899 7.88601 9.23805 8.07135 9.25576C8.25668 9.27347 8.4288 9.35948 8.55424 9.49706C8.67967 9.63464 8.74945 9.81396 8.75 10.0001V10.4581C10.87 11.0981 13.13 11.0981 15.25 10.4581V10.0001C15.2493 9.81305 15.3185 9.63244 15.444 9.49376C15.5696 9.35507 15.7425 9.26832 15.9287 9.25054C16.1149 9.23275 16.3011 9.28521 16.4506 9.39763C16.6002 9.51004 16.7023 9.67429 16.737 9.85814C17.833 9.31014 19.153 8.45614 21.253 7.09114C21.3051 7.05735 21.3612 7.03015 21.42 7.01014C21.2718 6.69912 21.0716 6.41571 20.828 6.17214C20.078 5.42214 19.035 5.15214 17.391 5.05414C17.194 5.04314 16.988 5.03414 16.773 5.02614C16.521 4.82124 16.3264 4.55459 16.208 4.25214L16.205 4.24314C16.169 4.13614 16.142 4.05214 16.11 3.97414C15.9158 3.4913 15.5887 3.07346 15.1665 2.76917C14.7443 2.46488 14.2445 2.28663 13.725 2.25514C13.6301 2.25066 13.535 2.24899 13.44 2.25014H10.58H10.581ZM14.818 4.81614L14.813 4.80514L14.808 4.79314L14.804 4.78114L14.798 4.76613L14.788 4.73614L14.785 4.72814L14.783 4.72114L14.781 4.71514C14.7616 4.65425 14.7406 4.59389 14.718 4.53414C14.6299 4.31456 14.4812 4.12451 14.2893 3.98608C14.0974 3.84765 13.8702 3.76652 13.634 3.75214C13.5624 3.74963 13.4907 3.74896 13.419 3.75014H10.581C10.438 3.75014 10.398 3.75014 10.366 3.75214C10.1298 3.76652 9.90259 3.84765 9.7107 3.98608C9.51881 4.12451 9.37015 4.31456 9.282 4.53414L9.279 4.54114L9.271 4.56213C9.24371 4.63825 9.21804 4.71493 9.194 4.79214L9.192 4.79814L9.189 4.80514L9.187 4.81314L9.177 4.84314L9.171 4.85813L9.167 4.87014L9.162 4.88214L9.158 4.89214L9.157 4.89314C9.14307 4.92943 9.1284 4.96544 9.113 5.00114L10 5.00014H14.896C14.868 4.93968 14.842 4.87831 14.818 4.81614Z" fill="#1877F2"/>
</svg>
