<svg width="24" height="24" viewBox="0 0 24 24" fill="none" xmlns="http://www.w3.org/2000/svg">
<path fill-rule="evenodd" clip-rule="evenodd" d="M3.25 7C3.25 6.80109 3.32902 6.61032 3.46967 6.46967C3.61032 6.32902 3.80109 6.25 4 6.25H20C20.1989 6.25 20.3897 6.32902 20.5303 6.46967C20.671 6.61032 20.75 6.80109 20.75 7C20.75 7.19891 20.671 7.38968 20.5303 7.53033C20.3897 7.67098 20.1989 7.75 20 7.75H4C3.80109 7.75 3.61032 7.67098 3.46967 7.53033C3.32902 7.38968 3.25 7.19891 3.25 7ZM3.25 12C3.25 11.8011 3.32902 11.6103 3.46967 11.4697C3.61032 11.329 3.80109 11.25 4 11.25H15C15.1989 11.25 15.3897 11.329 15.5303 11.4697C15.671 11.6103 15.75 11.8011 15.75 12C15.75 12.1989 15.671 12.3897 15.5303 12.5303C15.3897 12.671 15.1989 12.75 15 12.75H4C3.80109 12.75 3.61032 12.671 3.46967 12.5303C3.32902 12.3897 3.25 12.1989 3.25 12ZM3.25 17C3.25 16.8011 3.32902 16.6103 3.46967 16.4697C3.61032 16.329 3.80109 16.25 4 16.25H9C9.19891 16.25 9.38968 16.329 9.53033 16.4697C9.67098 16.6103 9.75 16.8011 9.75 17C9.75 17.1989 9.67098 17.3897 9.53033 17.5303C9.38968 17.671 9.19891 17.75 9 17.75H4C3.80109 17.75 3.61032 17.671 3.46967 17.5303C3.32902 17.3897 3.25 17.1989 3.25 17Z" fill="#1877F2"/>
</svg>
