<svg width="24" height="24" viewBox="0 0 24 24" fill="none" xmlns="http://www.w3.org/2000/svg">
<path fill-rule="evenodd" clip-rule="evenodd" d="M22 11.9902C22 17.5132 17.523 21.9902 12 21.9902C10.4 21.9902 8.88801 21.6142 7.54801 20.9462C7.19404 20.7633 6.78542 20.716 6.39901 20.8132L4.17301 21.4092C3.95268 21.468 3.72077 21.4678 3.50054 21.4087C3.28031 21.3495 3.07952 21.2334 2.91833 21.0721C2.75713 20.9108 2.6412 20.71 2.58217 20.4897C2.52314 20.2694 2.52308 20.0375 2.58201 19.8172L3.17701 17.5912C3.27379 17.205 3.22613 16.7968 3.04301 16.4432C2.35464 15.0599 1.99756 13.5354 2.00001 11.9902C2.00001 6.46723 6.47701 1.99023 12 1.99023C17.523 1.99023 22 6.46723 22 11.9902ZM8.00001 12.9902C7.7348 12.9902 7.48044 12.8849 7.29291 12.6973C7.10537 12.5098 7.00001 12.2555 7.00001 11.9902C7.00001 11.725 7.10537 11.4707 7.29291 11.2831C7.48044 11.0956 7.7348 10.9902 8.00001 10.9902C8.26523 10.9902 8.51958 11.0956 8.70712 11.2831C8.89466 11.4707 9.00001 11.725 9.00001 11.9902C9.00001 12.2555 8.89466 12.5098 8.70712 12.6973C8.51958 12.8849 8.26523 12.9902 8.00001 12.9902ZM11 11.9902C11 12.2555 11.1054 12.5098 11.2929 12.6973C11.4804 12.8849 11.7348 12.9902 12 12.9902C12.2652 12.9902 12.5196 12.8849 12.7071 12.6973C12.8947 12.5098 13 12.2555 13 11.9902C13 11.725 12.8947 11.4707 12.7071 11.2831C12.5196 11.0956 12.2652 10.9902 12 10.9902C11.7348 10.9902 11.4804 11.0956 11.2929 11.2831C11.1054 11.4707 11 11.725 11 11.9902ZM15 11.9902C15 12.2555 15.1054 12.5098 15.2929 12.6973C15.4804 12.8849 15.7348 12.9902 16 12.9902C16.2652 12.9902 16.5196 12.8849 16.7071 12.6973C16.8947 12.5098 17 12.2555 17 11.9902C17 11.725 16.8947 11.4707 16.7071 11.2831C16.5196 11.0956 16.2652 10.9902 16 10.9902C15.7348 10.9902 15.4804 11.0956 15.2929 11.2831C15.1054 11.4707 15 11.725 15 11.9902Z" fill="#1877F2"/>
</svg>
