<svg width="24" height="24" viewBox="0 0 24 24" fill="none" xmlns="http://www.w3.org/2000/svg">
<path opacity="0.5" d="M22 14V11.798C22 9.166 22 7.849 21.23 6.994C21.1594 6.91508 21.0846 6.83997 21.006 6.769C20.151 6 18.834 6 16.202 6H15.828C14.675 6 14.098 6 13.56 5.847C13.2648 5.7626 12.9802 5.64449 12.712 5.495C12.224 5.224 11.816 4.815 11 4L10.45 3.45C10.176 3.176 10.04 3.04 9.896 2.92C9.27667 2.40664 8.51694 2.09194 7.716 2.017C7.53 2 7.336 2 6.95 2C6.067 2 5.626 2 5.258 2.07C4.46784 2.21922 3.741 2.60314 3.17231 3.17165C2.60361 3.74017 2.21947 4.46689 2.07 5.257C2 5.626 2 6.068 2 6.95V14C2 17.771 2 19.657 3.172 20.828C4.343 22 6.229 22 10 22H14C17.771 22 19.657 22 20.828 20.828C22 19.657 22 17.771 22 14Z" fill="#1877F2"/>
<path d="M14.4982 11.44C14.6467 11.572 14.7367 11.7576 14.7485 11.956C14.7604 12.1544 14.693 12.3493 14.5612 12.498L11.8942 15.498C11.8238 15.5772 11.7375 15.6405 11.6409 15.6839C11.5442 15.7273 11.4395 15.7497 11.3337 15.7497C11.2278 15.7497 11.1231 15.7273 11.0264 15.6839C10.9298 15.6405 10.8435 15.5772 10.7732 15.498L9.43915 13.998C9.30707 13.8492 9.23951 13.6541 9.25133 13.4555C9.26314 13.2569 9.35336 13.0711 9.50215 12.939C9.65094 12.8069 9.8461 12.7394 10.0447 12.7512C10.2433 12.763 10.4291 12.8532 10.5612 13.002L11.3332 13.872L13.4402 11.502C13.5722 11.3535 13.7577 11.2634 13.9561 11.2516C14.1545 11.2398 14.3494 11.3082 14.4982 11.44Z" fill="#1877F2"/>
</svg>
