<svg width="24" height="24" viewBox="0 0 24 24" fill="none" xmlns="http://www.w3.org/2000/svg">
<path fill-rule="evenodd" clip-rule="evenodd" d="M12.858 20H10.221C6.346 20 4.408 20 3.204 18.828C2 17.657 2 15.771 2 12C2 8.229 2 6.343 3.204 5.172C4.408 4 6.346 4 10.22 4H12.857C15.084 4 16.198 4 17.127 4.501C18.057 5.003 18.647 5.921 19.828 7.76L20.509 8.82C21.503 10.366 22 11.14 22 12C22 12.86 21.503 13.634 20.51 15.18L19.83 16.24C18.649 18.078 18.059 18.997 17.129 19.499C16.199 20 15.085 20 12.858 20ZM7 7.054C7.414 7.054 7.75 7.37 7.75 7.76V16.235C7.75 16.625 7.414 16.941 7 16.941C6.586 16.941 6.25 16.625 6.25 16.235V7.76C6.25 7.37 6.586 7.054 7 7.054Z" fill="#1877F2"/>
</svg>
