<svg width="24" height="24" viewBox="0 0 24 24" fill="none" xmlns="http://www.w3.org/2000/svg">
<path d="M12 2.00012C10.475 2.00012 9.01247 2.60592 7.93414 3.68426C6.8558 4.76259 6.25 6.22513 6.25 7.75012V10.7501C6.24976 12.2102 6.805 13.6157 7.80305 14.6815C8.80111 15.7472 10.1672 16.3933 11.6242 16.4888C13.0812 16.5842 14.5199 16.1218 15.6484 15.1953C16.777 14.2689 17.5108 12.9478 17.701 11.5001H13C12.8011 11.5001 12.6103 11.4211 12.4697 11.2805C12.329 11.1398 12.25 10.949 12.25 10.7501C12.25 10.5512 12.329 10.3604 12.4697 10.2198C12.6103 10.0791 12.8011 10.0001 13 10.0001H17.75V8.50012H13C12.8011 8.50012 12.6103 8.4211 12.4697 8.28045C12.329 8.1398 12.25 7.94903 12.25 7.75012C12.25 7.55121 12.329 7.36044 12.4697 7.21979C12.6103 7.07914 12.8011 7.00012 13 7.00012H17.701C17.5188 5.61702 16.8401 4.34728 15.7913 3.42743C14.7425 2.50757 13.3951 2.00031 12 2.00012Z" fill="#262626"/>
<path fill-rule="evenodd" clip-rule="evenodd" d="M4 9.00012C4.19891 9.00012 4.38968 9.07914 4.53033 9.21979C4.67098 9.36044 4.75 9.55121 4.75 9.75012V10.7501C4.75 11.7022 4.93753 12.645 5.30187 13.5246C5.66622 14.4042 6.20025 15.2034 6.87348 15.8766C7.5467 16.5499 8.34593 17.0839 9.22554 17.4482C10.1052 17.8126 11.0479 18.0001 12 18.0001C12.9521 18.0001 13.8948 17.8126 14.7745 17.4482C15.6541 17.0839 16.4533 16.5499 17.1265 15.8766C17.7997 15.2034 18.3338 14.4042 18.6981 13.5246C19.0625 12.645 19.25 11.7022 19.25 10.7501V9.75012C19.25 9.55121 19.329 9.36044 19.4697 9.21979C19.6103 9.07914 19.8011 9.00012 20 9.00012C20.1989 9.00012 20.3897 9.07914 20.5303 9.21979C20.671 9.36044 20.75 9.55121 20.75 9.75012V10.7501C20.7501 12.941 19.9282 15.0521 18.447 16.6663C16.9657 18.2805 14.9328 19.2803 12.75 19.4681V21.7501C12.75 21.949 12.671 22.1398 12.5303 22.2805C12.3897 22.4211 12.1989 22.5001 12 22.5001C11.8011 22.5001 11.6103 22.4211 11.4697 22.2805C11.329 22.1398 11.25 21.949 11.25 21.7501V19.4681C9.06722 19.2803 7.0343 18.2805 5.55303 16.6663C4.07177 15.0521 3.24995 12.941 3.25 10.7501V9.75012C3.25 9.55121 3.32902 9.36044 3.46967 9.21979C3.61032 9.07914 3.80109 9.00012 4 9.00012Z" fill="#262626"/>
</svg>
