<svg width="24" height="24" viewBox="0 0 24 24" fill="none" xmlns="http://www.w3.org/2000/svg">
<path opacity="0.4" d="M21.0405 7.19L12.0004 12.42L2.96045 7.19C3.36045 6.45 3.94045 5.8 4.59045 5.44L9.93045 2.48C11.0704 1.84 12.9304 1.84 14.0704 2.48L19.4104 5.44C20.0604 5.8 20.6405 6.45 21.0405 7.19Z" fill="#292D32"/>
<path opacity="0.6" d="M12.0006 12.42V22C11.2506 22 10.5006 21.84 9.93062 21.52L4.59063 18.56C3.38063 17.89 2.39062 16.21 2.39062 14.83V9.17C2.39062 8.53 2.61062 7.83 2.96062 7.19L12.0006 12.42Z" fill="#292D32"/>
<path d="M21.6105 9.17V14.83C21.6105 16.21 20.6205 17.89 19.4105 18.56L14.0705 21.52C13.5005 21.84 12.7505 22 12.0005 22V12.42L21.0405 7.19C21.3905 7.83 21.6105 8.53 21.6105 9.17Z" fill="#292D32"/>
</svg>
