<svg width="24" height="24" viewBox="0 0 24 24" fill="none" xmlns="http://www.w3.org/2000/svg">
<path d="M5.75 1C5.94891 1 6.13968 1.07902 6.28033 1.21967C6.42098 1.36032 6.5 1.55109 6.5 1.75V3.6L8.22 3.256C9.87075 2.92571 11.5819 3.08276 13.145 3.708L13.349 3.789C14.9099 4.41355 16.6279 4.53042 18.259 4.123C18.4359 4.07878 18.6205 4.07546 18.7989 4.11328C18.9773 4.15111 19.1447 4.22909 19.2884 4.34129C19.4322 4.4535 19.5484 4.59699 19.6284 4.76085C19.7084 4.92472 19.75 5.10466 19.75 5.287V12.654C19.75 13.298 19.311 13.86 18.686 14.016L18.472 14.069C16.7025 14.5115 14.8386 14.3852 13.145 13.708C11.5823 13.0829 9.87143 12.9259 8.221 13.256L6.5 13.6V21.75C6.5 21.9489 6.42098 22.1397 6.28033 22.2803C6.13968 22.421 5.94891 22.5 5.75 22.5C5.55109 22.5 5.36032 22.421 5.21967 22.2803C5.07902 22.1397 5 21.9489 5 21.75V1.75C5 1.55109 5.07902 1.36032 5.21967 1.21967C5.36032 1.07902 5.55109 1 5.75 1Z" fill="#1877F2"/>
</svg>
