<svg width="24" height="24" viewBox="0 0 24 24" fill="none" xmlns="http://www.w3.org/2000/svg">
<path fill-rule="evenodd" clip-rule="evenodd" d="M10.0298 6.47001C10.1703 6.61064 10.2492 6.80126 10.2492 7.00001C10.2492 7.19876 10.1703 7.38939 10.0298 7.53001L6.30983 11.25H14.4998C15.4528 11.25 16.8668 11.53 18.0628 12.391C19.2978 13.281 20.2498 14.756 20.2498 17C20.2498 17.1989 20.1708 17.3897 20.0302 17.5303C19.8895 17.671 19.6987 17.75 19.4998 17.75C19.3009 17.75 19.1102 17.671 18.9695 17.5303C18.8288 17.3897 18.7498 17.1989 18.7498 17C18.7498 15.244 18.0348 14.22 17.1868 13.609C16.2998 12.97 15.2128 12.75 14.4998 12.75H6.30983L10.0298 16.47C10.1035 16.5387 10.1626 16.6215 10.2036 16.7135C10.2446 16.8055 10.2666 16.9048 10.2684 17.0055C10.2702 17.1062 10.2517 17.2062 10.214 17.2996C10.1762 17.393 10.1201 17.4778 10.0489 17.549C9.97765 17.6203 9.89281 17.6764 9.79943 17.7141C9.70604 17.7519 9.60601 17.7704 9.50531 17.7686C9.4046 17.7668 9.30529 17.7448 9.21329 17.7038C9.12129 17.6628 9.03849 17.6037 8.96983 17.53L3.96983 12.53C3.82938 12.3894 3.75049 12.1988 3.75049 12C3.75049 11.8013 3.82938 11.6106 3.96983 11.47L8.96983 6.47001C9.11045 6.32956 9.30108 6.25067 9.49983 6.25067C9.69858 6.25067 9.8892 6.32956 10.0298 6.47001Z" fill="#1877F2"/>
</svg>
