<svg width="24" height="24" viewBox="0 0 24 24" fill="none" xmlns="http://www.w3.org/2000/svg">
<path fill-rule="evenodd" clip-rule="evenodd" d="M2 12.5V11.5C2 8.213 2 6.569 2.908 5.462C3.07409 5.25965 3.25965 5.07409 3.462 4.908C4.57 4 6.212 4 9.5 4C12.787 4 14.431 4 15.538 4.908C15.7404 5.07409 15.9259 5.25965 16.092 5.462C16.794 6.317 16.953 7.493 16.989 9.5L17.659 9.17C19.604 8.198 20.577 7.711 21.289 8.151C22 8.591 22 9.679 22 11.854V12.146C22 14.321 22 15.409 21.289 15.849C20.577 16.289 19.604 15.802 17.659 14.829L16.989 14.5C16.953 16.507 16.794 17.683 16.092 18.538C15.9259 18.7403 15.7403 18.9259 15.538 19.092C14.43 20 12.788 20 9.5 20C6.213 20 4.569 20 3.462 19.092C3.25965 18.9259 3.07409 18.7404 2.908 18.538C2 17.43 2 15.788 2 12.5ZM13.56 9.56C13.7056 9.42219 13.8221 9.25659 13.9027 9.07298C13.9832 8.88937 14.0261 8.69148 14.0288 8.491C14.0316 8.29053 13.9941 8.09154 13.9186 7.9058C13.8432 7.72005 13.7312 7.55133 13.5894 7.40959C13.4476 7.26785 13.2788 7.15598 13.093 7.08059C12.9073 7.0052 12.7083 6.96781 12.5078 6.97065C12.3073 6.97348 12.1094 7.01648 11.9259 7.0971C11.7423 7.17771 11.5767 7.29431 11.439 7.44C11.1659 7.72303 11.0149 8.10201 11.0185 8.4953C11.0221 8.8886 11.18 9.26474 11.4583 9.54273C11.7365 9.82071 12.1128 9.97828 12.5061 9.98151C12.8994 9.98475 13.2772 9.83337 13.56 9.56Z" fill="#262626"/>
</svg>
