<svg width="24" height="24" viewBox="0 0 24 24" fill="none" xmlns="http://www.w3.org/2000/svg">
<path d="M15.5569 14.906L15.1019 15.359C15.1019 15.359 14.0189 16.435 11.0639 13.497C8.10886 10.559 9.19186 9.483 9.19186 9.483L9.47786 9.197C10.1849 8.495 10.2519 7.367 9.63486 6.543L8.37486 4.86C7.61086 3.84 6.13586 3.705 5.26086 4.575L3.69086 6.135C3.25786 6.567 2.96786 7.125 3.00286 7.745C3.09286 9.332 3.81086 12.745 7.81486 16.727C12.0619 20.949 16.0469 21.117 17.6759 20.965C18.1919 20.917 18.6399 20.655 19.0009 20.295L20.4209 18.883C21.3809 17.93 21.1109 16.295 19.8829 15.628L17.9729 14.589C17.1669 14.151 16.1869 14.28 15.5569 14.906Z" fill="#1877F2"/>
</svg>
