<svg width="24" height="24" viewBox="0 0 24 24" fill="none" xmlns="http://www.w3.org/2000/svg">
<path opacity="0.5" fill-rule="evenodd" clip-rule="evenodd" d="M1.25 7C1.25 6.80109 1.32902 6.61032 1.46967 6.46967C1.61032 6.32902 1.80109 6.25 2 6.25H10C10.1989 6.25 10.3897 6.32902 10.5303 6.46967C10.671 6.61032 10.75 6.80109 10.75 7C10.75 7.19891 10.671 7.38968 10.5303 7.53033C10.3897 7.67098 10.1989 7.75 10 7.75H2C1.80109 7.75 1.61032 7.67098 1.46967 7.53033C1.32902 7.38968 1.25 7.19891 1.25 7ZM1.25 12C1.25 11.8011 1.32902 11.6103 1.46967 11.4697C1.61032 11.329 1.80109 11.25 2 11.25H8C8.19891 11.25 8.38968 11.329 8.53033 11.4697C8.67098 11.6103 8.75 11.8011 8.75 12C8.75 12.1989 8.67098 12.3897 8.53033 12.5303C8.38968 12.671 8.19891 12.75 8 12.75H2C1.80109 12.75 1.61032 12.671 1.46967 12.5303C1.32902 12.3897 1.25 12.1989 1.25 12ZM1.25 17C1.25 16.8011 1.32902 16.6103 1.46967 16.4697C1.61032 16.329 1.80109 16.25 2 16.25H10C10.1989 16.25 10.3897 16.329 10.5303 16.4697C10.671 16.6103 10.75 16.8011 10.75 17C10.75 17.1989 10.671 17.3897 10.5303 17.5303C10.3897 17.671 10.1989 17.75 10 17.75H2C1.80109 17.75 1.61032 17.671 1.46967 17.5303C1.32902 17.3897 1.25 17.1989 1.25 17Z" fill="#1877F2"/>
<path fill-rule="evenodd" clip-rule="evenodd" d="M17 17C18.3261 17 19.5979 16.4732 20.5355 15.5355C21.4732 14.5979 22 13.3261 22 12C22 10.6739 21.4732 9.40215 20.5355 8.46447C19.5979 7.52678 18.3261 7 17 7C15.6739 7 14.4021 7.52678 13.4645 8.46447C12.5268 9.40215 12 10.6739 12 12C12 13.3261 12.5268 14.5979 13.4645 15.5355C14.4021 16.4732 15.6739 17 17 17ZM17.75 10C17.75 9.80109 17.671 9.61032 17.5303 9.46967C17.3897 9.32902 17.1989 9.25 17 9.25C16.8011 9.25 16.6103 9.32902 16.4697 9.46967C16.329 9.61032 16.25 9.80109 16.25 10V11.846C16.25 12.026 16.315 12.201 16.433 12.337L17.433 13.491C17.4975 13.5655 17.576 13.6265 17.6641 13.6706C17.7521 13.7147 17.848 13.7411 17.9463 13.7481C18.0445 13.7552 18.1432 13.7428 18.2366 13.7117C18.3301 13.6807 18.4165 13.6315 18.491 13.567C18.5655 13.5025 18.6265 13.424 18.6706 13.3359C18.7147 13.2479 18.7411 13.152 18.7481 13.0537C18.7552 12.9555 18.7428 12.8568 18.7117 12.7634C18.6807 12.6699 18.6315 12.5835 18.567 12.509L17.75 11.566V10Z" fill="#1877F2"/>
</svg>
