<svg width="24" height="24" viewBox="0 0 24 24" fill="none" xmlns="http://www.w3.org/2000/svg">
<path fill-rule="evenodd" clip-rule="evenodd" d="M12.4381 21.2122C12.2936 21.2583 12.1369 21.2476 12.0001 21.1822C11.9323 21.1508 11.8721 21.1051 11.8237 21.0481C11.7754 20.9911 11.74 20.9243 11.7201 20.8522L11.2441 19.0182C11.0778 18.3773 10.8361 17.7583 10.5241 17.1742C10.0391 16.2672 9.30608 15.5702 8.62608 14.9842L7.18808 13.7442C7.07808 13.6493 6.99216 13.5297 6.9374 13.3952C6.88264 13.2606 6.8606 13.115 6.87308 12.9702L7.68508 3.57823C7.70459 3.34991 7.80897 3.1372 7.97762 2.98207C8.14626 2.82694 8.36693 2.74065 8.59608 2.74023H13.2451C16.3811 2.74023 19.0241 4.92223 19.5311 7.85323L20.2361 11.9332C20.259 12.0647 20.2528 12.1996 20.2181 12.3285C20.1834 12.4573 20.1209 12.5771 20.0351 12.6793C19.9493 12.7815 19.8422 12.8637 19.7213 12.9202C19.6003 12.9766 19.4685 13.006 19.3351 13.0062H14.1541C13.1771 13.0062 12.4341 13.8822 12.5921 14.8462L13.2551 18.8902C13.3451 19.4442 13.3201 20.0102 13.1791 20.5542C13.1393 20.6981 13.0638 20.8295 12.9596 20.9363C12.8554 21.0432 12.7259 21.1219 12.5831 21.1652L12.4381 21.2122ZM11.3481 22.5332C11.8318 22.7655 12.386 22.8038 12.8971 22.6402L13.0421 22.5932C13.4255 22.4726 13.7723 22.2569 14.0501 21.9664C14.3279 21.6758 14.5277 21.3197 14.6311 20.9312C14.8244 20.1854 14.8598 19.4075 14.7351 18.6472L14.0721 14.6032C14.07 14.5913 14.0706 14.5791 14.0738 14.5674C14.077 14.5557 14.0827 14.5449 14.0905 14.5356C14.0983 14.5264 14.1081 14.519 14.119 14.5139C14.13 14.5088 14.142 14.5062 14.1541 14.5062H19.3341C20.8341 14.5062 21.9701 13.1542 21.7141 11.6772L21.0091 7.59723C20.3701 3.91023 17.0701 1.24023 13.2451 1.24023H8.59608C7.34308 1.24023 6.29908 2.20023 6.19108 3.44823L5.37808 12.8412C5.34503 13.2227 5.40304 13.6066 5.54733 13.9612C5.69163 14.3159 5.91809 14.6312 6.20808 14.8812L7.64808 16.1212C8.30308 16.6852 8.85408 17.2322 9.20008 17.8812C9.45708 18.3612 9.65608 18.8692 9.79208 19.3952L10.2681 21.2282C10.3425 21.5112 10.4776 21.7745 10.6641 21.9999C10.8506 22.2252 11.084 22.4073 11.3481 22.5332ZM2.96808 14.5052C3.16134 14.5137 3.35039 14.4471 3.49574 14.3195C3.64109 14.1918 3.7315 14.013 3.74808 13.8202L4.71808 2.58423C4.73451 2.41691 4.71666 2.24799 4.66562 2.0878C4.61458 1.92761 4.53142 1.77951 4.42122 1.65253C4.31102 1.52556 4.17609 1.42238 4.02468 1.3493C3.87327 1.27622 3.70855 1.23478 3.54058 1.22749C3.37261 1.22021 3.20492 1.24725 3.04775 1.30695C2.89058 1.36665 2.74723 1.45776 2.62646 1.57472C2.50568 1.69168 2.41002 1.83203 2.3453 1.98721C2.28059 2.14238 2.24819 2.30911 2.25008 2.47723V13.7562C2.2499 13.9497 2.32451 14.1358 2.45832 14.2756C2.59212 14.4153 2.77476 14.497 2.96808 14.5052Z" fill="#1877F2"/>
</svg>
