<svg width="24" height="24" viewBox="0 0 24 24" fill="none" xmlns="http://www.w3.org/2000/svg">
<path fill-rule="evenodd" clip-rule="evenodd" d="M22 12C22 17.523 17.523 22 12 22C6.477 22 2 17.523 2 12C2 6.477 6.477 2 12 2C17.523 2 22 6.477 22 12ZM8.97 8.97C9.11063 8.82955 9.30125 8.75066 9.5 8.75066C9.69875 8.75066 9.88937 8.82955 10.03 8.97L12 10.94L13.97 8.97C14.1122 8.83752 14.3002 8.7654 14.4945 8.76882C14.6888 8.77225 14.8742 8.85097 15.0116 8.98838C15.149 9.12579 15.2277 9.31118 15.2312 9.50548C15.2346 9.69978 15.1625 9.88783 15.03 10.03L13.06 12L15.03 13.97C15.1625 14.1122 15.2346 14.3002 15.2312 14.4945C15.2277 14.6888 15.149 14.8742 15.0116 15.0116C14.8742 15.149 14.6888 15.2277 14.4945 15.2312C14.3002 15.2346 14.1122 15.1625 13.97 15.03L12 13.06L10.03 15.03C9.88783 15.1625 9.69978 15.2346 9.50548 15.2312C9.31118 15.2277 9.12579 15.149 8.98838 15.0116C8.85097 14.8742 8.77225 14.6888 8.76882 14.4945C8.7654 14.3002 8.83752 14.1122 8.97 13.97L10.94 12L8.97 10.03C8.82955 9.88937 8.75066 9.69875 8.75066 9.5C8.75066 9.30125 8.82955 9.11063 8.97 8.97Z" fill="#1877F2"/>
</svg>
