<svg width="20" height="21" viewBox="0 0 20 21" fill="none" xmlns="http://www.w3.org/2000/svg">
<g id="icons/solid/ic-solar:eye-bold">
<g id="primary-shape">
<path d="M8.12484 10.5C8.12484 10.0027 8.32238 9.52578 8.67401 9.17415C9.02564 8.82252 9.50256 8.62498 9.99984 8.62498C10.4971 8.62498 10.974 8.82252 11.3257 9.17415C11.6773 9.52578 11.8748 10.0027 11.8748 10.5C11.8748 10.9973 11.6773 11.4742 11.3257 11.8258C10.974 12.1774 10.4971 12.375 9.99984 12.375C9.50256 12.375 9.02564 12.1774 8.67401 11.8258C8.32238 11.4742 8.12484 10.9973 8.12484 10.5Z" fill="#637381"/>
<path fill-rule="evenodd" clip-rule="evenodd" d="M1.6665 10.5C1.6665 11.8666 2.02067 12.3258 2.729 13.2466C4.14317 15.0833 6.51484 17.1666 9.99984 17.1666C13.4848 17.1666 15.8565 15.0833 17.2707 13.2466C17.979 12.3266 18.3332 11.8658 18.3332 10.5C18.3332 9.13331 17.979 8.67415 17.2707 7.75331C15.8565 5.91665 13.4848 3.83331 9.99984 3.83331C6.51484 3.83331 4.14317 5.91665 2.729 7.75331C2.02067 8.67498 1.6665 9.13415 1.6665 10.5ZM9.99984 7.37498C9.17104 7.37498 8.37618 7.70422 7.79013 8.29027C7.20408 8.87632 6.87484 9.67118 6.87484 10.5C6.87484 11.3288 7.20408 12.1236 7.79013 12.7097C8.37618 13.2957 9.17104 13.625 9.99984 13.625C10.8286 13.625 11.6235 13.2957 12.2095 12.7097C12.7956 12.1236 13.1248 11.3288 13.1248 10.5C13.1248 9.67118 12.7956 8.87632 12.2095 8.29027C11.6235 7.70422 10.8286 7.37498 9.99984 7.37498Z" fill="#637381"/>
</g>
</g>
</svg>
