<svg width="24" height="24" viewBox="0 0 24 24" fill="none" xmlns="http://www.w3.org/2000/svg">
<path fill-rule="evenodd" clip-rule="evenodd" d="M7.23867 3.04387C5.65133 2.18156 3.75 3.31911 3.75 5.03301V8.00001C3.75 8.41423 3.41421 8.75001 3 8.75001C2.58579 8.75001 2.25 8.41423 2.25 8.00001V5.03301C2.25 2.127 5.41648 0.346579 7.95509 1.72602L20.7644 8.69256C21.3634 9.01186 21.8645 9.48785 22.2141 10.0697C22.5643 10.6527 22.7494 11.3199 22.7494 12C22.7494 12.6801 22.5643 13.3473 22.2141 13.9303C21.8645 14.5122 21.3634 14.9882 20.7644 15.3075L14.3613 18.7899C13.9975 18.9878 13.542 18.8532 13.3441 18.4893C13.1462 18.1255 13.2808 17.6701 13.6447 17.4722L20.0568 13.9848C20.417 13.7933 20.7182 13.5074 20.9283 13.1578C21.1384 12.8081 21.2494 12.4079 21.2494 12C21.2494 11.5921 21.1384 11.1919 20.9283 10.8423C20.7182 10.4926 20.417 10.2067 20.0569 10.0152L20.0507 10.0119L7.23867 3.04387C7.23875 3.04392 7.23859 3.04383 7.23867 3.04387ZM3 11.25C3.41421 11.25 3.75 11.5858 3.75 12V18.967C3.75 20.681 5.65152 21.8186 7.23891 20.956L10.4417 19.2141C10.8055 19.0162 11.261 19.1508 11.4589 19.5147C11.6568 19.8786 11.5222 20.334 11.1583 20.5319L7.95533 22.2739C5.41672 23.6533 2.25 21.873 2.25 18.967V12C2.25 11.5858 2.58579 11.25 3 11.25Z" fill="#1877F2"/>
</svg>
