<svg width="24" height="24" viewBox="0 0 24 24" fill="none" xmlns="http://www.w3.org/2000/svg">
<path fill-rule="evenodd" clip-rule="evenodd" d="M10 4H14C17.771 4 19.657 4 20.828 5.172C22 6.343 22 8.229 22 12C22 15.771 22 17.657 20.828 18.828C19.657 20 17.771 20 14 20H10C6.229 20 4.343 20 3.172 18.828C2 17.657 2 15.771 2 12C2 8.229 2 6.343 3.172 5.172C4.343 4 6.229 4 10 4ZM13.25 9C13.25 8.80109 13.329 8.61032 13.4697 8.46967C13.6103 8.32902 13.8011 8.25 14 8.25H19C19.1989 8.25 19.3897 8.32902 19.5303 8.46967C19.671 8.61032 19.75 8.80109 19.75 9C19.75 9.19891 19.671 9.38968 19.5303 9.53033C19.3897 9.67098 19.1989 9.75 19 9.75H14C13.8011 9.75 13.6103 9.67098 13.4697 9.53033C13.329 9.38968 13.25 9.19891 13.25 9ZM14.25 12C14.25 11.8011 14.329 11.6103 14.4697 11.4697C14.6103 11.329 14.8011 11.25 15 11.25H19C19.1989 11.25 19.3897 11.329 19.5303 11.4697C19.671 11.6103 19.75 11.8011 19.75 12C19.75 12.1989 19.671 12.3897 19.5303 12.5303C19.3897 12.671 19.1989 12.75 19 12.75H15C14.8011 12.75 14.6103 12.671 14.4697 12.5303C14.329 12.3897 14.25 12.1989 14.25 12ZM15.25 15C15.25 14.8011 15.329 14.6103 15.4697 14.4697C15.6103 14.329 15.8011 14.25 16 14.25H19C19.1989 14.25 19.3897 14.329 19.5303 14.4697C19.671 14.6103 19.75 14.8011 19.75 15C19.75 15.1989 19.671 15.3897 19.5303 15.5303C19.3897 15.671 19.1989 15.75 19 15.75H16C15.8011 15.75 15.6103 15.671 15.4697 15.5303C15.329 15.3897 15.25 15.1989 15.25 15ZM11 9C11 9.53043 10.7893 10.0391 10.4142 10.4142C10.0391 10.7893 9.53043 11 9 11C8.46957 11 7.96086 10.7893 7.58579 10.4142C7.21071 10.0391 7 9.53043 7 9C7 8.46957 7.21071 7.96086 7.58579 7.58579C7.96086 7.21071 8.46957 7 9 7C9.53043 7 10.0391 7.21071 10.4142 7.58579C10.7893 7.96086 11 8.46957 11 9ZM9 17C13 17 13 16.105 13 15C13 13.895 11.21 13 9 13C6.79 13 5 13.895 5 15C5 16.105 5 17 9 17Z" fill="#1877F2"/>
</svg>
