<svg width="24" height="24" viewBox="0 0 24 24" fill="none" xmlns="http://www.w3.org/2000/svg">
<path d="M2 5.00012C2 4.05712 2 3.58612 2.293 3.29312C2.586 3.00012 3.057 3.00012 4 3.00012H20C20.943 3.00012 21.414 3.00012 21.707 3.29312C22 3.58612 22 4.05712 22 5.00012C22 5.94312 22 6.41412 21.707 6.70712C21.414 7.00012 20.943 7.00012 20 7.00012H4C3.057 7.00012 2.586 7.00012 2.293 6.70712C2 6.41412 2 5.94312 2 5.00012Z" fill="#1877F2"/>
<path fill-rule="evenodd" clip-rule="evenodd" d="M20.069 8.50012C20.21 8.50012 20.355 8.50012 20.5 8.49812V13.0001C20.5 16.7711 20.5 18.6571 19.328 19.8281C18.157 21.0001 16.271 21.0001 12.5 21.0001H11.5C7.729 21.0001 5.843 21.0001 4.672 19.8281C3.5 18.6571 3.5 16.7711 3.5 13.0001V8.49812C3.645 8.50012 3.79 8.50012 3.931 8.50012H20.069ZM9 12.0001C9 11.5341 9 11.3011 9.076 11.1171C9.17749 10.8722 9.37208 10.6776 9.617 10.5761C9.801 10.5001 10.034 10.5001 10.5 10.5001H13.5C13.966 10.5001 14.199 10.5001 14.383 10.5761C14.6275 10.6778 14.8217 10.8724 14.923 11.1171C15 11.3011 15 11.5341 15 12.0001C15 12.4661 15 12.6991 14.924 12.8831C14.8223 13.1277 14.6277 13.3219 14.383 13.4231C14.199 13.5001 13.966 13.5001 13.5 13.5001H10.5C10.034 13.5001 9.801 13.5001 9.617 13.4241C9.37246 13.3224 9.17826 13.1278 9.077 12.8831C9 12.6991 9 12.4661 9 12.0001Z" fill="#1877F2"/>
</svg>
