<svg width="24" height="24" viewBox="0 0 24 24" fill="none" xmlns="http://www.w3.org/2000/svg">
<path opacity="0.5" d="M2 13.662V9.775C2 6.11 2 4.277 3.172 3.139C4.343 2 6.239 2 10.03 2C10.621 2 11.098 2 11.5 2.015L11.51 2.259L11.5 5.008V5.188C11.5 6.247 11.503 7.183 11.605 7.943C11.719 8.79 11.98 9.637 12.672 10.328C13.362 11.019 14.21 11.281 15.057 11.395C15.838 11.5 16.808 11.5 17.905 11.5H21.957C21.97 11.655 21.979 11.821 21.985 12H21.993C22 12.357 22 12.765 22 13.238V14.344L21.988 14.35C21.8974 14.3958 21.8084 14.4445 21.721 14.496C21.2096 14.8254 20.6143 15.0005 20.006 15.0005C19.3977 15.0005 18.8024 14.8254 18.291 14.496C17.9076 14.249 17.4611 14.1177 17.005 14.1177C16.5489 14.1177 16.1024 14.249 15.719 14.496C15.2076 14.8254 14.6123 15.0005 14.004 15.0005C13.3957 15.0005 12.8004 14.8254 12.289 14.496C11.9056 14.249 11.4591 14.1177 11.003 14.1177C10.5469 14.1177 10.1004 14.249 9.717 14.496C9.20565 14.8254 8.61026 15.0005 8.002 15.0005C7.39374 15.0005 6.79835 14.8254 6.287 14.496C5.90355 14.249 5.4571 14.1177 5.001 14.1177C4.5449 14.1177 4.09845 14.249 3.715 14.496C3.577 14.584 3.509 14.629 3.459 14.654C3.073 14.848 2.442 14.681 2 14.364V13.662Z" fill="#1877F2"/>
<path d="M11.51 2.26L11.5 5.095C11.5 6.192 11.5 7.161 11.605 7.943C11.719 8.79 11.98 9.637 12.672 10.328C13.362 11.019 14.21 11.281 15.057 11.395C15.838 11.5 16.808 11.5 17.905 11.5H21.957C21.97 11.655 21.979 11.821 21.985 12H22C22 11.732 22 11.598 21.99 11.44C21.913 10.4898 21.5821 9.57764 21.032 8.799C20.938 8.671 20.874 8.59501 20.747 8.44201C19.954 7.49401 18.91 6.312 18 5.5C17.19 4.776 16.079 3.985 15.11 3.338C14.278 2.783 13.862 2.505 13.291 2.298C13.1249 2.23891 12.956 2.18785 12.785 2.145C12.401 2.05 12.027 2.017 11.5 2.005L11.51 2.26Z" fill="#1877F2"/>
<path d="M10 22H14C17.771 22 19.657 22 20.829 21.067C21.925 20.193 21.995 18.821 22 16.186L21.988 16.191C21.8979 16.2285 21.8088 16.2685 21.721 16.311C20.682 16.861 19.329 16.861 18.291 16.311C17.893 16.1072 17.4522 16.001 17.005 16.001C16.5578 16.001 16.117 16.1072 15.719 16.311C14.68 16.861 13.327 16.861 12.289 16.311C11.8908 16.1071 11.4499 16.0007 11.0025 16.0007C10.5551 16.0007 10.1142 16.1071 9.716 16.311C8.678 16.861 7.326 16.861 6.286 16.311C5.88795 16.1072 5.44718 16.001 5 16.001C4.55282 16.001 4.11205 16.1072 3.714 16.311C3.63043 16.3568 3.54538 16.3998 3.459 16.44C3.073 16.599 2.442 16.462 2 16.202C2.005 18.827 2.077 20.195 3.171 21.067C4.343 22 6.23 22 10 22Z" fill="#1877F2"/>
</svg>
