<svg width="24" height="24" viewBox="0 0 24 24" fill="none" xmlns="http://www.w3.org/2000/svg">
<path fill-rule="evenodd" clip-rule="evenodd" d="M9.99979 2.25C9.66848 2.24984 9.34393 2.34373 9.06388 2.52075C8.78383 2.69777 8.55978 2.95066 8.41779 3.25C7.73379 3.256 7.20179 3.287 6.72579 3.473C6.15756 3.69527 5.66338 4.07301 5.29979 4.563C4.93279 5.056 4.75979 5.69 4.52379 6.561L4.47679 6.731L3.96379 9.695C3.77879 9.823 3.61779 9.975 3.47779 10.154C2.57679 11.307 3.00579 13.024 3.86379 16.455C4.40879 18.638 4.68179 19.729 5.49579 20.365C6.30979 21 7.43479 21 9.68479 21H14.3148C16.5648 21 17.6898 21 18.5038 20.365C19.3178 19.729 19.5898 18.638 20.1358 16.455C20.9938 13.023 21.4228 11.308 20.5218 10.154C20.3841 9.97656 20.2198 9.8214 20.0348 9.694L19.5218 6.732L19.4758 6.562C19.2388 5.69 19.0658 5.056 18.6998 4.562C18.3361 4.07238 17.8419 3.695 17.2738 3.473C16.7978 3.287 16.2648 3.256 15.5818 3.251C15.4399 2.95147 15.216 2.69838 14.9359 2.52117C14.6558 2.34396 14.3312 2.24993 13.9998 2.25H9.99979ZM18.4178 9.146L18.0558 7.058C17.7728 6.018 17.6698 5.691 17.4958 5.457C17.3 5.19311 17.0338 4.98968 16.7278 4.87C16.5078 4.784 16.2418 4.759 15.5798 4.752C15.4377 5.05066 15.2138 5.30293 14.9342 5.47956C14.6545 5.6562 14.3305 5.74996 13.9998 5.75H9.99979C9.66903 5.74996 9.34506 5.6562 9.06542 5.47956C8.78578 5.30293 8.56192 5.05066 8.41979 4.752C7.75679 4.759 7.49179 4.784 7.27179 4.87C6.96575 4.98968 6.6996 5.19311 6.50379 5.457C6.32979 5.691 6.22679 6.017 5.94379 7.057L5.58179 9.146C6.57979 9 7.90979 9 9.68479 9H14.3148C16.0898 9 17.4198 9 18.4178 9.146ZM7.99979 12.25C8.1987 12.25 8.38947 12.329 8.53012 12.4697C8.67077 12.6103 8.74979 12.8011 8.74979 13V17C8.74979 17.1989 8.67077 17.3897 8.53012 17.5303C8.38947 17.671 8.1987 17.75 7.99979 17.75C7.80088 17.75 7.61011 17.671 7.46946 17.5303C7.32881 17.3897 7.24979 17.1989 7.24979 17V13C7.24979 12.8011 7.32881 12.6103 7.46946 12.4697C7.61011 12.329 7.80088 12.25 7.99979 12.25ZM16.7498 13C16.7498 12.8011 16.6708 12.6103 16.5301 12.4697C16.3895 12.329 16.1987 12.25 15.9998 12.25C15.8009 12.25 15.6101 12.329 15.4695 12.4697C15.3288 12.6103 15.2498 12.8011 15.2498 13V17C15.2498 17.1989 15.3288 17.3897 15.4695 17.5303C15.6101 17.671 15.8009 17.75 15.9998 17.75C16.1987 17.75 16.3895 17.671 16.5301 17.5303C16.6708 17.3897 16.7498 17.1989 16.7498 17V13ZM11.9998 12.25C12.1987 12.25 12.3895 12.329 12.5301 12.4697C12.6708 12.6103 12.7498 12.8011 12.7498 13V17C12.7498 17.1989 12.6708 17.3897 12.5301 17.5303C12.3895 17.671 12.1987 17.75 11.9998 17.75C11.8009 17.75 11.6101 17.671 11.4695 17.5303C11.3288 17.3897 11.2498 17.1989 11.2498 17V13C11.2498 12.8011 11.3288 12.6103 11.4695 12.4697C11.6101 12.329 11.8009 12.25 11.9998 12.25Z" fill="#1877F2"/>
</svg>
