<svg width="20" height="21" viewBox="0 0 20 21" fill="none" xmlns="http://www.w3.org/2000/svg">
<g id="icons/solid/ic-solar:pen-bold">
<path id="primary-shape" d="M9.50018 15.6259L15.6635 9.46256C14.6266 9.02963 13.6848 8.39708 12.8918 7.6009C12.0953 6.80774 11.4625 5.86571 11.0293 4.8284L4.86601 10.9917C4.38518 11.4726 4.14435 11.7134 3.93768 11.9784C3.6936 12.2911 3.48431 12.6295 3.31351 12.9876C3.16935 13.2909 3.06185 13.6142 2.84685 14.2592L1.71185 17.6617C1.65961 17.8175 1.65186 17.9848 1.68947 18.1447C1.72707 18.3047 1.80855 18.451 1.92474 18.5672C2.04093 18.6834 2.18722 18.7648 2.34717 18.8024C2.50712 18.8401 2.67439 18.8323 2.83018 18.7801L6.23268 17.6451C6.87851 17.4301 7.20101 17.3226 7.50435 17.1784C7.86268 17.0076 8.20101 16.7984 8.51351 16.5542C8.77851 16.3476 9.01935 16.1067 9.50018 15.6259ZM17.3735 7.75256C17.988 7.13804 18.3333 6.30456 18.3333 5.43548C18.3333 4.56641 17.988 3.73293 17.3735 3.1184C16.759 2.50387 15.9255 2.15863 15.0564 2.15863C14.1874 2.15863 13.3539 2.50387 12.7393 3.1184L12.0002 3.85756L12.0318 3.95006C12.3961 4.99233 12.9922 5.93832 13.7752 6.71673C14.5769 7.52315 15.556 8.13099 16.6343 8.49173L17.3735 7.75256Z" fill="#3D59A6"/>
</g>
</svg>
