<svg width="20" height="21" viewBox="0 0 20 21" fill="none" xmlns="http://www.w3.org/2000/svg">
<g id="icons/solid/ic-solar:unlock-bold">
<path id="primary-shape" d="M5.62435 7.16669C5.62435 4.75044 7.5831 2.79169 9.99935 2.79169C12.0371 2.79169 13.7508 4.18537 14.2366 6.07247C14.3226 6.40676 14.6633 6.608 14.9976 6.52196C15.3319 6.43592 15.5331 6.09518 15.4471 5.7609C14.8227 3.33493 12.6212 1.54169 9.99935 1.54169C6.89275 1.54169 4.37435 4.06009 4.37435 7.16669V8.87886C3.44539 8.94824 2.84044 9.12339 2.39825 9.56559C1.66602 10.2978 1.66602 11.4763 1.66602 13.8334C1.66602 16.1904 1.66602 17.3689 2.39825 18.1011C3.13048 18.8334 4.30899 18.8334 6.66602 18.8334H13.3327C15.6897 18.8334 16.8682 18.8334 17.6005 18.1011C18.3327 17.3689 18.3327 16.1904 18.3327 13.8334C18.3327 11.4763 18.3327 10.2978 17.6005 9.56559C16.8682 8.83335 15.6897 8.83335 13.3327 8.83335H6.66602C6.28975 8.83335 5.94353 8.83335 5.62435 8.83633V7.16669Z" fill="#637381"/>
</g>
</svg>
