<svg width="24" height="24" viewBox="0 0 24 24" fill="none" xmlns="http://www.w3.org/2000/svg">
<path opacity="0.4" d="M15.48 3H7.52C4.07 3 2 5.06 2 8.52V16.47C2 19.94 4.07 22 7.52 22H15.47C18.93 22 20.99 19.94 20.99 16.48V8.52C21 5.06 18.93 3 15.48 3Z" fill="#292D32"/>
<path d="M21.0201 2.98C19.2301 1.18 17.4801 1.14 15.6401 2.98L14.5101 4.1C14.4101 4.2 14.3801 4.34 14.4201 4.47C15.1201 6.92 17.0801 8.88 19.5301 9.58C19.5601 9.59 19.6101 9.59 19.6401 9.59C19.7401 9.59 19.8401 9.55 19.9101 9.48L21.0201 8.36C21.9301 7.45 22.3801 6.58 22.3801 5.69C22.3801 4.79 21.9301 3.9 21.0201 2.98Z" fill="#292D32"/>
<path d="M17.8601 10.42C17.5901 10.29 17.3301 10.16 17.0901 10.01C16.8901 9.89 16.6901 9.76 16.5001 9.62C16.3401 9.52 16.1601 9.37 15.9801 9.22C15.9601 9.21 15.9001 9.16 15.8201 9.08C15.5101 8.83 15.1801 8.49 14.8701 8.12C14.8501 8.1 14.7901 8.04 14.7401 7.95C14.6401 7.84 14.4901 7.65 14.3601 7.44C14.2501 7.3 14.1201 7.1 14.0001 6.89C13.8501 6.64 13.7201 6.39 13.6001 6.13C13.4701 5.85 13.3701 5.59 13.2801 5.34L7.9001 10.72C7.5501 11.07 7.2101 11.73 7.1401 12.22L6.7101 15.2C6.6201 15.83 6.7901 16.42 7.1801 16.81C7.5101 17.14 7.9601 17.31 8.4601 17.31C8.5701 17.31 8.6801 17.3 8.7901 17.29L11.7601 16.87C12.2501 16.8 12.9101 16.47 13.2601 16.11L18.6401 10.73C18.3901 10.65 18.1401 10.54 17.8601 10.42Z" fill="#292D32"/>
</svg>
