<svg width="24" height="24" viewBox="0 0 24 24" fill="none" xmlns="http://www.w3.org/2000/svg">
<path fill-rule="evenodd" clip-rule="evenodd" d="M13.97 6.47001C14.1106 6.32956 14.3012 6.25067 14.5 6.25067C14.6988 6.25067 14.8894 6.32956 15.03 6.47001L20.03 11.47C20.1705 11.6106 20.2493 11.8013 20.2493 12C20.2493 12.1988 20.1705 12.3894 20.03 12.53L15.03 17.53C14.9613 17.6037 14.8785 17.6628 14.7865 17.7038C14.6945 17.7448 14.5952 17.7668 14.4945 17.7686C14.3938 17.7704 14.2938 17.7519 14.2004 17.7141C14.107 17.6764 14.0222 17.6203 13.951 17.549C13.8797 17.4778 13.8236 17.393 13.7859 17.2996C13.7482 17.2062 13.7296 17.1062 13.7314 17.0055C13.7332 16.9048 13.7552 16.8055 13.7962 16.7135C13.8372 16.6215 13.8963 16.5387 13.97 16.47L17.69 12.75H9.5C8.787 12.75 7.7 12.97 6.813 13.609C5.965 14.219 5.25 15.244 5.25 17C5.25 17.1989 5.17098 17.3897 5.03033 17.5303C4.88968 17.671 4.69891 17.75 4.5 17.75C4.30109 17.75 4.11032 17.671 3.96967 17.5303C3.82902 17.3897 3.75 17.1989 3.75 17C3.75 14.756 4.702 13.28 5.937 12.391C7.133 11.53 8.547 11.25 9.5 11.25H17.69L13.97 7.53001C13.8295 7.38939 13.7507 7.19876 13.7507 7.00001C13.7507 6.80126 13.8295 6.61064 13.97 6.47001Z" fill="#1877F2"/>
</svg>
