<svg width="24" height="24" viewBox="0 0 24 24" fill="none" xmlns="http://www.w3.org/2000/svg">
<path opacity="0.5" d="M10.221 20H12.858C15.085 20 16.199 20 17.128 19.499C18.058 18.997 18.648 18.079 19.829 16.24L20.51 15.18C21.503 13.634 22 12.86 22 12C22 11.14 21.503 10.366 20.51 8.82L19.83 7.76C18.649 5.922 18.059 5.003 17.129 4.501C16.199 4 15.085 4 12.858 4H10.221C6.346 4 4.408 4 3.204 5.172C2 6.343 2 8.229 2 12C2 15.771 2 17.657 3.204 18.828C4.408 20 6.347 20 10.221 20Z" fill="#1877F2"/>
<path d="M7 7.05502C7.414 7.05502 7.75 7.37102 7.75 7.76102V16.236C7.75 16.626 7.414 16.942 7 16.942C6.586 16.942 6.25 16.626 6.25 16.236V7.76002C6.25 7.37002 6.586 7.05502 7 7.05502Z" fill="#1877F2"/>
</svg>
