<svg width="24" height="24" viewBox="0 0 24 24" fill="none" xmlns="http://www.w3.org/2000/svg">
<path fill-rule="evenodd" clip-rule="evenodd" d="M9.01061 3.98963C9.29248 4.29315 9.27494 4.7677 8.97142 5.04957L3.75543 9.89356C3.75543 9.89356 3.75544 9.89355 3.75543 9.89356C3.42987 10.1959 3.17202 10.5638 2.99885 10.973C2.82568 11.3821 2.74112 11.8234 2.75074 12.2676C2.76035 12.7118 2.86391 13.1489 3.05462 13.5502C3.24532 13.9515 3.51884 14.3079 3.85718 14.5959L8.94626 18.929C9.26164 19.1975 9.29963 19.6708 9.0311 19.9862C8.76257 20.3016 8.28921 20.3396 7.97383 20.0711L2.88491 15.7381C2.38531 15.3129 1.98142 14.7866 1.69981 14.194C1.41821 13.6014 1.26528 12.9559 1.25109 12.3C1.23689 11.6441 1.36176 10.9926 1.61746 10.3884C1.87317 9.78414 2.25392 9.24093 2.73467 8.79445L7.95068 3.95044C8.25419 3.66857 8.72874 3.68612 9.01061 3.98963ZM11.765 4.15426C12.0217 3.98478 12.4883 3.73837 13.0114 3.97241L13.0133 3.97328C13.5357 4.20878 13.6616 4.72102 13.7055 5.02575C13.7502 5.33601 13.7501 5.74115 13.7501 6.17532C13.7501 6.1925 13.75 6.20973 13.75 6.227V7.84921C15.2477 7.96547 16.9288 8.44238 18.4362 9.51986C18.7732 9.76073 18.8511 10.2292 18.6102 10.5661C18.3693 10.9031 17.9009 10.981 17.5639 10.7401C16.1029 9.69577 14.422 9.32 13 9.32C12.5858 9.32 12.25 8.98422 12.25 8.57V6.227C12.25 6.00634 12.2497 5.82605 12.247 5.67716C12.1337 5.77416 11.9985 5.89381 11.8333 6.04061M11.8333 6.04061L7.86157 9.57034C7.06082 10.2827 6.52003 10.7658 6.16969 11.1775C5.83316 11.5729 5.76005 11.8036 5.76005 12C5.76005 12.1971 5.83334 12.4281 6.16969 12.8233C6.51996 13.2348 7.06041 13.7174 7.8612 14.4293C7.86114 14.4293 7.86125 14.4294 7.8612 14.4293L11.8342 17.9593C11.9989 18.1058 12.1341 18.2256 12.247 18.3226C12.2497 18.1738 12.25 17.9936 12.25 17.773V15.429C12.25 15.0148 12.5858 14.679 13 14.679C14.9126 14.679 16.9001 15.1329 18.616 15.9689C19.5348 16.4165 20.3901 16.9811 21.116 17.6568C20.9603 16.3715 20.6766 15.2796 20.3043 14.3552C20.1496 13.9709 20.3357 13.534 20.7199 13.3793C21.1041 13.2246 21.541 13.4106 21.6958 13.7948C22.3612 15.4473 22.75 17.4925 22.75 20C22.75 20.3451 22.5146 20.6456 22.1796 20.7282C21.8446 20.8108 21.4964 20.6542 21.336 20.3486C20.6803 19.0997 19.472 18.0545 17.9591 17.3174C16.6725 16.6905 15.2016 16.3051 13.75 16.2051V17.773C13.75 17.7903 13.7501 17.8076 13.7501 17.8248C13.7501 18.2594 13.7502 18.6645 13.7055 18.9747C13.6616 19.2798 13.5354 19.7914 13.0133 20.0267C12.4892 20.263 12.0212 20.0155 11.7647 19.8458C11.5038 19.6733 11.2016 19.4044 10.878 19.1163C10.8645 19.1044 10.8511 19.0924 10.8375 19.0803L6.8649 15.5507L6.81936 15.5102C6.07252 14.8463 5.45302 14.2956 5.0274 13.7955C4.57925 13.2689 4.26005 12.7019 4.26005 12C4.26005 11.2984 4.57944 10.7316 5.0274 10.2053C5.45253 9.70578 6.07117 9.15543 6.81702 8.49193L10.8368 4.9194C10.8497 4.90799 10.8626 4.89652 10.8754 4.88516C11.2004 4.59632 11.5034 4.32702 11.765 4.15426" fill="#1877F2"/>
</svg>
