<svg width="24" height="24" viewBox="0 0 24 24" fill="none" xmlns="http://www.w3.org/2000/svg">
<path opacity="0.5" d="M5.00007 6.25C4.84671 6.24989 4.69699 6.29679 4.57111 6.38439C4.44523 6.47199 4.34923 6.59608 4.29605 6.73993C4.24287 6.88378 4.23506 7.04047 4.27369 7.18889C4.31231 7.33731 4.39551 7.47033 4.51207 7.57L11.5121 13.57C11.7921 13.81 12.2071 13.81 12.4881 13.57L19.4881 7.57C19.6046 7.47033 19.6878 7.33731 19.7265 7.18889C19.7651 7.04047 19.7573 6.88378 19.7041 6.73993C19.6509 6.59608 19.5549 6.47199 19.429 6.38439C19.3031 6.29679 19.1534 6.24989 19.0001 6.25H5.00007Z" fill="#1877F2"/>
<path fill-rule="evenodd" clip-rule="evenodd" d="M4.42993 10.512C4.49406 10.4372 4.57231 10.3757 4.6602 10.3312C4.74808 10.2866 4.84389 10.2598 4.94215 10.2522C5.04041 10.2447 5.13918 10.2566 5.23283 10.2873C5.32648 10.318 5.41316 10.3668 5.48793 10.431L11.9999 16.012L18.5119 10.431C18.5866 10.3661 18.6734 10.3167 18.7673 10.2855C18.8611 10.2543 18.9602 10.242 19.0589 10.2492C19.1575 10.2565 19.2538 10.2832 19.3421 10.3278C19.4303 10.3724 19.5089 10.4341 19.5733 10.5092C19.6377 10.5843 19.6865 10.6714 19.7171 10.7655C19.7477 10.8596 19.7593 10.9588 19.7514 11.0574C19.7434 11.156 19.7161 11.252 19.6709 11.34C19.6257 11.428 19.5635 11.5061 19.4879 11.57L12.4879 17.57C12.352 17.6865 12.1789 17.7505 11.9999 17.7505C11.8209 17.7505 11.6479 17.6865 11.5119 17.57L4.51193 11.57C4.43711 11.5059 4.37566 11.4276 4.33109 11.3397C4.28652 11.2518 4.25971 11.156 4.25219 11.0578C4.24467 10.9595 4.25658 10.8607 4.28725 10.7671C4.31792 10.6735 4.36675 10.5868 4.43094 10.512H4.42993Z" fill="#1877F2"/>
</svg>
