<svg width="24" height="24" viewBox="0 0 24 24" fill="none" xmlns="http://www.w3.org/2000/svg">
<path opacity="0.5" d="M5.00007 17.75C4.84671 17.7501 4.69699 17.7032 4.57111 17.6156C4.44523 17.528 4.34923 17.4039 4.29605 17.2601C4.24287 17.1162 4.23506 16.9595 4.27369 16.8111C4.31231 16.6627 4.39551 16.5297 4.51207 16.43L11.5121 10.43C11.648 10.3135 11.8211 10.2495 12.0001 10.2495C12.1791 10.2495 12.3521 10.3135 12.4881 10.43L19.4881 16.43C19.6046 16.5297 19.6878 16.6627 19.7265 16.8111C19.7651 16.9595 19.7573 17.1162 19.7041 17.2601C19.6509 17.4039 19.5549 17.528 19.429 17.6156C19.3031 17.7032 19.1534 17.7501 19.0001 17.75H5.00007Z" fill="#1877F2"/>
<path fill-rule="evenodd" clip-rule="evenodd" d="M4.42993 13.488C4.49406 13.5628 4.5723 13.6243 4.66019 13.6688C4.74808 13.7134 4.84389 13.7402 4.94215 13.7477C5.0404 13.7553 5.13918 13.7434 5.23283 13.7127C5.32647 13.682 5.41316 13.6332 5.48793 13.569L11.9999 7.988L18.5119 13.569C18.5861 13.6369 18.6731 13.6892 18.7679 13.7228C18.8627 13.7564 18.9632 13.7706 19.0636 13.7645C19.1639 13.7585 19.2621 13.7323 19.3521 13.6876C19.4422 13.6428 19.5223 13.5805 19.5877 13.5041C19.6532 13.4278 19.7026 13.3391 19.7331 13.2433C19.7636 13.1475 19.7745 13.0465 19.7652 12.9464C19.7559 12.8463 19.7266 12.7491 19.6789 12.6605C19.6313 12.572 19.5663 12.4939 19.4879 12.431L12.4879 6.431C12.352 6.31453 12.1789 6.25052 11.9999 6.25052C11.8209 6.25052 11.6479 6.31453 11.5119 6.431L4.51193 12.431C4.36112 12.5605 4.26787 12.7445 4.25268 12.9427C4.23749 13.1409 4.30161 13.337 4.43093 13.488H4.42993Z" fill="#1877F2"/>
</svg>
