<svg width="24" height="24" viewBox="0 0 24 24" fill="none" xmlns="http://www.w3.org/2000/svg">
<path d="M22 8.16211V8.23511C22 9.09511 22 9.52611 21.793 9.87811C21.586 10.2301 21.209 10.4391 20.457 10.8581L19.664 11.2981C20.21 9.45011 20.393 7.46411 20.46 5.76611L20.47 5.54511L20.472 5.49311C21.123 5.71911 21.489 5.88811 21.717 6.20411C22 6.59711 22 7.11911 22 8.16211ZM2 8.16211V8.23511C2 9.09511 2 9.52611 2.207 9.87811C2.414 10.2301 2.791 10.4391 3.543 10.8581L4.337 11.2981C3.79 9.45011 3.607 7.46411 3.54 5.76611L3.53 5.54511L3.529 5.49311C2.877 5.71911 2.511 5.88811 2.283 6.20411C2 6.59711 2 7.12011 2 8.16211Z" fill="#1877F2"/>
<path fill-rule="evenodd" clip-rule="evenodd" d="M12 2.00011C13.784 2.00011 15.253 2.15711 16.377 2.34711C17.516 2.53911 18.085 2.63511 18.561 3.22111C19.037 3.80711 19.011 4.44011 18.961 5.70611C18.789 10.0551 17.851 15.4861 12.75 15.9661V19.5001H14.18C14.4111 19.5003 14.635 19.5804 14.8137 19.727C14.9923 19.8736 15.1147 20.0775 15.16 20.3041L15.35 21.2501H18C18.1989 21.2501 18.3897 21.3291 18.5303 21.4698C18.671 21.6104 18.75 21.8012 18.75 22.0001C18.75 22.199 18.671 22.3898 18.5303 22.5304C18.3897 22.6711 18.1989 22.7501 18 22.7501H6C5.80109 22.7501 5.61032 22.6711 5.46967 22.5304C5.32902 22.3898 5.25 22.199 5.25 22.0001C5.25 21.8012 5.32902 21.6104 5.46967 21.4698C5.61032 21.3291 5.80109 21.2501 6 21.2501H8.65L8.84 20.3041C8.88529 20.0775 9.00768 19.8736 9.18634 19.727C9.365 19.5804 9.58891 19.5003 9.82 19.5001H11.25V15.9661C6.15 15.4861 5.212 10.0541 5.04 5.70611C4.989 4.44011 4.964 3.80611 5.44 3.22111C5.915 2.63511 6.484 2.53911 7.623 2.34711C9.06982 2.10999 10.5339 1.99392 12 2.00011ZM12.952 6.19911L12.854 6.02311C12.474 5.34011 12.284 5.00011 12 5.00011C11.716 5.00011 11.526 5.34011 11.146 6.02311L11.048 6.19911C10.94 6.39311 10.886 6.48911 10.802 6.55311C10.717 6.61711 10.612 6.64111 10.402 6.68811L10.212 6.73211C9.474 6.89911 9.105 6.98211 9.017 7.26411C8.929 7.54711 9.181 7.84111 9.684 8.42911L9.814 8.58111C9.957 8.74811 10.029 8.83111 10.061 8.93511C10.093 9.03911 10.082 9.15011 10.061 9.37311L10.041 9.57611C9.965 10.3611 9.927 10.7541 10.156 10.9281C10.386 11.1021 10.732 10.9431 11.423 10.6251L11.601 10.5431C11.798 10.4531 11.896 10.4081 12 10.4081C12.104 10.4081 12.202 10.4531 12.399 10.5431L12.577 10.6251C13.268 10.9441 13.614 11.1021 13.844 10.9281C14.074 10.7541 14.035 10.3611 13.959 9.57611L13.939 9.37311C13.918 9.15011 13.907 9.03911 13.939 8.93511C13.971 8.83211 14.043 8.74811 14.186 8.58111L14.316 8.42911C14.819 7.84111 15.071 7.54711 14.983 7.26411C14.895 6.98211 14.526 6.89911 13.788 6.73211L13.598 6.68811C13.388 6.64111 13.283 6.61811 13.198 6.55311C13.114 6.48911 13.06 6.39311 12.952 6.19911Z" fill="#1877F2"/>
</svg>
