<svg width="24" height="24" viewBox="0 0 24 24" fill="none" xmlns="http://www.w3.org/2000/svg">
<g opacity="0.4">
<path d="M22 9.75C21.59 9.75 21.25 9.41 21.25 9V7C21.25 4.42 19.58 2.75 17 2.75H7C4.42 2.75 2.75 4.42 2.75 7V9C2.75 9.41 2.41 9.75 2 9.75C1.59 9.75 1.25 9.41 1.25 9V7C1.25 3.56 3.56 1.25 7 1.25H17C20.44 1.25 22.75 3.56 22.75 7V9C22.75 9.41 22.41 9.75 22 9.75Z" fill="#292D32"/>
<path d="M17 22.75H7C3.56 22.75 1.25 20.44 1.25 17V15C1.25 14.59 1.59 14.25 2 14.25C2.41 14.25 2.75 14.59 2.75 15V17C2.75 19.58 4.42 21.25 7 21.25H17C19.58 21.25 21.25 19.58 21.25 17V15C21.25 14.59 21.59 14.25 22 14.25C22.41 14.25 22.75 14.59 22.75 15V17C22.75 20.44 20.44 22.75 17 22.75Z" fill="#292D32"/>
</g>
<path d="M16.4002 8.21005L12.6402 6.18002C12.2402 5.97002 11.7702 5.97002 11.3702 6.18002L7.61023 8.21005C7.34023 8.36005 7.17023 8.65001 7.17023 8.98001C7.17023 9.31001 7.34023 9.60003 7.61023 9.75003L11.3702 11.7801C11.5702 11.8901 11.7902 11.94 12.0102 11.94C12.2302 11.94 12.4502 11.8901 12.6502 11.7801L16.4102 9.75003C16.6802 9.60003 16.8502 9.31001 16.8502 8.98001C16.8402 8.65001 16.6702 8.36005 16.4002 8.21005Z" fill="#292D32"/>
<path d="M10.7402 12.47L7.24023 10.72C6.97023 10.59 6.66022 10.6 6.40022 10.76C6.14022 10.92 5.99023 11.19 5.99023 11.49V14.8C5.99023 15.37 6.31024 15.89 6.82024 16.14L10.3202 17.89C10.4402 17.95 10.5702 17.98 10.7102 17.98C10.8702 17.98 11.0202 17.94 11.1602 17.85C11.4202 17.69 11.5702 17.42 11.5702 17.12V13.81C11.5702 13.24 11.2602 12.73 10.7402 12.47Z" fill="#292D32"/>
<path d="M17.5902 10.76C17.3302 10.6 17.0202 10.59 16.7502 10.72L13.2502 12.47C12.7402 12.73 12.4202 13.24 12.4202 13.81V17.12C12.4202 17.42 12.5702 17.69 12.8302 17.85C12.9702 17.94 13.1202 17.98 13.2802 17.98C13.4102 17.98 13.5402 17.95 13.6702 17.89L17.1702 16.14C17.6802 15.88 18.0002 15.37 18.0002 14.8V11.49C18.0002 11.19 17.8502 10.92 17.5902 10.76Z" fill="#292D32"/>
</svg>
