<svg width="24" height="24" viewBox="0 0 24 24" fill="none" xmlns="http://www.w3.org/2000/svg">
<path d="M22 12.6981C21.998 14.1681 21.987 15.4161 21.904 16.4411C21.807 17.6311 21.608 18.6251 21.164 19.4501C20.9702 19.8118 20.7243 20.1431 20.434 20.4331C19.601 21.2661 18.541 21.6431 17.197 21.8231C15.884 22.0001 14.2 22.0001 12.053 22.0001H11.947C9.799 22.0001 8.117 22.0001 6.803 21.8231C5.46 21.6431 4.399 21.2661 3.567 20.4331C2.829 19.6951 2.447 18.7771 2.245 17.6381C2.045 16.5181 2.009 15.1261 2.002 13.3971C2 12.9571 2 12.4921 2 12.0001V11.9461C2 9.79812 2 8.11612 2.177 6.80212C2.357 5.45912 2.734 4.39812 3.567 3.56612C4.399 2.73312 5.46 2.35612 6.803 2.17612C7.971 2.01912 9.473 2.00112 11.302 1.99912C11.4871 1.99912 11.6647 2.07266 11.7956 2.20356C11.9265 2.33446 12 2.512 12 2.69712C12 2.88224 11.9265 3.05978 11.7956 3.19068C11.6647 3.32158 11.4871 3.39512 11.302 3.39512C9.447 3.39712 8.068 3.41312 6.989 3.55812C5.8 3.71812 5.083 4.02212 4.553 4.55212C4.023 5.08212 3.72 5.80012 3.56 6.99012C3.397 8.20012 3.395 9.78812 3.395 12.0001V12.7841L4.327 11.9701C4.73553 11.6127 5.26462 11.4239 5.80715 11.4419C6.34967 11.4599 6.86508 11.6834 7.249 12.0671L11.239 16.0571C11.5486 16.3669 11.9575 16.5575 12.3938 16.5953C12.83 16.6332 13.2657 16.5159 13.624 16.2641L13.902 16.0691C14.4188 15.7059 15.0435 15.5288 15.674 15.5667C16.3046 15.6047 16.9035 15.8555 17.373 16.2781L20.006 18.6481C20.271 18.0911 20.429 17.3601 20.513 16.3281C20.592 15.3561 20.603 14.1761 20.604 12.6981C20.604 12.513 20.6775 12.3355 20.8084 12.2046C20.9393 12.0737 21.1169 12.0001 21.302 12.0001C21.4871 12.0001 21.6647 12.0737 21.7956 12.2046C21.9265 12.3355 22 12.513 22 12.6981Z" fill="#1877F2"/>
<path fill-rule="evenodd" clip-rule="evenodd" d="M17.5 11.0001C15.379 11.0001 14.318 11.0001 13.659 10.3411C13 9.68212 13 8.62112 13 6.50012C13 4.37912 13 3.31812 13.659 2.65912C14.318 2.00012 15.379 2.00012 17.5 2.00012C19.621 2.00012 20.682 2.00012 21.341 2.65912C22 3.31812 22 4.37912 22 6.50012C22 8.62112 22 9.68212 21.341 10.3411C20.682 11.0001 19.621 11.0001 17.5 11.0001ZM18.25 4.50012C18.25 4.30121 18.171 4.11044 18.0303 3.96979C17.8897 3.82914 17.6989 3.75012 17.5 3.75012C17.3011 3.75012 17.1103 3.82914 16.9697 3.96979C16.829 4.11044 16.75 4.30121 16.75 4.50012V5.75012H15.5C15.3011 5.75012 15.1103 5.82914 14.9697 5.96979C14.829 6.11044 14.75 6.30121 14.75 6.50012C14.75 6.69903 14.829 6.8898 14.9697 7.03045C15.1103 7.1711 15.3011 7.25012 15.5 7.25012H16.75V8.50012C16.75 8.69903 16.829 8.8898 16.9697 9.03045C17.1103 9.1711 17.3011 9.25012 17.5 9.25012C17.6989 9.25012 17.8897 9.1711 18.0303 9.03045C18.171 8.8898 18.25 8.69903 18.25 8.50012V7.25012H19.5C19.6989 7.25012 19.8897 7.1711 20.0303 7.03045C20.171 6.8898 20.25 6.69903 20.25 6.50012C20.25 6.30121 20.171 6.11044 20.0303 5.96979C19.8897 5.82914 19.6989 5.75012 19.5 5.75012H18.25V4.50012Z" fill="#1877F2"/>
</svg>
