<svg width="20" height="21" viewBox="0 0 20 21" fill="none" xmlns="http://www.w3.org/2000/svg">
<g id="icons/solid/ic-solar:trash-bin-trash-bold">
<g id="primary-shape">
<path d="M2.5 5.81345C2.5 5.41011 2.7875 5.08261 3.1425 5.08261H5.36333C5.80417 5.06928 6.19333 4.75011 6.34333 4.27845L6.36833 4.19511L6.46417 3.86928C6.5225 3.66928 6.57333 3.49428 6.645 3.33845C6.92667 2.72261 7.44833 2.29511 8.05083 2.18595C8.20417 2.15845 8.36583 2.15845 8.55083 2.15845H11.4492C11.635 2.15845 11.7967 2.15845 11.9492 2.18595C12.5517 2.29511 13.0742 2.72261 13.355 3.33845C13.4267 3.49428 13.4775 3.66845 13.5367 3.86928L13.6317 4.19511L13.6567 4.27845C13.8067 4.75011 14.2733 5.07011 14.715 5.08261H16.8567C17.2125 5.08261 17.5 5.41011 17.5 5.81345C17.5 6.21678 17.2125 6.54428 16.8575 6.54428H3.14167C2.7875 6.54428 2.5 6.21678 2.5 5.81345Z" fill="#F41515"/>
<path fill-rule="evenodd" clip-rule="evenodd" d="M9.66333 18.8251H10.3367C12.6558 18.8251 13.815 18.8251 14.57 18.0868C15.3233 17.3484 15.4 16.1376 15.5542 13.7159L15.7767 10.2259C15.86 8.91178 15.9017 8.25428 15.5242 7.83845C15.1458 7.42178 14.5075 7.42178 13.23 7.42178H6.77C5.4925 7.42178 4.85333 7.42178 4.47583 7.83845C4.0975 8.25511 4.13917 8.91178 4.22333 10.2259L4.44583 13.7159C4.6 16.1376 4.67667 17.3493 5.43083 18.0868C6.185 18.8251 7.34417 18.8251 9.66333 18.8251ZM8.53833 10.6493C8.505 10.2876 8.19833 10.0243 7.855 10.0601C7.51083 10.0959 7.26083 10.4184 7.295 10.7801L7.71167 15.1659C7.745 15.5276 8.05167 15.7909 8.395 15.7551C8.73917 15.7193 8.98917 15.3968 8.955 15.0351L8.53833 10.6493ZM12.1458 10.0601C12.4892 10.0959 12.74 10.4184 12.705 10.7801L12.2883 15.1659C12.255 15.5276 11.9475 15.7909 11.605 15.7551C11.2608 15.7193 11.0108 15.3968 11.045 15.0351L11.4617 10.6493C11.495 10.2876 11.8033 10.0243 12.1458 10.0601Z" fill="#F41515"/>
</g>
</g>
</svg>
