<svg width="24" height="24" viewBox="0 0 24 24" fill="none" xmlns="http://www.w3.org/2000/svg">
<path fill-rule="evenodd" clip-rule="evenodd" d="M16 6.00012H8C5.172 6.00012 3.757 6.00012 2.879 6.87912C2 7.75712 2 9.17212 2 12.0001C2 14.8281 2 16.2431 2.879 17.1211C3.373 17.6161 4.037 17.8321 5.028 17.9271C5 17.2041 5 15.3521 5 14.5001C4.86739 14.5001 4.74021 14.4474 4.64645 14.3537C4.55268 14.2599 4.5 14.1327 4.5 14.0001C4.5 13.8675 4.55268 13.7403 4.64645 13.6466C4.74021 13.5528 4.86739 13.5001 5 13.5001H19C19.1326 13.5001 19.2598 13.5528 19.3536 13.6466C19.4473 13.7403 19.5 13.8675 19.5 14.0001C19.5 14.1327 19.4473 14.2599 19.3536 14.3537C19.2598 14.4474 19.1326 14.5001 19 14.5001C19 15.3521 19 17.2041 18.972 17.9271C19.962 17.8321 20.627 17.6161 21.122 17.1211C22 16.2431 22 14.8281 22 12.0001C22 9.17212 22 7.75712 21.121 6.87912C20.243 6.00012 18.828 6.00012 16 6.00012ZM9 10.7501C9.19891 10.7501 9.38968 10.6711 9.53033 10.5305C9.67098 10.3898 9.75 10.199 9.75 10.0001C9.75 9.80121 9.67098 9.61044 9.53033 9.46979C9.38968 9.32914 9.19891 9.25012 9 9.25012H6C5.80109 9.25012 5.61032 9.32914 5.46967 9.46979C5.32902 9.61044 5.25 9.80121 5.25 10.0001C5.25 10.199 5.32902 10.3898 5.46967 10.5305C5.61032 10.6711 5.80109 10.7501 6 10.7501H9ZM17 11.0001C17.2652 11.0001 17.5196 10.8948 17.7071 10.7072C17.8946 10.5197 18 10.2653 18 10.0001C18 9.73491 17.8946 9.48055 17.7071 9.29302C17.5196 9.10548 17.2652 9.00012 17 9.00012C16.7348 9.00012 16.4804 9.10548 16.2929 9.29302C16.1054 9.48055 16 9.73491 16 10.0001C16 10.2653 16.1054 10.5197 16.2929 10.7072C16.4804 10.8948 16.7348 11.0001 17 11.0001Z" fill="#1877F2"/>
<path d="M17.121 2.87912C16.242 2.00012 14.828 2.00012 12 2.00012C9.171 2.00012 7.757 2.00012 6.878 2.87912C6.386 3.37112 6.17 4.03212 6.074 5.01512C6.634 5.00012 7.252 5.00012 7.93 5.00012H16.072C16.749 5.00012 17.367 5.00012 17.926 5.01512C17.831 4.03212 17.613 3.37112 17.121 2.87912Z" fill="#1877F2"/>
<path fill-rule="evenodd" clip-rule="evenodd" d="M18 14.5001C18 17.3281 18 20.2431 17.121 21.1211C16.243 22.0001 14.828 22.0001 12 22.0001C9.172 22.0001 7.757 22.0001 6.879 21.1211C6 20.2431 6 17.3281 6 14.5001H18ZM15.75 16.7501C15.75 16.949 15.671 17.1398 15.5303 17.2805C15.3897 17.4211 15.1989 17.5001 15 17.5001H9C8.80109 17.5001 8.61032 17.4211 8.46967 17.2805C8.32902 17.1398 8.25 16.949 8.25 16.7501C8.25 16.5512 8.32902 16.3604 8.46967 16.2198C8.61032 16.0791 8.80109 16.0001 9 16.0001H15C15.1989 16.0001 15.3897 16.0791 15.5303 16.2198C15.671 16.3604 15.75 16.5512 15.75 16.7501ZM13.75 19.7501C13.75 19.949 13.671 20.1398 13.5303 20.2805C13.3897 20.4211 13.1989 20.5001 13 20.5001H9C8.80109 20.5001 8.61032 20.4211 8.46967 20.2805C8.32902 20.1398 8.25 19.949 8.25 19.7501C8.25 19.5512 8.32902 19.3604 8.46967 19.2198C8.61032 19.0791 8.80109 19.0001 9 19.0001H13C13.1989 19.0001 13.3897 19.0791 13.5303 19.2198C13.671 19.3604 13.75 19.5512 13.75 19.7501Z" fill="#1877F2"/>
</svg>
