<svg width="24" height="24" viewBox="0 0 24 24" fill="none" xmlns="http://www.w3.org/2000/svg">
<path d="M7.75 9.23999H5.5C5.09 9.23999 4.75 8.89999 4.75 8.48999C4.75 8.07999 5.09 7.73999 5.5 7.73999H7.75C8.16 7.73999 8.5 8.07999 8.5 8.48999C8.5 8.89999 8.16 9.23999 7.75 9.23999Z" fill="#292D32"/>
<path d="M5.5 12.24H8.5C8.91 12.24 9.25 11.9 9.25 11.49C9.25 11.08 8.91 10.74 8.5 10.74H5.5C5.09 10.74 4.75 11.08 4.75 11.49C4.75 11.9 5.09 12.24 5.5 12.24Z" fill="#292D32"/>
<path fill-rule="evenodd" clip-rule="evenodd" d="M11.15 21.87C11.4 22.01 11.7 22.08 12 22.08C12.3 22.08 12.59 22.02 12.83 21.88C14.66 20.87 17.96 19.78 20.02 19.51L20.35 19.47C21.67 19.31 22.75 18.09 22.75 16.75V4.68001C22.75 3.89001 22.44 3.17001 21.87 2.65001C21.31 2.13001 20.56 1.87001 19.83 1.94001H19.71C17.5 2.13001 14.18 3.25001 12.3 4.43001L12.14 4.53001C12.08 4.56001 11.93 4.56001 11.86 4.52001L11.62 4.38001C9.74 3.20001 6.42 2.10001 4.22 1.93001C3.44 1.86001 2.7 2.11001 2.13 2.63001C1.56 3.15001 1.25 3.87001 1.25 4.66001V16.74C1.25 18.07 2.33 19.3 3.64 19.46L3.93 19.5C5.99 19.77 9.28 20.85 11.15 21.87ZM3.14 3.74001C3.37 3.53001 3.66 3.42001 3.98 3.42001H4.1C6.06 3.58001 9.14 4.60001 10.85 5.65001L11.09 5.79001C11.1411 5.82186 11.1946 5.85063 11.25 5.87632V20.2421C9.21206 19.2512 6.17526 18.2927 4.13 18.02L3.83 17.98C3.26 17.9 2.75 17.33 2.75 16.74V4.66001C2.75 4.30001 2.89 3.97001 3.14 3.74001ZM19.83 18.02C17.7988 18.2896 14.7903 19.2377 12.75 20.2328V5.88465C12.8193 5.85433 12.8862 5.81946 12.95 5.78001L13.11 5.67001C14.79 4.62001 17.87 3.59001 19.78 3.42001H19.9C20.27 3.40001 20.6 3.51001 20.86 3.74001C21.11 3.98001 21.25 4.30001 21.25 4.67001V16.74C21.25 17.33 20.74 17.91 20.17 17.98L19.83 18.02Z" fill="#292D32"/>
</svg>
