<svg width="24" height="24" viewBox="0 0 24 24" fill="none" xmlns="http://www.w3.org/2000/svg">
<path fill-rule="evenodd" clip-rule="evenodd" d="M12 21.9902C17.523 21.9902 22 17.5132 22 11.9902C22 6.46723 17.523 1.99023 12 1.99023C6.477 1.99023 2 6.46723 2 11.9902C2 17.5132 6.477 21.9902 12 21.9902ZM12.75 7.99023C12.75 7.79132 12.671 7.60056 12.5303 7.4599C12.3897 7.31925 12.1989 7.24023 12 7.24023C11.8011 7.24023 11.6103 7.31925 11.4697 7.4599C11.329 7.60056 11.25 7.79132 11.25 7.99023V11.9902C11.25 12.1892 11.329 12.3802 11.47 12.5202L13.97 15.0202C14.0387 15.0939 14.1215 15.153 14.2135 15.194C14.3055 15.235 14.4048 15.257 14.5055 15.2588C14.6062 15.2606 14.7062 15.2421 14.7996 15.2044C14.893 15.1666 14.9778 15.1105 15.049 15.0393C15.1203 14.9681 15.1764 14.8832 15.2141 14.7898C15.2518 14.6964 15.2704 14.5964 15.2686 14.4957C15.2668 14.395 15.2448 14.2957 15.2038 14.2037C15.1628 14.1117 15.1037 14.0289 15.03 13.9602L12.75 11.6802V7.99023Z" fill="#1877F2"/>
</svg>
