<svg width="20" height="21" viewBox="0 0 20 21" fill="none" xmlns="http://www.w3.org/2000/svg">
<path fill-rule="evenodd" clip-rule="evenodd" d="M4.37502 8.87925V7.16675C4.37502 5.67491 4.96765 4.24416 6.02254 3.18927C7.07744 2.13438 8.50818 1.54175 10 1.54175C11.4919 1.54175 12.9226 2.13438 13.9775 3.18927C15.0324 4.24416 15.625 5.67491 15.625 7.16675V8.87925C16.5542 8.94841 17.1584 9.12341 17.6009 9.56591C18.3334 10.2976 18.3334 11.4767 18.3334 13.8334C18.3334 16.1901 18.3334 17.3692 17.6009 18.1009C16.8692 18.8334 15.69 18.8334 13.3334 18.8334H6.66669C4.31002 18.8334 3.13085 18.8334 2.39919 18.1009C1.66669 17.3692 1.66669 16.1901 1.66669 13.8334C1.66669 11.4767 1.66669 10.2976 2.39919 9.56591C2.84085 9.12341 3.44585 8.94841 4.37502 8.87925ZM5.62502 7.16675C5.62502 6.00643 6.08596 4.89363 6.90643 4.07316C7.7269 3.25268 8.8397 2.79175 10 2.79175C11.1603 2.79175 12.2731 3.25268 13.0936 4.07316C13.9141 4.89363 14.375 6.00643 14.375 7.16675V8.83675C14.0559 8.83341 13.7092 8.83341 13.3334 8.83341H6.66669C6.29002 8.83341 5.94419 8.83341 5.62502 8.83675V7.16675Z" fill="#637381"/>
</svg>
