<svg width="24" height="24" viewBox="0 0 24 24" fill="none" xmlns="http://www.w3.org/2000/svg">
<path fill-rule="evenodd" clip-rule="evenodd" d="M9.59224 3.19999C9.43496 3.3423 9.2697 3.47552 9.09724 3.59899C8.79924 3.79899 8.46424 3.93699 8.11224 4.00699C7.95924 4.03699 7.79924 4.04999 7.48024 4.07499C6.67924 4.13899 6.27824 4.17099 5.94424 4.28899C5.56234 4.42383 5.21547 4.64246 4.92909 4.92884C4.64271 5.21522 4.42408 5.56209 4.28924 5.94399C4.17124 6.27799 4.13924 6.67899 4.07524 7.47999C4.06433 7.69176 4.04163 7.90275 4.00724 8.11199C3.93724 8.46399 3.79924 8.79899 3.59924 9.09699C3.51224 9.22699 3.40824 9.34899 3.20024 9.59199C2.67924 10.204 2.41824 10.51 2.26524 10.83C1.91224 11.57 1.91224 12.43 2.26524 13.17C2.41824 13.49 2.67924 13.796 3.20024 14.408C3.40824 14.651 3.51224 14.773 3.59924 14.903C3.79924 15.201 3.93724 15.536 4.00724 15.888C4.03724 16.041 4.05024 16.201 4.07524 16.52C4.13924 17.321 4.17124 17.722 4.28924 18.056C4.42408 18.4379 4.64271 18.7848 4.92909 19.0711C5.21547 19.3575 5.56234 19.5762 5.94424 19.711C6.27824 19.829 6.67924 19.861 7.48024 19.925C7.79924 19.95 7.95924 19.963 8.11224 19.993C8.46424 20.063 8.79924 20.202 9.09724 20.401C9.22724 20.488 9.34924 20.592 9.59224 20.8C10.2042 21.321 10.5102 21.582 10.8302 21.735C11.5702 22.088 12.4302 22.088 13.1702 21.735C13.4902 21.582 13.7962 21.321 14.4082 20.8C14.6512 20.592 14.7732 20.488 14.9032 20.401C15.2012 20.201 15.5362 20.063 15.8882 19.993C16.0412 19.963 16.2012 19.95 16.5202 19.925C17.3212 19.861 17.7222 19.829 18.0562 19.711C18.4381 19.5762 18.785 19.3575 19.0714 19.0711C19.3578 18.7848 19.5764 18.4379 19.7112 18.056C19.8292 17.722 19.8612 17.321 19.9252 16.52C19.9502 16.201 19.9632 16.041 19.9932 15.888C20.0632 15.536 20.2022 15.201 20.4012 14.903C20.4882 14.773 20.5922 14.651 20.8002 14.408C21.3212 13.796 21.5822 13.49 21.7352 13.17C22.0882 12.43 22.0882 11.57 21.7352 10.83C21.5822 10.51 21.3212 10.204 20.8002 9.59199C20.6579 9.43472 20.5247 9.26945 20.4012 9.09699C20.2014 8.79888 20.0627 8.46408 19.9932 8.11199C19.9589 7.90275 19.9362 7.69176 19.9252 7.47999C19.8612 6.67899 19.8292 6.27799 19.7112 5.94399C19.5764 5.56209 19.3578 5.21522 19.0714 4.92884C18.785 4.64246 18.4381 4.42383 18.0562 4.28899C17.7222 4.17099 17.3212 4.13899 16.5202 4.07499C16.3085 4.06408 16.0975 4.04138 15.8882 4.00699C15.5362 3.93748 15.2014 3.7988 14.9032 3.59899C14.731 3.47526 14.5657 3.34205 14.4082 3.19999C13.7962 2.67899 13.4902 2.41799 13.1702 2.26499C12.8049 2.09037 12.4051 1.99974 12.0002 1.99974C11.5953 1.99974 11.1956 2.09037 10.8302 2.26499C10.5102 2.41799 10.2042 2.67899 9.59224 3.19999ZM16.3732 9.86299C16.5146 9.7083 16.5908 9.50507 16.5861 9.29559C16.5814 9.0861 16.496 8.88651 16.3479 8.73835C16.1997 8.59019 16.0001 8.50486 15.7906 8.50014C15.5812 8.49542 15.3779 8.57166 15.2232 8.71299L10.3732 13.563L8.77724 11.968C8.62255 11.8267 8.41931 11.7504 8.20983 11.7551C8.00035 11.7599 7.80076 11.8452 7.6526 11.9934C7.50443 12.1415 7.41911 12.3411 7.41439 12.5506C7.40966 12.7601 7.4859 12.9633 7.62724 13.118L9.79724 15.288C9.94984 15.4403 10.1566 15.5258 10.3722 15.5258C10.5878 15.5258 10.7946 15.4403 10.9472 15.288L16.3742 9.86299H16.3732Z" fill="#1877F2"/>
</svg>
