<svg width="24" height="24" viewBox="0 0 24 24" fill="none" xmlns="http://www.w3.org/2000/svg">
<path opacity="0.5" d="M7.245 2H16.755C17.914 2 18.493 2 18.961 2.163C19.4023 2.31939 19.8015 2.57541 20.1277 2.91118C20.454 3.24695 20.6984 3.65342 20.842 4.099C21 4.581 21 5.177 21 6.37V20.374C21 21.232 20.015 21.688 19.392 21.118C19.2172 20.9565 18.988 20.8668 18.75 20.8668C18.512 20.8668 18.2828 20.9565 18.108 21.118L17.625 21.56C17.3188 21.8432 16.9171 22.0004 16.5 22.0004C16.0829 22.0004 15.6812 21.8432 15.375 21.56C15.0688 21.2768 14.6671 21.1196 14.25 21.1196C13.8329 21.1196 13.4312 21.2768 13.125 21.56C12.8188 21.8432 12.4171 22.0004 12 22.0004C11.5829 22.0004 11.1812 21.8432 10.875 21.56C10.5688 21.2768 10.1671 21.1196 9.75 21.1196C9.33293 21.1196 8.93121 21.2768 8.625 21.56C8.31879 21.8432 7.91707 22.0004 7.5 22.0004C7.08293 22.0004 6.68121 21.8432 6.375 21.56L5.892 21.118C5.71721 20.9565 5.48798 20.8668 5.25 20.8668C5.01202 20.8668 4.78279 20.9565 4.608 21.118C3.985 21.688 3 21.232 3 20.374V6.37C3 5.177 3 4.58 3.158 4.1C3.458 3.187 4.153 2.471 5.039 2.163C5.507 2 6.086 2 7.245 2Z" fill="#1877F2"/>
<path d="M7 6.75C6.80109 6.75 6.61032 6.82902 6.46967 6.96967C6.32902 7.11032 6.25 7.30109 6.25 7.5C6.25 7.69891 6.32902 7.88968 6.46967 8.03033C6.61032 8.17098 6.80109 8.25 7 8.25H7.5C7.69891 8.25 7.88968 8.17098 8.03033 8.03033C8.17098 7.88968 8.25 7.69891 8.25 7.5C8.25 7.30109 8.17098 7.11032 8.03033 6.96967C7.88968 6.82902 7.69891 6.75 7.5 6.75H7ZM10.5 6.75C10.3011 6.75 10.1103 6.82902 9.96967 6.96967C9.82902 7.11032 9.75 7.30109 9.75 7.5C9.75 7.69891 9.82902 7.88968 9.96967 8.03033C10.1103 8.17098 10.3011 8.25 10.5 8.25H17C17.1989 8.25 17.3897 8.17098 17.5303 8.03033C17.671 7.88968 17.75 7.69891 17.75 7.5C17.75 7.30109 17.671 7.11032 17.5303 6.96967C17.3897 6.82902 17.1989 6.75 17 6.75H10.5ZM7 10.25C6.80109 10.25 6.61032 10.329 6.46967 10.4697C6.32902 10.6103 6.25 10.8011 6.25 11C6.25 11.1989 6.32902 11.3897 6.46967 11.5303C6.61032 11.671 6.80109 11.75 7 11.75H7.5C7.69891 11.75 7.88968 11.671 8.03033 11.5303C8.17098 11.3897 8.25 11.1989 8.25 11C8.25 10.8011 8.17098 10.6103 8.03033 10.4697C7.88968 10.329 7.69891 10.25 7.5 10.25H7ZM10.5 10.25C10.3011 10.25 10.1103 10.329 9.96967 10.4697C9.82902 10.6103 9.75 10.8011 9.75 11C9.75 11.1989 9.82902 11.3897 9.96967 11.5303C10.1103 11.671 10.3011 11.75 10.5 11.75H17C17.1989 11.75 17.3897 11.671 17.5303 11.5303C17.671 11.3897 17.75 11.1989 17.75 11C17.75 10.8011 17.671 10.6103 17.5303 10.4697C17.3897 10.329 17.1989 10.25 17 10.25H10.5ZM7 13.75C6.80109 13.75 6.61032 13.829 6.46967 13.9697C6.32902 14.1103 6.25 14.3011 6.25 14.5C6.25 14.6989 6.32902 14.8897 6.46967 15.0303C6.61032 15.171 6.80109 15.25 7 15.25H7.5C7.69891 15.25 7.88968 15.171 8.03033 15.0303C8.17098 14.8897 8.25 14.6989 8.25 14.5C8.25 14.3011 8.17098 14.1103 8.03033 13.9697C7.88968 13.829 7.69891 13.75 7.5 13.75H7ZM10.5 13.75C10.3011 13.75 10.1103 13.829 9.96967 13.9697C9.82902 14.1103 9.75 14.3011 9.75 14.5C9.75 14.6989 9.82902 14.8897 9.96967 15.0303C10.1103 15.171 10.3011 15.25 10.5 15.25H17C17.1989 15.25 17.3897 15.171 17.5303 15.0303C17.671 14.8897 17.75 14.6989 17.75 14.5C17.75 14.3011 17.671 14.1103 17.5303 13.9697C17.3897 13.829 17.1989 13.75 17 13.75H10.5Z" fill="#1877F2"/>
</svg>
