<svg width="24" height="24" viewBox="0 0 24 24" fill="none" xmlns="http://www.w3.org/2000/svg">
<path opacity="0.5" d="M21.9998 14V12C21.9998 11.161 21.9868 9.665 21.9738 9H2.00578C1.99278 9.665 2.00578 11.161 2.00578 12V14C2.00578 17.771 2.00578 19.657 3.17578 20.828C4.34878 22 6.23378 22 10.0038 22H14.0038C17.7738 22 19.6578 22 20.8298 20.828C21.9998 19.657 21.9998 17.771 21.9998 14Z" fill="#1877F2"/>
<path d="M6.96 2C7.378 2 7.716 2.31 7.716 2.692V4.09C8.386 4.078 9.138 4.078 9.984 4.078H14.016C14.862 4.078 15.613 4.078 16.284 4.09V2.692C16.284 2.31 16.622 2 17.04 2C17.458 2 17.796 2.31 17.796 2.692V4.15C19.246 4.256 20.199 4.518 20.899 5.158C21.599 5.799 21.884 6.671 22 8V9H2V8C2.116 6.671 2.401 5.8 3.101 5.158C3.801 4.518 4.753 4.256 6.204 4.15V2.692C6.204 2.31 6.543 2 6.96 2Z" fill="#1877F2"/>
<path d="M18 16.5C18 16.8978 17.842 17.2794 17.5607 17.5607C17.2794 17.842 16.8978 18 16.5 18C16.1022 18 15.7206 17.842 15.4393 17.5607C15.158 17.2794 15 16.8978 15 16.5C15 16.1022 15.158 15.7206 15.4393 15.4393C15.7206 15.158 16.1022 15 16.5 15C16.8978 15 17.2794 15.158 17.5607 15.4393C17.842 15.7206 18 16.1022 18 16.5Z" fill="#1877F2"/>
</svg>
