<svg width="16" height="16" viewBox="0 0 16 16" fill="none" xmlns="http://www.w3.org/2000/svg">
<g id="icons/solid/ic-solar: calendar main">
<path id="Vector" d="M5.16667 1.66669C5.16667 1.39055 4.94281 1.16669 4.66667 1.16669C4.39053 1.16669 4.16667 1.39055 4.16667 1.66669V2.71953C3.20712 2.79636 2.57718 2.98493 2.11438 3.44773C1.65158 3.91053 1.46301 4.54047 1.38618 5.50002H14.6138C14.537 4.54047 14.3484 3.91053 13.8856 3.44773C13.4228 2.98493 12.7929 2.79636 11.8333 2.71953V1.66669C11.8333 1.39055 11.6095 1.16669 11.3333 1.16669C11.0572 1.16669 10.8333 1.39055 10.8333 1.66669V2.67529C10.3898 2.66669 9.89267 2.66669 9.33334 2.66669H6.66667C6.10732 2.66669 5.61018 2.66669 5.16667 2.67529V1.66669Z" fill="#8C8C8C"/>
<path id="Vector_2" fill-rule="evenodd" clip-rule="evenodd" d="M14.6667 8V9.33333C14.6667 11.8475 14.6667 13.1046 13.8856 13.8856C13.1046 14.6667 11.8475 14.6667 9.33334 14.6667H6.66667C4.15251 14.6667 2.89544 14.6667 2.11438 13.8856C1.33334 13.1046 1.33334 11.8475 1.33334 9.33333V8C1.33334 7.44067 1.33334 6.94353 1.34194 6.5H14.6581C14.6667 6.94353 14.6667 7.44067 14.6667 8ZM11 12C11.5523 12 12 11.5523 12 11C12 10.4477 11.5523 10 11 10C10.4477 10 10 10.4477 10 11C10 11.5523 10.4477 12 11 12Z" fill="#8C8C8C"/>
</g>
</svg>
