<svg width="24" height="24" viewBox="0 0 24 24" fill="none" xmlns="http://www.w3.org/2000/svg">
<path opacity="0.5" d="M2 8V12C2 14.828 2 16.243 2.879 17.121C3.355 17.598 3.989 17.816 4.919 17.916C4.994 17.816 5.064 17.737 5.114 17.682C5.23 17.554 5.377 17.409 5.52 17.268L7.013 15.796L7.564 15.238C7.74376 14.1917 8.28755 13.2427 9.09927 12.5585C9.91099 11.8744 10.9384 11.4992 12 11.4992C13.0616 11.4992 14.089 11.8744 14.9007 12.5585C15.7125 13.2427 16.2562 14.1917 16.436 15.238L16.987 15.796L18.48 17.268C18.623 17.409 18.77 17.554 18.886 17.682C18.936 17.737 19.006 17.816 19.08 17.916C20.011 17.816 20.645 17.598 21.121 17.121C22 16.243 22 14.828 22 12V8C22 5.172 22 3.757 21.121 2.879C20.243 2 18.828 2 16 2H8C5.172 2 3.757 2 2.879 2.879C2 3.757 2 5.172 2 8Z" fill="#1877F2"/>
<path d="M6.99996 8.75C6.80105 8.75 6.61028 8.82902 6.46963 8.96967C6.32898 9.11032 6.24996 9.30109 6.24996 9.5C6.24996 9.69891 6.32898 9.88968 6.46963 10.0303C6.61028 10.171 6.80105 10.25 6.99996 10.25H17C17.1989 10.25 17.3896 10.171 17.5303 10.0303C17.6709 9.88968 17.75 9.69891 17.75 9.5C17.75 9.30109 17.6709 9.11032 17.5303 8.96967C17.3896 8.82902 17.1989 8.75 17 8.75H6.99996ZM8.24996 6C8.24996 5.80109 8.32898 5.61032 8.46963 5.46967C8.61028 5.32902 8.80105 5.25 8.99996 5.25H15C15.1989 5.25 15.3896 5.32902 15.5303 5.46967C15.6709 5.61032 15.75 5.80109 15.75 6C15.75 6.19891 15.6709 6.38968 15.5303 6.53033C15.3896 6.67098 15.1989 6.75 15 6.75H8.99996C8.80105 6.75 8.61028 6.67098 8.46963 6.53033C8.32898 6.38968 8.24996 6.19891 8.24996 6ZM9.00096 15.917L8.99996 16C9.00137 16.7921 9.31596 17.5514 9.87509 18.1124C10.4342 18.6734 11.1925 18.9905 11.9846 18.9946C12.7766 18.9987 13.5381 18.6893 14.103 18.1341C14.6678 17.5789 14.9902 16.8228 14.9997 16.0308C15.0093 15.2388 14.7052 14.4751 14.1539 13.9065C13.6026 13.3378 12.8488 13.0102 12.0568 12.9952C11.2649 12.9802 10.4992 13.2789 9.92673 13.8263C9.35425 14.3737 9.02146 15.1252 9.00096 15.917ZM7.67596 17.25L6.59596 18.315C6.27096 18.635 6.10896 18.795 6.05296 18.929C5.98936 19.0729 5.98069 19.235 6.0286 19.3849C6.07652 19.5347 6.17768 19.6617 6.31296 19.742C6.43496 19.813 6.65496 19.835 7.09596 19.88C7.34396 19.905 7.46896 19.917 7.57296 19.955C7.6871 19.9962 7.79093 20.0618 7.87725 20.147C7.96358 20.2323 8.03036 20.3354 8.07296 20.449C8.11196 20.552 8.12496 20.674 8.14996 20.919C8.19496 21.354 8.21796 21.571 8.28996 21.692C8.37401 21.8261 8.50335 21.9257 8.65452 21.9727C8.80569 22.0197 8.96869 22.0109 9.11396 21.948C9.25096 21.892 9.41396 21.733 9.73696 21.413L10.817 20.343C10.0723 20.1393 9.39248 19.7478 8.84251 19.2061C8.29253 18.6643 7.89086 17.9915 7.67596 17.25ZM13.182 20.343L14.262 21.413C14.587 21.733 14.749 21.893 14.886 21.948C15.199 22.074 15.546 21.966 15.71 21.692C15.782 21.572 15.805 21.354 15.85 20.92C15.875 20.674 15.888 20.552 15.927 20.45C15.9695 20.3362 16.0362 20.233 16.1226 20.1476C16.2089 20.0621 16.3128 19.9964 16.427 19.955C16.532 19.917 16.656 19.905 16.904 19.88C17.344 19.835 17.565 19.813 17.687 19.742C17.8222 19.6617 17.9234 19.5347 17.9713 19.3849C18.0192 19.235 18.0106 19.0729 17.947 18.929C17.891 18.794 17.729 18.634 17.405 18.315L16.325 17.249C16.1099 17.9907 15.7079 18.6647 15.1576 19.2065C14.6072 19.7483 13.927 20.1396 13.182 20.343Z" fill="#1877F2"/>
</svg>
