<svg width="24" height="24" viewBox="0 0 24 24" fill="none" xmlns="http://www.w3.org/2000/svg">
<path opacity="0.5" d="M6.25 19C6.24989 19.1534 6.29679 19.3031 6.38439 19.429C6.47199 19.5549 6.59608 19.6509 6.73993 19.704C6.88378 19.7572 7.04047 19.765 7.18889 19.7264C7.33731 19.6878 7.47033 19.6046 7.57 19.488L13.57 12.488C13.6865 12.3521 13.7505 12.179 13.7505 12C13.7505 11.821 13.6865 11.6479 13.57 11.512L7.57 4.51201C7.47033 4.39545 7.33731 4.31225 7.18889 4.27363C7.04047 4.235 6.88378 4.2428 6.73993 4.29598C6.59608 4.34917 6.47199 4.44517 6.38439 4.57105C6.29679 4.69693 6.24989 4.84664 6.25 5.00001V19Z" fill="#1877F2"/>
<path fill-rule="evenodd" clip-rule="evenodd" d="M10.5119 19.57C10.437 19.5059 10.3756 19.4276 10.331 19.3397C10.2865 19.2519 10.2596 19.156 10.2521 19.0578C10.2446 18.9595 10.2565 18.8608 10.2872 18.7671C10.3179 18.6735 10.3667 18.5868 10.4309 18.512L16.0119 12L10.4309 5.48801C10.366 5.41333 10.3165 5.32656 10.2853 5.23269C10.2541 5.13882 10.2418 5.03971 10.2491 4.94105C10.2564 4.8424 10.2831 4.74616 10.3277 4.65788C10.3723 4.56959 10.4339 4.49101 10.5091 4.42664C10.5842 4.36228 10.6713 4.31341 10.7654 4.28285C10.8594 4.25229 10.9586 4.24064 11.0572 4.24857C11.1558 4.25651 11.2519 4.28387 11.3399 4.32908C11.4278 4.37429 11.506 4.43646 11.5699 4.51201L17.5699 11.512C17.6863 11.6479 17.7503 11.821 17.7503 12C17.7503 12.179 17.6863 12.3521 17.5699 12.488L11.5699 19.488C11.5058 19.5629 11.4276 19.6244 11.3398 19.6691C11.2519 19.7138 11.1561 19.7407 11.0579 19.7483C10.9596 19.7559 10.8608 19.7441 10.7671 19.7135C10.6734 19.6829 10.5867 19.6341 10.5119 19.57Z" fill="#1877F2"/>
</svg>
