<svg width="24" height="24" viewBox="0 0 24 24" fill="none" xmlns="http://www.w3.org/2000/svg">
<path fill-rule="evenodd" clip-rule="evenodd" d="M3.378 5.082C3 5.62 3 7.22 3 10.417V11.991C3 17.629 7.239 20.366 9.899 21.527C10.62 21.842 10.981 22 12 22C13.02 22 13.38 21.842 14.101 21.527C16.761 20.365 21 17.63 21 11.991V10.417C21 7.219 21 5.62 20.622 5.082C20.245 4.545 18.742 4.03 15.735 3.001L15.162 2.805C13.595 2.268 12.812 2 12 2C11.189 2 10.405 2.268 8.838 2.805L8.265 3C5.258 4.03 3.755 4.545 3.378 5.082ZM15.059 10.5C15.1844 10.3507 15.2468 10.1585 15.2329 9.96402C15.219 9.76955 15.1299 9.58813 14.9846 9.45823C14.8392 9.32832 14.6489 9.26013 14.4541 9.26811C14.2593 9.2761 14.0753 9.35963 13.941 9.501L10.929 12.875L10.059 11.901C9.92604 11.7541 9.74033 11.6657 9.54245 11.6553C9.34457 11.6448 9.15059 11.7131 9.0029 11.8452C8.8552 11.9773 8.76579 12.1625 8.75419 12.3604C8.74259 12.5582 8.80975 12.7525 8.941 12.901L10.369 14.501C10.4394 14.5798 10.5256 14.6429 10.622 14.686C10.7184 14.7292 10.8229 14.7515 10.9285 14.7515C11.0341 14.7515 11.1386 14.7292 11.235 14.686C11.3314 14.6429 11.4176 14.5798 11.488 14.501L15.06 10.501L15.059 10.5Z" fill="#1877F2"/>
</svg>
