<svg width="24" height="24" viewBox="0 0 24 24" fill="none" xmlns="http://www.w3.org/2000/svg">
<path fill-rule="evenodd" clip-rule="evenodd" d="M14 22.0001H10C6.229 22.0001 4.343 22.0001 3.172 20.8281C2 19.6571 2 17.7711 2 14.0001V10.0001C2 6.22912 2 4.34312 3.172 3.17212C4.343 2.00012 6.239 2.00012 10.03 2.00012C10.636 2.00012 11.121 2.00012 11.53 2.01712C11.517 2.09712 11.51 2.17812 11.51 2.26112L11.5 5.09512C11.5 6.19212 11.5 7.16212 11.605 7.94312C11.719 8.79012 11.98 9.63712 12.672 10.3291C13.362 11.0191 14.21 11.2811 15.057 11.3951C15.838 11.5001 16.808 11.5001 17.905 11.5001H21.957C22 12.0341 22 12.6901 22 13.5631V14.0001C22 17.7711 22 19.6571 20.828 20.8281C19.657 22.0001 17.771 22.0001 14 22.0001ZM5.25 14.5001C5.25 14.3012 5.32902 14.1104 5.46967 13.9698C5.61032 13.8291 5.80109 13.7501 6 13.7501H14C14.1989 13.7501 14.3897 13.8291 14.5303 13.9698C14.671 14.1104 14.75 14.3012 14.75 14.5001C14.75 14.699 14.671 14.8898 14.5303 15.0305C14.3897 15.1711 14.1989 15.2501 14 15.2501H6C5.80109 15.2501 5.61032 15.1711 5.46967 15.0305C5.32902 14.8898 5.25 14.699 5.25 14.5001ZM5.25 18.0001C5.25 17.8012 5.32902 17.6104 5.46967 17.4698C5.61032 17.3291 5.80109 17.2501 6 17.2501H11.5C11.6989 17.2501 11.8897 17.3291 12.0303 17.4698C12.171 17.6104 12.25 17.8012 12.25 18.0001C12.25 18.199 12.171 18.3898 12.0303 18.5305C11.8897 18.6711 11.6989 18.7501 11.5 18.7501H6C5.80109 18.7501 5.61032 18.6711 5.46967 18.5305C5.32902 18.3898 5.25 18.199 5.25 18.0001Z" fill="#1877F2"/>
<path d="M19.352 7.61712L15.392 4.05412C14.265 3.03912 13.702 2.53112 13.009 2.26612L13 5.00012C13 7.35712 13 8.53612 13.732 9.26812C14.464 10.0001 15.643 10.0001 18 10.0001H21.58C21.218 9.29612 20.568 8.71212 19.352 7.61712Z" fill="#1877F2"/>
</svg>
