<svg width="24" height="24" viewBox="0 0 24 24" fill="none" xmlns="http://www.w3.org/2000/svg">
<path fill-rule="evenodd" clip-rule="evenodd" d="M7.843 3.802C9.872 2.601 10.886 2 12 2C13.114 2 14.128 2.6 16.157 3.802L16.843 4.208C18.872 5.41 19.886 6.011 20.443 7C21 7.99 21 9.19 21 11.594V12.406C21 14.809 21 16.011 20.443 17C19.886 17.99 18.872 18.59 16.843 19.791L16.157 20.198C14.128 21.399 13.114 22 12 22C10.886 22 9.872 21.4 7.843 20.198L7.157 19.791C5.128 18.591 4.114 17.989 3.557 17C3 16.01 3 14.81 3 12.406V11.594C3 9.19 3 7.989 3.557 7C4.114 6.01 5.128 5.41 7.157 4.208L7.843 3.802ZM13 16C13 16.2652 12.8946 16.5196 12.7071 16.7071C12.5196 16.8946 12.2652 17 12 17C11.7348 17 11.4804 16.8946 11.2929 16.7071C11.1054 16.5196 11 16.2652 11 16C11 15.7348 11.1054 15.4804 11.2929 15.2929C11.4804 15.1054 11.7348 15 12 15C12.2652 15 12.5196 15.1054 12.7071 15.2929C12.8946 15.4804 13 15.7348 13 16ZM12 6.25C12.1989 6.25 12.3897 6.32902 12.5303 6.46967C12.671 6.61032 12.75 6.80109 12.75 7V13C12.75 13.1989 12.671 13.3897 12.5303 13.5303C12.3897 13.671 12.1989 13.75 12 13.75C11.8011 13.75 11.6103 13.671 11.4697 13.5303C11.329 13.3897 11.25 13.1989 11.25 13V7C11.25 6.80109 11.329 6.61032 11.4697 6.46967C11.6103 6.32902 11.8011 6.25 12 6.25Z" fill="#1877F2"/>
</svg>
