<svg width="64" height="64" viewBox="0 0 64 64" fill="none" xmlns="http://www.w3.org/2000/svg">
<rect width="64" height="64" rx="2" fill="#203D99" fill-opacity="0.08"/>
<path fill-rule="evenodd" clip-rule="evenodd" d="M37.641 39.2382H44.0342C44.7324 39.2382 45.402 38.9572 45.8956 38.4571C46.3893 37.957 46.6667 37.2788 46.6667 36.5715V21.3334C46.6667 20.6262 46.3893 19.9479 45.8956 19.4478C45.402 18.9477 44.7324 18.6667 44.0342 18.6667H19.9658C19.2676 18.6667 18.5981 18.9477 18.1044 19.4478C17.6107 19.9479 17.3333 20.6262 17.3333 21.3334V36.5715C17.3333 37.2788 17.6107 37.957 18.1044 38.4571C18.5981 38.9572 19.2676 39.2382 19.9658 39.2382H26.359V43.0477H24.4786C23.8556 43.0477 23.3504 43.5594 23.3504 44.1906C23.3504 44.8217 23.8556 45.3334 24.4786 45.3334H39.5214C40.1445 45.3334 40.6496 44.8217 40.6496 44.1906C40.6496 43.5594 40.1445 43.0477 39.5214 43.0477H37.641V39.2382ZM19.6999 21.064C19.7704 20.9926 19.8661 20.9525 19.9658 20.9525H44.0342C44.1339 20.9525 44.2296 20.9926 44.3001 21.064C44.3706 21.1355 44.4103 21.2324 44.4103 21.3334V36.5715C44.4103 36.6725 44.3706 36.7694 44.3001 36.8409C44.2296 36.9123 44.1339 36.9525 44.0342 36.9525H19.9658C19.8661 36.9525 19.7704 36.9123 19.6999 36.8409C19.6294 36.7694 19.5898 36.6725 19.5898 36.5715V21.3334C19.5898 21.2324 19.6294 21.1355 19.6999 21.064ZM35.3846 39.2382H28.6154V43.0477H35.3846V39.2382Z" fill="#203D99"/>
</svg>
