<svg width="20" height="20" viewBox="0 0 20 20" fill="none" xmlns="http://www.w3.org/2000/svg">
<g id="ic:round-format-color-reset">
<path id="Vector" d="M15 11.6665C15 9.09146 12 5.0998 10.6417 3.44146C10.5635 3.34563 10.465 3.26838 10.3533 3.21534C10.2416 3.16229 10.1195 3.13477 9.99582 3.13477C9.87216 3.13477 9.75005 3.16229 9.63835 3.21534C9.52664 3.26838 9.42814 3.34563 9.34999 3.44146C8.96666 3.91646 8.44999 4.5748 7.90832 5.33313L14.9417 12.3665C14.975 12.1331 15 11.8998 15 11.6665ZM16.075 15.8415L5.09999 4.86646C5.02284 4.78931 4.93125 4.72811 4.83044 4.68636C4.72964 4.6446 4.6216 4.62311 4.51249 4.62311C4.40338 4.62311 4.29534 4.6446 4.19454 4.68636C4.09374 4.72811 4.00214 4.78931 3.92499 4.86646C3.84784 4.94362 3.78664 5.03521 3.74489 5.13601C3.70313 5.23682 3.68164 5.34486 3.68164 5.45396C3.68164 5.56307 3.70313 5.67111 3.74489 5.77192C3.78664 5.87272 3.84784 5.96431 3.92499 6.04146L6.09999 8.21646C5.45832 9.44146 4.99999 10.6581 4.99999 11.6665C4.99999 14.4248 7.24166 16.6665 9.99999 16.6665C11.2667 16.6665 12.4167 16.1915 13.2917 15.4165L14.8917 17.0165C15.2167 17.3415 15.7417 17.3415 16.0667 17.0165C16.4 16.6998 16.4 16.1665 16.075 15.8415Z" fill="#262626"/>
</g>
</svg>
