<svg width="24" height="24" viewBox="0 0 24 24" fill="none" xmlns="http://www.w3.org/2000/svg">
<g id="icon-park-outline:one-third-rotation">
<path id="Vector (Stroke)" fill-rule="evenodd" clip-rule="evenodd" d="M10.159 3.18843C6.07133 4.03804 3 7.66022 3 12V12C2.99999 12.301 3.01488 12.6017 3.04461 12.9012C3.09917 13.4508 2.69787 13.9405 2.14829 13.9951C1.59871 14.0497 1.10895 13.6484 1.05439 13.0988C1.01814 12.7336 0.99999 12.3669 1 12M10.159 3.18843L9.113 4.99995C8.83683 5.47823 9.00067 6.08983 9.47895 6.366C9.95723 6.64217 10.5688 6.47833 10.845 6.00005L12.866 2.50005C13.0447 2.19065 13.0447 1.80944 12.866 1.50003C12.6874 1.19061 12.3573 1 12 1C5.92473 1 1.00002 5.9247 1 12M15.0836 2.43167C15.3047 1.92557 15.8942 1.69453 16.4003 1.91563C20.2835 3.61206 23 7.48847 23 12C23 14.002 22.4643 15.8817 21.5276 17.5008C21.3488 17.8099 21.0187 18.0001 20.6616 18C20.3045 17.9999 19.9746 17.8093 19.796 17.5L17.775 14.0001C17.4988 13.5218 17.6627 12.9102 18.1409 12.634C18.6192 12.3578 19.2308 12.5217 19.507 12.9999L20.5526 14.8108C20.8429 13.927 21 12.9824 21 12C21 8.31153 18.7805 5.13794 15.5997 3.74837C15.0936 3.52728 14.8625 2.93777 15.0836 2.43167ZM9.17157 9.17157C9.92172 8.42143 10.9391 8 12 8C13.0609 8 14.0783 8.42143 14.8284 9.17157C15.5786 9.92172 16 10.9391 16 12C16 13.0609 15.5786 14.0783 14.8284 14.8284C14.0783 15.5786 13.0609 16 12 16C10.9391 16 9.92172 15.5786 9.17157 14.8284C8.42143 14.0783 8 13.0609 8 12C8 10.9391 8.42143 9.92172 9.17157 9.17157ZM12 10C11.4696 10 10.9609 10.2107 10.5858 10.5858C10.2107 10.9609 10 11.4696 10 12C10 12.5304 10.2107 13.0391 10.5858 13.4142C10.9609 13.7893 11.4696 14 12 14C12.5304 14 13.0391 13.7893 13.4142 13.4142C13.7893 13.0391 14 12.5304 14 12C14 11.4696 13.7893 10.9609 13.4142 10.5858C13.0391 10.2107 12.5304 10 12 10ZM2.47177 16.5004C2.65035 16.1908 2.98059 16 3.338 16H7.5C8.05228 16 8.5 16.4477 8.5 17C8.5 17.5523 8.05228 18 7.5 18H5.29165C6.94038 19.8423 9.33528 21 12 21H12.0012C13.9477 21.0023 15.8424 20.3731 17.4009 19.2069C17.843 18.876 18.4697 18.9662 18.8006 19.4084C19.1315 19.8505 19.0413 20.4772 18.5991 20.8081C16.6942 22.2337 14.3781 23.0028 11.9988 23L12 22V23C11.9996 23 11.9992 23 11.9988 23C7.92639 22.9996 4.37259 20.7857 2.47239 17.5007C2.29343 17.1913 2.29319 16.81 2.47177 16.5004Z" fill="#8C8C8C"/>
</g>
</svg>
