<svg width="16" height="17" viewBox="0 0 16 17" fill="none" xmlns="http://www.w3.org/2000/svg">
<g id="Menu">
<path id="Vector" d="M14.9998 2.21106H0.999791C0.921219 2.21106 0.856934 2.27535 0.856934 2.35392V3.49677C0.856934 3.57535 0.921219 3.63963 0.999791 3.63963H14.9998C15.0784 3.63963 15.1426 3.57535 15.1426 3.49677V2.35392C15.1426 2.27535 15.0784 2.21106 14.9998 2.21106ZM14.9998 13.3539H0.999791C0.921219 13.3539 0.856934 13.4182 0.856934 13.4968V14.6396C0.856934 14.7182 0.921219 14.7825 0.999791 14.7825H14.9998C15.0784 14.7825 15.1426 14.7182 15.1426 14.6396V13.4968C15.1426 13.4182 15.0784 13.3539 14.9998 13.3539ZM14.9998 7.78249H0.999791C0.921219 7.78249 0.856934 7.84677 0.856934 7.92535V9.0682C0.856934 9.14677 0.921219 9.21106 0.999791 9.21106H14.9998C15.0784 9.21106 15.1426 9.14677 15.1426 9.0682V7.92535C15.1426 7.84677 15.0784 7.78249 14.9998 7.78249Z" fill="#262626"/>
</g>
</svg>
